<svg xmlns="http://www.w3.org/2000/svg" xmlns:xlink="http://www.w3.org/1999/xlink" width="500" zoomAndPan="magnify" viewBox="0 0 375 374.999991" height="500" preserveAspectRatio="xMidYMid meet" version="1.0"><defs><clipPath id="c8cc4ba951"><path d="M 1.0625 1.0625 L 343.9375 1.0625 L 343.9375 343.9375 L 1.0625 343.9375 Z M 1.0625 1.0625 " clip-rule="nonzero"/></clipPath><clipPath id="45540184bd"><rect x="0" width="345" y="0" height="345"/></clipPath></defs><rect x="-37.5" width="450" fill="#ffffff" y="-37.499999" height="449.999989" fill-opacity="1"/><rect x="-37.5" width="450" fill="#ffffff" y="-37.499999" height="449.999989" fill-opacity="1"/><g transform="matrix(1, 0, 0, 1, 15, 15)"><g clip-path="url(#45540184bd)"><g clip-path="url(#c8cc4ba951)"><path fill="#ffffff" d="M 1.0625 1.0625 L 343.9375 1.0625 L 343.9375 343.9375 L 1.0625 343.9375 Z M 1.0625 1.0625 " fill-opacity="1" fill-rule="nonzero"/></g><path stroke-linecap="butt" transform="matrix(10.390052, 0, 0, 10.390052, 1.064125, 1.06412)" fill-opacity="1" fill="#ffffff" fill-rule="nonzero" stroke-linejoin="miter" d="M 1.999954 2.499982 L 8.999964 2.499982 M 11.000075 2.499982 L 15.999975 2.499982 M 18.000085 2.499982 L 19.00014 2.499982 M 19.999819 2.499982 L 21.99993 2.499982 M 24.00004 2.499982 L 31.00005 2.499982 M 1.999954 3.500037 L 3.000009 3.500037 M 7.999909 3.500037 L 8.999964 3.500037 M 10.000019 3.500037 L 12.00013 3.500037 M 13.999864 3.500037 L 14.999919 3.500037 M 15.999975 3.500037 L 19.00014 3.500037 M 20.999874 3.500037 L 21.99993 3.500037 M 24.00004 3.500037 L 25.000095 3.500037 M 29.999995 3.500037 L 31.00005 3.500037 M 1.999954 4.500092 L 3.000009 4.500092 M 4.000064 4.500092 L 6.999854 4.500092 M 7.999909 4.500092 L 8.999964 4.500092 M 11.000075 4.500092 L 12.00013 4.500092 M 13.999864 4.500092 L 17.00003 4.500092 M 18.000085 4.500092 L 19.00014 4.500092 M 20.999874 4.500092 L 21.99993 4.500092 M 24.00004 4.500092 L 25.000095 4.500092 M 26.00015 4.500092 L 28.99994 4.500092 M 29.999995 4.500092 L 31.00005 4.500092 M 1.999954 5.500148 L 3.000009 5.500148 M 4.000064 5.500148 L 6.999854 5.500148 M 7.999909 5.500148 L 8.999964 5.500148 M 11.000075 5.500148 L 12.00013 5.500148 M 13.999864 5.500148 L 18.000085 5.500148 M 19.999819 5.500148 L 20.999874 5.500148 M 24.00004 5.500148 L 25.000095 5.500148 M 26.00015 5.500148 L 28.99994 5.500148 M 29.999995 5.500148 L 31.00005 5.500148 M 1.999954 6.499827 L 3.000009 6.499827 M 4.000064 6.499827 L 6.999854 6.499827 M 7.999909 6.499827 L 8.999964 6.499827 M 10.000019 6.499827 L 12.00013 6.499827 M 15.999975 6.499827 L 17.00003 6.499827 M 19.00014 6.499827 L 22.999985 6.499827 M 24.00004 6.499827 L 25.000095 6.499827 M 26.00015 6.499827 L 28.99994 6.499827 M 29.999995 6.499827 L 31.00005 6.499827 M 1.999954 7.499882 L 3.000009 7.499882 M 7.999909 7.499882 L 8.999964 7.499882 M 14.999919 7.499882 L 15.999975 7.499882 M 19.999819 7.499882 L 22.999985 7.499882 M 24.00004 7.499882 L 25.000095 7.499882 M 29.999995 7.499882 L 31.00005 7.499882 M 1.999954 8.499937 L 8.999964 8.499937 M 10.000019 8.499937 L 11.000075 8.499937 M 12.00013 8.499937 L 13.000185 8.499937 M 13.999864 8.499937 L 14.999919 8.499937 M 15.999975 8.499937 L 17.00003 8.499937 M 18.000085 8.499937 L 19.00014 8.499937 M 19.999819 8.499937 L 20.999874 8.499937 M 21.99993 8.499937 L 22.999985 8.499937 M 24.00004 8.499937 L 31.00005 8.499937 M 13.000185 9.499992 L 13.999864 9.499992 M 14.999919 9.499992 L 17.00003 9.499992 M 18.000085 9.499992 L 22.999985 9.499992 M 1.999954 10.500047 L 3.000009 10.500047 M 4.000064 10.500047 L 5.00012 10.500047 M 6.000175 10.500047 L 6.999854 10.500047 M 7.999909 10.500047 L 8.999964 10.500047 M 11.000075 10.500047 L 12.00013 10.500047 M 15.999975 10.500047 L 18.000085 10.500047 M 19.00014 10.500047 L 20.999874 10.500047 M 21.99993 10.500047 L 22.999985 10.500047 M 26.00015 10.500047 L 26.99983 10.500047 M 28.99994 10.500047 L 29.999995 10.500047 M 4.000064 11.500103 L 6.999854 11.500103 M 12.00013 11.500103 L 14.999919 11.500103 M 15.999975 11.500103 L 18.000085 11.500103 M 21.99993 11.500103 L 22.999985 11.500103 M 24.00004 11.500103 L 25.000095 11.500103 M 26.99983 11.500103 L 27.999885 11.500103 M 29.999995 11.500103 L 31.00005 11.500103 M 1.999954 12.500158 L 4.000064 12.500158 M 5.00012 12.500158 L 6.000175 12.500158 M 7.999909 12.500158 L 13.000185 12.500158 M 14.999919 12.500158 L 15.999975 12.500158 M 19.00014 12.500158 L 19.999819 12.500158 M 24.00004 12.500158 L 26.99983 12.500158 M 27.999885 12.500158 L 31.00005 12.500158 M 1.999954 13.499837 L 3.000009 13.499837 M 5.00012 13.499837 L 6.000175 13.499837 M 8.999964 13.499837 L 10.000019 13.499837 M 13.000185 13.499837 L 14.999919 13.499837 M 17.00003 13.499837 L 18.000085 13.499837 M 19.00014 13.499837 L 19.999819 13.499837 M 24.00004 13.499837 L 25.000095 13.499837 M 28.99994 13.499837 L 29.999995 13.499837 M 1.999954 14.499892 L 3.000009 14.499892 M 4.000064 14.499892 L 5.00012 14.499892 M 6.000175 14.499892 L 10.000019 14.499892 M 11.000075 14.499892 L 13.000185 14.499892 M 13.999864 14.499892 L 14.999919 14.499892 M 18.000085 14.499892 L 19.999819 14.499892 M 21.99993 14.499892 L 25.000095 14.499892 M 26.99983 14.499892 L 27.999885 14.499892 M 28.99994 14.499892 L 31.00005 14.499892 M 1.999954 15.499947 L 3.000009 15.499947 M 5.00012 15.499947 L 6.000175 15.499947 M 8.999964 15.499947 L 13.999864 15.499947 M 14.999919 15.499947 L 15.999975 15.499947 M 17.00003 15.499947 L 20.999874 15.499947 M 21.99993 15.499947 L 25.000095 15.499947 M 26.99983 15.499947 L 27.999885 15.499947 M 29.999995 15.499947 L 31.00005 15.499947 M 3.000009 16.500003 L 6.999854 16.500003 M 7.999909 16.500003 L 8.999964 16.500003 M 11.000075 16.500003 L 12.00013 16.500003 M 13.999864 16.500003 L 14.999919 16.500003 M 15.999975 16.500003 L 19.00014 16.500003 M 24.00004 16.500003 L 26.00015 16.500003 M 26.99983 16.500003 L 27.999885 16.500003 M 28.99994 16.500003 L 31.00005 16.500003 M 1.999954 17.500058 L 3.000009 17.500058 M 4.000064 17.500058 L 5.00012 17.500058 M 6.000175 17.500058 L 7.999909 17.500058 M 10.000019 17.500058 L 11.000075 17.500058 M 13.000185 17.500058 L 17.00003 17.500058 M 18.000085 17.500058 L 21.99993 17.500058 M 26.99983 17.500058 L 27.999885 17.500058 M 28.99994 17.500058 L 29.999995 17.500058 M 1.999954 18.500113 L 3.000009 18.500113 M 4.000064 18.500113 L 5.00012 18.500113 M 7.999909 18.500113 L 8.999964 18.500113 M 10.000019 18.500113 L 12.00013 18.500113 M 13.000185 18.500113 L 14.999919 18.500113 M 15.999975 18.500113 L 18.000085 18.500113 M 19.00014 18.500113 L 19.999819 18.500113 M 21.99993 18.500113 L 25.000095 18.500113 M 26.99983 18.500113 L 27.999885 18.500113 M 28.99994 18.500113 L 31.00005 18.500113 M 4.000064 19.500168 L 6.999854 19.500168 M 8.999964 19.500168 L 12.00013 19.500168 M 13.000185 19.500168 L 14.999919 19.500168 M 15.999975 19.500168 L 18.000085 19.500168 M 21.99993 19.500168 L 25.000095 19.500168 M 26.99983 19.500168 L 28.99994 19.500168 M 29.999995 19.500168 L 31.00005 19.500168 M 1.999954 20.499847 L 3.000009 20.499847 M 5.00012 20.499847 L 8.999964 20.499847 M 13.000185 20.499847 L 15.999975 20.499847 M 19.00014 20.499847 L 20.999874 20.499847 M 22.999985 20.499847 L 24.00004 20.499847 M 25.000095 20.499847 L 26.99983 20.499847 M 28.99994 20.499847 L 31.00005 20.499847 M 3.000009 21.499902 L 7.999909 21.499902 M 10.000019 21.499902 L 11.000075 21.499902 M 12.00013 21.499902 L 13.000185 21.499902 M 13.999864 21.499902 L 14.999919 21.499902 M 17.00003 21.499902 L 18.000085 21.499902 M 19.00014 21.499902 L 26.00015 21.499902 M 26.99983 21.499902 L 27.999885 21.499902 M 28.99994 21.499902 L 29.999995 21.499902 M 1.999954 22.499958 L 3.000009 22.499958 M 4.000064 22.499958 L 5.00012 22.499958 M 7.999909 22.499958 L 8.999964 22.499958 M 10.000019 22.499958 L 12.00013 22.499958 M 13.000185 22.499958 L 13.999864 22.499958 M 18.000085 22.499958 L 20.999874 22.499958 M 21.99993 22.499958 L 26.99983 22.499958 M 10.000019 23.500013 L 13.999864 23.500013 M 14.999919 23.500013 L 15.999975 23.500013 M 17.00003 23.500013 L 19.00014 23.500013 M 20.999874 23.500013 L 22.999985 23.500013 M 26.00015 23.500013 L 26.99983 23.500013 M 27.999885 23.500013 L 31.00005 23.500013 M 1.999954 24.500068 L 8.999964 24.500068 M 11.000075 24.500068 L 13.999864 24.500068 M 15.999975 24.500068 L 19.999819 24.500068 M 20.999874 24.500068 L 22.999985 24.500068 M 24.00004 24.500068 L 25.000095 24.500068 M 26.00015 24.500068 L 27.999885 24.500068 M 28.99994 24.500068 L 31.00005 24.500068 M 1.999954 25.500123 L 3.000009 25.500123 M 7.999909 25.500123 L 8.999964 25.500123 M 12.00013 25.500123 L 17.00003 25.500123 M 18.000085 25.500123 L 20.999874 25.500123 M 21.99993 25.500123 L 22.999985 25.500123 M 26.00015 25.500123 L 27.999885 25.500123 M 28.99994 25.500123 L 29.999995 25.500123 M 1.999954 26.500178 L 3.000009 26.500178 M 4.000064 26.500178 L 6.999854 26.500178 M 7.999909 26.500178 L 8.999964 26.500178 M 10.000019 26.500178 L 14.999919 26.500178 M 15.999975 26.500178 L 18.000085 26.500178 M 19.999819 26.500178 L 20.999874 26.500178 M 21.99993 26.500178 L 26.99983 26.500178 M 28.99994 26.500178 L 29.999995 26.500178 M 1.999954 27.499858 L 3.000009 27.499858 M 4.000064 27.499858 L 6.999854 27.499858 M 7.999909 27.499858 L 8.999964 27.499858 M 12.00013 27.499858 L 13.000185 27.499858 M 14.999919 27.499858 L 18.000085 27.499858 M 20.999874 27.499858 L 21.99993 27.499858 M 25.000095 27.499858 L 26.99983 27.499858 M 27.999885 27.499858 L 28.99994 27.499858 M 1.999954 28.499913 L 3.000009 28.499913 M 4.000064 28.499913 L 6.999854 28.499913 M 7.999909 28.499913 L 8.999964 28.499913 M 10.000019 28.499913 L 11.000075 28.499913 M 14.999919 28.499913 L 17.00003 28.499913 M 19.00014 28.499913 L 19.999819 28.499913 M 21.99993 28.499913 L 22.999985 28.499913 M 25.000095 28.499913 L 27.999885 28.499913 M 29.999995 28.499913 L 31.00005 28.499913 M 1.999954 29.499968 L 3.000009 29.499968 M 7.999909 29.499968 L 8.999964 29.499968 M 11.000075 29.499968 L 12.00013 29.499968 M 13.999864 29.499968 L 18.000085 29.499968 M 21.99993 29.499968 L 22.999985 29.499968 M 25.000095 29.499968 L 26.00015 29.499968 M 28.99994 29.499968 L 29.999995 29.499968 M 1.999954 30.500023 L 8.999964 30.500023 M 10.000019 30.500023 L 12.00013 30.500023 M 13.999864 30.500023 L 15.999975 30.500023 M 18.000085 30.500023 L 19.00014 30.500023 M 20.999874 30.500023 L 22.999985 30.500023 M 24.00004 30.500023 L 25.000095 30.500023 M 26.00015 30.500023 L 27.999885 30.500023 M 28.99994 30.500023 L 31.00005 30.500023 " stroke="#000000" stroke-width="1" stroke-opacity="1" stroke-miterlimit="4"/></g></g></svg>