<svg xmlns="http://www.w3.org/2000/svg" viewBox="0 0 533.5 544.3">
  <path fill="#4285F4" d="M533.5 278.4c0-17.4-1.6-34.1-4.6-50.4H272.1v95.4h147.5c-6.4 34.2-25.6 63.2-54.4 82.4l88 68c51.4-47.4 80.8-117.4 80.8-195.4z"></path>
  <path fill="#34A853" d="M272.1 544.3c73.4 0 135-24.2 180-66.2l-88-68c-24.5 16.6-56 26.6-92 26.6-70.7 0-130.6-47.4-152-111.2l-89.6 69.2c43 85.4 131.7 149.4 241.6 149.4z"></path>
  <path fill="#FBBC04" d="M120.1 325.5c-10.2-30.2-10.2-62.9 0-93.1l-89.6-69.3C-21.2 246.1-21.2 353 30.5 431.6l89.6-69.2z"></path>
  <path fill="#EA4335" d="M272.1 109c39.8-.6 78 14.6 107.2 41.4l80-78C412.1 24.4 347.4 0 272.1 0 162.2 0 73.5 63.9 30.5 149.2l89.6 69.3c21.4-63.8 81.3-111.2 152-111.2z"></path>
</svg>
