<svg xmlns="http://www.w3.org/2000/svg" xmlns:xlink="http://www.w3.org/1999/xlink" width="1000" zoomAndPan="magnify" viewBox="0 0 750 749.999995" height="1000" preserveAspectRatio="xMidYMid meet" version="1.0"><defs><g/><clipPath id="927aeb7a71"><path d="M 21.113281 272.675781 L 682.445312 272.675781 L 682.445312 702.222656 L 21.113281 702.222656 Z M 21.113281 272.675781 " clip-rule="nonzero"/></clipPath><clipPath id="80af6d045f"><rect x="0" width="704" y="0" height="703"/></clipPath></defs><g transform="matrix(1, 0, 0, 1, 23, 23)"><g clip-path="url(#80af6d045f)"><g clip-path="url(#927aeb7a71)"><path fill="#000000" d="M 352.019531 49.488281 C 174.320312 49.488281 29.75 194.058594 29.75 371.757812 C 29.75 549.460938 174.320312 694.03125 352.019531 694.03125 C 529.722656 694.03125 674.292969 549.460938 674.292969 371.757812 C 674.292969 194.058594 529.722656 49.488281 352.019531 49.488281 Z M 352.019531 702.632812 C 169.574219 702.632812 21.148438 554.207031 21.148438 371.757812 C 21.148438 189.316406 169.574219 40.886719 352.019531 40.886719 C 534.464844 40.886719 682.894531 189.316406 682.894531 371.757812 C 682.894531 554.207031 534.464844 702.632812 352.019531 702.632812 " fill-opacity="1" fill-rule="nonzero"/></g><g fill="#000000" fill-opacity="1"><g transform="translate(72.025968, 277.284006)"><g><path d="M -38.421875 -52.125 C -36.316406 -56.6875 -33.726562 -60.296875 -30.65625 -62.953125 C -27.582031 -65.609375 -24.226562 -67.203125 -20.59375 -67.734375 C -16.96875 -68.265625 -13.242188 -67.648438 -9.421875 -65.890625 C -5.640625 -64.148438 -2.757812 -61.71875 -0.78125 -58.59375 C 1.195312 -55.476562 2.160156 -51.894531 2.109375 -47.84375 C 2.054688 -43.800781 0.976562 -39.5 -1.125 -34.9375 L -5.90625 -24.5625 L 8.296875 -18.015625 L 2.8125 -6.109375 L -48.6875 -29.84375 Z M -11.125 -38.75 C -9.476562 -42.332031 -8.992188 -45.410156 -9.671875 -47.984375 C -10.359375 -50.566406 -12.128906 -52.515625 -14.984375 -53.828125 C -17.878906 -55.160156 -20.53125 -55.25 -22.9375 -54.09375 C -25.34375 -52.9375 -27.367188 -50.566406 -29.015625 -46.984375 L -33.5 -37.265625 L -15.609375 -29.03125 Z M -11.125 -38.75 "/></g></g></g><g fill="#000000" fill-opacity="1"><g transform="translate(98.418434, 220.50363)"><g><path d="M 16.921875 -42.46875 L 1.015625 -21.484375 L 7.671875 -10.140625 L -0.4375 0.578125 L -30.390625 -53.796875 L -22.5625 -64.125 L 37.953125 -50.109375 L 29.640625 -39.140625 Z M 6.484375 -45.1875 L -16.265625 -51.125 L -4.375 -30.84375 Z M 6.484375 -45.1875 "/></g></g></g><g fill="#000000" fill-opacity="1"><g transform="translate(138.063768, 168.706496)"><g><path d="M 15.546875 -51.375 L 24.71875 -59.125 L 39.5625 -41.5625 C 38.6875 -37.789062 37.101562 -34.125 34.8125 -30.5625 C 32.519531 -27.007812 29.804688 -23.910156 26.671875 -21.265625 C 22.171875 -17.460938 17.316406 -15.003906 12.109375 -13.890625 C 6.898438 -12.773438 1.835938 -13.054688 -3.078125 -14.734375 C -7.992188 -16.410156 -12.257812 -19.394531 -15.875 -23.6875 C -19.507812 -27.976562 -21.738281 -32.6875 -22.5625 -37.8125 C -23.394531 -42.945312 -22.800781 -48.003906 -20.78125 -52.984375 C -18.769531 -57.972656 -15.5 -62.382812 -10.96875 -66.21875 C -7.164062 -69.425781 -3.179688 -71.695312 0.984375 -73.03125 C 5.160156 -74.375 9.328125 -74.710938 13.484375 -74.046875 L 12.0625 -62.65625 C 6.21875 -63.3125 1.109375 -61.796875 -3.265625 -58.109375 C -6.035156 -55.773438 -8 -53.117188 -9.15625 -50.140625 C -10.320312 -47.171875 -10.617188 -44.128906 -10.046875 -41.015625 C -9.472656 -37.910156 -8.03125 -34.992188 -5.71875 -32.265625 C -3.457031 -29.578125 -0.84375 -27.6875 2.125 -26.59375 C 5.101562 -25.507812 8.148438 -25.273438 11.265625 -25.890625 C 14.390625 -26.503906 17.3125 -27.960938 20.03125 -30.265625 C 22.914062 -32.703125 24.988281 -35.515625 26.25 -38.703125 Z M 15.546875 -51.375 "/></g></g></g><g fill="#000000" fill-opacity="1"><g transform="translate(188.913297, 126.796101)"><g><path d="M 39.65625 -33.1875 L 44.625 -23.90625 L 5.921875 -3.171875 L -20.859375 -53.15625 L 16.921875 -73.40625 L 21.890625 -64.125 L -4.390625 -50.03125 L 1.4375 -39.171875 L 24.640625 -51.609375 L 29.453125 -42.609375 L 6.25 -30.171875 L 12.453125 -18.609375 Z M 39.65625 -33.1875 "/></g></g></g><g fill="#000000" fill-opacity="1"><g transform="translate(240.5054, 99.727357)"><g><path d="M 24.515625 -6.546875 C 20.222656 -5.222656 15.898438 -4.523438 11.546875 -4.453125 C 7.203125 -4.378906 3.53125 -4.898438 0.53125 -6.015625 L 1.859375 -16.765625 C 4.722656 -15.785156 7.910156 -15.269531 11.421875 -15.21875 C 14.929688 -15.175781 18.289062 -15.648438 21.5 -16.640625 C 25.050781 -17.734375 27.515625 -19.066406 28.890625 -20.640625 C 30.273438 -22.222656 30.695312 -23.898438 30.15625 -25.671875 C 29.757812 -26.953125 28.925781 -27.859375 27.65625 -28.390625 C 26.382812 -28.929688 24.878906 -29.21875 23.140625 -29.25 C 21.410156 -29.289062 19.113281 -29.207031 16.25 -29 C 11.8125 -28.695312 8.125 -28.632812 5.1875 -28.8125 C 2.257812 -28.988281 -0.476562 -29.863281 -3.03125 -31.4375 C -5.59375 -33.019531 -7.429688 -35.617188 -8.546875 -39.234375 C -9.515625 -42.378906 -9.539062 -45.488281 -8.625 -48.5625 C -7.707031 -51.644531 -5.765625 -54.460938 -2.796875 -57.015625 C 0.171875 -59.578125 4.128906 -61.625 9.078125 -63.15625 C 12.535156 -64.21875 16.046875 -64.84375 19.609375 -65.03125 C 23.171875 -65.226562 26.425781 -64.9375 29.375 -64.15625 L 28.453125 -53.453125 C 22.566406 -54.742188 17.125 -54.613281 12.125 -53.0625 C 8.601562 -51.976562 6.175781 -50.609375 4.84375 -48.953125 C 3.519531 -47.304688 3.144531 -45.550781 3.71875 -43.6875 C 4.289062 -41.84375 5.6875 -40.765625 7.90625 -40.453125 C 10.125 -40.148438 13.351562 -40.171875 17.59375 -40.515625 C 22.03125 -40.804688 25.710938 -40.867188 28.640625 -40.703125 C 31.578125 -40.535156 34.3125 -39.6875 36.84375 -38.15625 C 39.382812 -36.625 41.210938 -34.050781 42.328125 -30.4375 C 43.273438 -27.34375 43.28125 -24.242188 42.34375 -21.140625 C 41.40625 -18.046875 39.4375 -15.222656 36.4375 -12.671875 C 33.4375 -10.117188 29.460938 -8.078125 24.515625 -6.546875 Z M 24.515625 -6.546875 "/></g></g></g><g fill="#000000" fill-opacity="1"><g transform="translate(295.240847, 84.3256)"><g/></g></g><g fill="#000000" fill-opacity="1"><g transform="translate(322.713988, 79.013181)"><g><path d="M 50.296875 1 L 43.5 -5.3125 C 38.09375 -1.113281 31.773438 0.984375 24.546875 0.984375 C 20.441406 0.984375 16.738281 0.320312 13.4375 -1 C 10.144531 -2.332031 7.566406 -4.1875 5.703125 -6.5625 C 3.847656 -8.9375 2.925781 -11.609375 2.9375 -14.578125 C 2.9375 -18.085938 3.921875 -21.175781 5.890625 -23.84375 C 7.859375 -26.519531 11.03125 -29.070312 15.40625 -31.5 C 13.351562 -33.613281 11.867188 -35.628906 10.953125 -37.546875 C 10.046875 -39.460938 9.59375 -41.445312 9.59375 -43.5 C 9.59375 -46.25 10.320312 -48.675781 11.78125 -50.78125 C 13.238281 -52.882812 15.300781 -54.515625 17.96875 -55.671875 C 20.644531 -56.828125 23.738281 -57.40625 27.25 -57.40625 C 32.164062 -57.40625 36.109375 -56.226562 39.078125 -53.875 C 42.046875 -51.519531 43.53125 -48.347656 43.53125 -44.359375 C 43.53125 -41.441406 42.648438 -38.847656 40.890625 -36.578125 C 39.128906 -34.316406 36.304688 -32.132812 32.421875 -30.03125 L 42.78125 -20.375 C 44.019531 -22.96875 44.96875 -25.910156 45.625 -29.203125 L 55.75 -26.046875 C 54.664062 -21.023438 52.9375 -16.734375 50.5625 -13.171875 L 57.1875 -7.015625 Z M 27.25 -48.828125 C 25.351562 -48.828125 23.851562 -48.335938 22.75 -47.359375 C 21.644531 -46.390625 21.09375 -45.148438 21.09375 -43.640625 C 21.09375 -42.503906 21.390625 -41.4375 21.984375 -40.4375 C 22.578125 -39.445312 23.734375 -38.113281 25.453125 -36.4375 C 28.210938 -37.894531 30.132812 -39.203125 31.21875 -40.359375 C 32.300781 -41.523438 32.84375 -42.78125 32.84375 -44.125 C 32.84375 -45.53125 32.351562 -46.664062 31.375 -47.53125 C 30.40625 -48.394531 29.03125 -48.828125 27.25 -48.828125 Z M 25.4375 -8.890625 C 29.375 -8.890625 32.910156 -10 36.046875 -12.21875 L 22.375 -25.015625 C 19.832031 -23.554688 18.019531 -22.125 16.9375 -20.71875 C 15.863281 -19.3125 15.328125 -17.71875 15.328125 -15.9375 C 15.316406 -13.832031 16.226562 -12.128906 18.0625 -10.828125 C 19.894531 -9.535156 22.351562 -8.890625 25.4375 -8.890625 Z M 25.4375 -8.890625 "/></g></g></g><g fill="#000000" fill-opacity="1"><g transform="translate(386.499931, 80.832864)"><g/></g></g><g fill="#000000" fill-opacity="1"><g transform="translate(414.271781, 84.161834)"><g><path d="M 47.15625 -44.375 C 51.9375 -42.832031 55.828125 -40.691406 58.828125 -37.953125 C 61.835938 -35.222656 63.820312 -32.085938 64.78125 -28.546875 C 65.738281 -25.003906 65.570312 -21.226562 64.28125 -17.21875 C 63 -13.269531 60.929688 -10.125 58.078125 -7.78125 C 55.222656 -5.4375 51.78125 -4.050781 47.75 -3.625 C 43.726562 -3.195312 39.328125 -3.753906 34.546875 -5.296875 L 23.6875 -8.796875 L 18.890625 6.09375 L 6.390625 2.0625 L 23.796875 -51.90625 Z M 37.140625 -15.6875 C 40.890625 -14.476562 44.003906 -14.363281 46.484375 -15.34375 C 48.960938 -16.332031 50.679688 -18.316406 51.640625 -21.296875 C 52.617188 -24.328125 52.390625 -26.96875 50.953125 -29.21875 C 49.523438 -31.476562 46.9375 -33.210938 43.1875 -34.421875 L 33.015625 -37.703125 L 26.96875 -18.96875 Z M 37.140625 -15.6875 "/></g></g></g><g fill="#000000" fill-opacity="1"><g transform="translate(473.920756, 104.061524)"><g><path d="M 49.21875 15.84375 L 44.015625 25 L 5.84375 3.3125 L 33.859375 -45.984375 L 71.125 -24.8125 L 65.921875 -15.65625 L 40 -30.375 L 33.90625 -19.671875 L 56.796875 -6.671875 L 51.765625 2.203125 L 28.875 -10.796875 L 22.390625 0.609375 Z M 49.21875 15.84375 "/></g></g></g><g fill="#000000" fill-opacity="1"><g transform="translate(524.273732, 132.633391)"><g><path d="M 41.03125 20.140625 L 21.328125 2.671875 L 9.515625 8.4375 L -0.546875 -0.484375 L 55.984375 -26.140625 L 65.6875 -17.546875 L 47.03125 41.703125 L 36.734375 32.578125 Z M 44.546875 9.953125 L 52.21875 -12.265625 L 31.09375 -1.984375 Z M 44.546875 9.953125 "/></g></g></g><g fill="#000000" fill-opacity="1"><g transform="translate(572.821041, 176.354333)"><g><path d="M 19.140625 27.9375 C 15.734375 23.269531 13.671875 18.304688 12.953125 13.046875 C 12.242188 7.796875 12.898438 2.78125 14.921875 -2 C 16.953125 -6.78125 20.238281 -10.820312 24.78125 -14.125 C 29.332031 -17.4375 34.191406 -19.316406 39.359375 -19.765625 C 44.535156 -20.222656 49.507812 -19.300781 54.28125 -17 C 59.0625 -14.695312 63.171875 -11.1875 66.609375 -6.46875 C 69.492188 -2.5 71.398438 1.59375 72.328125 5.8125 C 73.265625 10.039062 73.222656 14.203125 72.203125 18.296875 L 60.96875 16.0625 C 62.289062 10.351562 61.285156 5.207031 57.953125 0.625 C 55.890625 -2.207031 53.421875 -4.285156 50.546875 -5.609375 C 47.679688 -6.929688 44.679688 -7.40625 41.546875 -7.03125 C 38.421875 -6.65625 35.4375 -5.4375 32.59375 -3.375 C 29.75 -1.3125 27.664062 1.148438 26.34375 4.015625 C 25.03125 6.878906 24.5625 9.878906 24.9375 13.015625 C 25.3125 16.148438 26.53125 19.132812 28.59375 21.96875 C 31.925781 26.550781 36.535156 29.078125 42.421875 29.546875 L 41.09375 40.921875 C 36.832031 40.671875 32.828125 39.4375 29.078125 37.21875 C 25.335938 35.007812 22.023438 31.914062 19.140625 27.9375 Z M 19.140625 27.9375 "/></g></g></g><g fill="#000000" fill-opacity="1"><g transform="translate(609.346064, 227.632778)"><g><path d="M 30.421875 41.8125 L 20.828125 46.140625 L 2.765625 6.125 L 54.4375 -17.203125 L 72.078125 21.859375 L 62.484375 26.1875 L 50.21875 -0.984375 L 39 4.078125 L 49.828125 28.078125 L 40.53125 32.28125 L 29.703125 8.28125 L 17.734375 13.6875 Z M 30.421875 41.8125 "/></g></g></g><path fill="#000000" d="M 122.488281 339.957031 C 123.15625 339.355469 126.542969 345.835938 126.894531 346.046875 C 124.574219 347.023438 117.816406 345.164062 115.539062 348.304688 C 116.441406 354.1875 128.714844 353.550781 132.972656 354.324219 C 132.972656 354.324219 150.402344 377.074219 150.402344 377.074219 C 141.3125 375.402344 128.582031 371.328125 119.4375 378.625 C 118.828125 379.171875 118.894531 380.21875 119.601562 380.660156 C 130.472656 385.191406 142.941406 384.3125 154.371094 382.222656 C 154.933594 381.496094 160.171875 388.355469 160.585938 388.46875 C 160.804688 388.695312 160.722656 389.109375 160.429688 389.226562 C 157.375 390.597656 147.558594 395.660156 146.207031 398.601562 C 146 399.035156 146.464844 399.582031 146.929688 399.394531 C 154.363281 397.101562 164.347656 394.832031 171.1875 397.085938 C 170.742188 398.066406 164.378906 403.761719 169.054688 402.675781 C 169.054688 402.675781 185.164062 399.484375 185.164062 399.484375 C 187.109375 398.917969 183.476562 404.101562 183.570312 404.5625 C 184.015625 408.554688 197.625 401.128906 199.980469 401.128906 C 204.324219 404.285156 209.175781 405.433594 214.53125 404.570312 C 214.859375 404.480469 215.023438 405.027344 214.695312 405.132812 C 213.949219 405.347656 211.484375 406.3125 212.914062 407.269531 C 222.875 412.351562 232.019531 410.757812 241.078125 404.882812 C 252.898438 405.363281 267.125 407.089844 278.207031 412.160156 C 279.933594 414.363281 280.144531 417.433594 281.503906 421.046875 C 281.59375 421.660156 282.609375 421.945312 282.5625 421.21875 C 281.742188 414.46875 280.769531 408.730469 279.644531 404.003906 C 271.847656 370.5 259.300781 338.566406 247.578125 306.144531 C 252.671875 307.640625 258.15625 309.640625 264.042969 307.519531 C 276.851562 303.996094 290.972656 293.089844 282.726562 278.097656 C 286.691406 273.949219 293.203125 268.734375 291.449219 262.570312 C 291.328125 261.707031 287.835938 259.425781 288.238281 258.308594 C 291.296875 250.074219 289.625 241.167969 279.375 240.585938 C 251.375 238.453125 268.003906 252.734375 260.117188 217.921875 C 258.6875 212.472656 252.351562 214.101562 248.0625 214.773438 C 238.296875 209.777344 229.195312 214.632812 226.417969 225.535156 C 194.683594 216.375 185.886719 253.578125 209.515625 270.144531 C 206.5 271.765625 204.359375 274.167969 203.101562 277.359375 C 198.699219 275.089844 194.957031 267.707031 191.476562 263.28125 C 193.074219 243.203125 180.242188 233.425781 162.941406 228.320312 C 156.765625 245.929688 168.296875 264.433594 187.78125 265.074219 C 192.449219 270.269531 197 276.558594 201.78125 281.6875 C 201.1875 285.878906 203.878906 291.070312 203.703125 294.367188 C 194.410156 293.417969 188.8125 308.53125 196.449219 313.765625 C 196.773438 313.984375 196.742188 314.132812 196.363281 314.214844 C 192.617188 314.539062 190.257812 317.894531 187.632812 319.347656 C 187.632812 319.347656 182.882812 315.328125 182.882812 315.328125 C 183.113281 309.234375 184.097656 302.195312 179.546875 296.972656 C 177.851562 294.84375 176 296.09375 175.234375 298.09375 C 173.375 300.457031 174.921875 307.777344 173.460938 308.054688 C 173.460938 308.054688 159.285156 299.199219 159.285156 299.199219 C 161.988281 281.621094 143.652344 270.394531 151.519531 295.246094 C 151.519531 295.246094 140.5 291.902344 140.5 291.902344 C 129.195312 275.515625 114.027344 306.496094 140.636719 296.058594 C 140.769531 296.449219 150.933594 298.628906 149.359375 299.386719 C 146.421875 301 138.027344 306.175781 141.808594 310.6875 C 147.996094 311.789062 153.796875 307.804688 157.21875 302.785156 C 157.402344 302.511719 157.769531 302.429688 158.054688 302.605469 C 158.054688 302.605469 171.390625 310.695312 171.390625 310.695312 C 171.792969 310.9375 171.769531 311.113281 171.316406 311.222656 C 167.207031 312.214844 162.84375 312.972656 160.183594 316.621094 C 159.023438 318.214844 159.269531 319.375 160.921875 320.105469 C 166.972656 323.140625 174.644531 319.554688 180.132812 317.804688 C 180.339844 318.152344 186.671875 322.4375 186.011719 322.996094 C 182.90625 330.605469 194.515625 332.59375 198.144531 334.226562 C 194.277344 339.945312 198.761719 347.277344 196.5 354.488281 C 196.113281 354.289062 191.894531 344.800781 191.136719 345.804688 C 189.382812 347.398438 184.453125 337.460938 181.5 336.453125 C 180.175781 336.105469 181.042969 339.152344 179.890625 338.59375 C 179.890625 338.59375 171.953125 333.21875 171.953125 333.21875 C 171.171875 332.734375 170.878906 333.835938 170.738281 334.382812 C 170.289062 335.882812 147.742188 321.988281 147.058594 322.179688 C 146.875 322.0625 146.640625 322.3125 146.773438 322.496094 C 149.390625 327.167969 154.742188 330.964844 157.496094 334.667969 C 156.789062 335.246094 153.65625 336.066406 154.929688 337.507812 C 168.882812 353.441406 179.390625 347.558594 169.136719 354.292969 C 164.640625 358.355469 182.296875 355.507812 180.914062 358.34375 C 180.566406 363.625 194.375 360.828125 198.023438 360.75 C 214.6875 370.042969 226.859375 380.863281 242.566406 391 C 237.128906 390.042969 227.640625 385.953125 219.023438 386.171875 C 215.265625 385.703125 210.125 387.316406 206.324219 386.292969 C 200.765625 376.46875 193.601562 367.414062 181.613281 367.023438 C 179.976562 372.328125 194.449219 379.472656 197.5625 383.472656 C 194.46875 382.277344 166.109375 375.285156 180.824219 383.390625 C 162.617188 385.742188 168.351562 391.335938 158.148438 380.457031 C 158.796875 376.210938 159.199219 356.078125 153.464844 354.890625 C 149.449219 357.179688 150.414062 365.878906 149.605469 368.625 C 149.644531 367.835938 135.410156 352.332031 136.464844 351.511719 C 149.648438 339.746094 138.820312 327.582031 132.382812 347.113281 C 131.792969 348.753906 127.003906 338.707031 126.648438 338.789062 C 126.507812 338.554688 126.566406 338.246094 126.785156 338.082031 C 140.574219 327.558594 129.164062 314.316406 123.78125 333.890625 C 123.65625 334.417969 123.464844 334.445312 123.203125 333.964844 C 123.050781 333.472656 119.691406 328.214844 120.242188 327.671875 C 124.082031 317.714844 111.546875 312.03125 109.917969 321.398438 C 108.324219 329.992188 118.929688 328.507812 118.382812 333.992188 C 93.785156 329.816406 106.210938 343.898438 122.480469 339.953125 Z M 183.808594 248.160156 C 183.707031 248.4375 183.398438 248.578125 183.125 248.476562 C 175.265625 245.976562 177.355469 254.347656 176.488281 257.628906 C 167.050781 251.902344 165.429688 242.863281 165.300781 232.441406 C 171.800781 235.253906 179.386719 242.003906 183.808594 248.15625 Z M 257.828125 349.703125 C 263.871094 369.996094 271.105469 388.863281 277.425781 408.574219 C 269.84375 406.484375 261.761719 395.753906 257.109375 388.832031 C 254.339844 382.109375 252.566406 373.875 247.675781 368.601562 C 247.214844 368.664062 244.429688 362.40625 244.164062 362.046875 C 243.769531 360.980469 242.9375 362.359375 242.398438 361.8125 C 242.398438 361.8125 228.304688 343.105469 228.304688 343.105469 C 231.371094 339.085938 230.152344 335.132812 231.507812 330.21875 C 233.203125 326.804688 229.804688 326.332031 230.285156 325.207031 C 233.53125 324.714844 236.699219 314.726562 236.921875 313.726562 C 238.09375 308.285156 231.359375 307.058594 227.71875 305.894531 C 224.242188 303.34375 237.34375 305.523438 241.046875 301.339844 C 248.320312 316.503906 252.800781 334.617188 257.828125 349.707031 Z M 227.613281 320.742188 L 217.046875 319.269531 C 215.550781 317.640625 230.128906 320.441406 228.886719 318.390625 C 228.886719 318.390625 217.925781 317.140625 217.925781 317.140625 C 217.769531 317.125 217.640625 317.003906 217.609375 316.847656 C 219.363281 315.589844 222.273438 315.273438 223.808594 313.195312 C 224.234375 311.453125 220.539062 315.035156 219.476562 314.492188 C 218.433594 314.25 226.527344 310.289062 226.375 308.738281 C 237.527344 307.238281 234.40625 317.335938 231.039062 322.933594 C 228.730469 325.230469 223.722656 323.175781 221.566406 321.449219 C 222.992188 321.125 227.097656 321.867188 227.613281 320.742188 Z M 225.195312 307.976562 C 225.0625 307.824219 215.757812 313.640625 216.289062 312.636719 C 216.289062 312.636719 220.75 305.933594 220.75 305.933594 C 220.824219 305.816406 220.800781 305.660156 220.699219 305.5625 C 220.175781 304.886719 215.292969 311.941406 214.988281 311.125 C 213.339844 305.136719 216.050781 298.058594 223.570312 301.050781 C 225.5 301.484375 225.046875 306.082031 225.464844 307.433594 C 225.496094 307.683594 225.402344 307.863281 225.191406 307.980469 Z M 214.183594 323.085938 C 212.089844 327.234375 206.785156 324.46875 208.976562 320.371094 C 209.886719 318.617188 211.789062 317.804688 213.226562 318.554688 C 214.667969 319.304688 215.09375 321.332031 214.183594 323.085938 Z M 212.621094 329.304688 C 213.3125 329.117188 217.578125 337.175781 217.5625 335.011719 C 216.554688 332.621094 214.375 329.453125 215.410156 327.007812 C 215.402344 326.898438 215.542969 326.84375 215.824219 326.84375 C 216.171875 323.785156 220.613281 333.199219 221.394531 333.433594 C 220.804688 330.332031 218.335938 327.539062 216.867188 324.734375 C 219.046875 325.007812 221.027344 327.566406 222.507812 329.40625 C 225.6875 331.234375 217.117188 322.40625 217.75 322.394531 C 219.078125 323.539062 230.3125 326.070312 229.523438 328.847656 C 228.988281 348.734375 217.847656 343.140625 212.621094 329.304688 Z M 219.773438 343.648438 C 219.847656 342.703125 225.019531 344.261719 225.15625 344.761719 C 231.769531 356.6875 238.175781 369.0625 245.511719 380.457031 C 233.597656 372.839844 221.742188 362.113281 212.578125 351.066406 C 212.320312 350.746094 212.382812 350.519531 212.773438 350.386719 C 216.136719 349.238281 218.472656 346.992188 219.773438 343.648438 Z M 246.449219 268.800781 C 235.675781 277.480469 238.6875 257.988281 247.210938 262.449219 C 248.714844 263.796875 248.375 266.644531 246.449219 268.800781 Z M 277.542969 296.203125 C 261.09375 310.839844 234.640625 305.96875 242.480469 279.492188 C 242.917969 279.167969 251.171875 294.722656 251.417969 294.78125 C 252.328125 295.214844 244.527344 276.675781 244.734375 276.582031 C 244.636719 276.28125 245.046875 276.03125 245.261719 276.28125 C 245.261719 276.28125 254.472656 287.796875 254.472656 287.796875 C 255.046875 288.515625 255.191406 288.4375 254.902344 287.5625 C 253.566406 282.707031 250.402344 278.722656 247.730469 274.511719 C 253.933594 277.4375 261.304688 285.421875 264.316406 292.503906 C 264.5 293.0625 264.886719 292.425781 264.730469 292.117188 C 262.152344 284.222656 256.523438 277.714844 250.605469 272.289062 C 258.304688 274.09375 263.542969 279.210938 267.171875 286.257812 C 266.394531 280.273438 261.925781 275.835938 257.761719 272.066406 C 262.335938 272.890625 266.945312 276.445312 271.023438 279.332031 C 271.65625 279.417969 266.652344 273.574219 266.761719 273.484375 C 277.351562 275.203125 290.644531 285.132812 277.539062 296.207031 Z M 262.085938 247.625 C 264.800781 239.839844 286.09375 242.113281 286.015625 250.402344 C 286.300781 254.550781 282.261719 256.90625 285.136719 261.40625 C 290.902344 266.523438 284.609375 274.050781 280.015625 276.96875 C 261.472656 262.09375 262.691406 275.121094 274.125 259.390625 C 270.183594 261.835938 264.972656 266.929688 260.835938 265.34375 C 266.847656 261.589844 272.675781 256.242188 275.675781 250.136719 C 269.695312 255.871094 261.21875 261.960938 254.15625 264.082031 C 258.3125 259.609375 266.371094 254.683594 268.808594 249.957031 C 268.808594 249.957031 261.945312 255.511719 261.945312 255.511719 C 260.53125 256.023438 266.511719 247.734375 266.285156 247.667969 C 266.355469 244.925781 257.179688 256.714844 257.445312 255.855469 C 258.832031 253.421875 260.921875 250.503906 262.085938 247.625 Z M 236.1875 216.59375 C 240.726562 214.359375 243.039062 217.859375 246.75 218.96875 C 246.75 218.96875 254.59375 218.085938 254.59375 218.085938 C 255.628906 218.109375 256.292969 220.089844 256.488281 220.40625 C 260.675781 233.546875 259.269531 246.449219 251.472656 257.675781 C 252.601562 249.539062 252.859375 241.078125 250.21875 232.824219 C 249.597656 232.148438 249.242188 248.765625 249.023438 248.796875 C 248.289062 244.222656 247.414062 236.722656 244.613281 231.625 C 245.359375 237.742188 247.304688 246.058594 246.535156 253.136719 C 246.460938 254.601562 246.203125 254.632812 245.769531 253.230469 C 240.839844 232.5 218.132812 229.023438 236.1875 216.59375 Z M 197.703125 244.699219 C 201.976562 214.476562 239.117188 227.992188 241.367188 252.203125 C 241.222656 252.859375 240.632812 252.0625 240.730469 251.660156 C 239.183594 248.621094 236.097656 245.046875 233.480469 243.457031 C 233.480469 243.457031 238.941406 252.617188 238.941406 252.617188 C 239.03125 252.699219 238.828125 253.164062 238.621094 253.117188 C 235.300781 247.632812 230.921875 243.175781 225.492188 239.75 C 223.757812 238.65625 223.675781 238.769531 225.242188 240.09375 C 230.105469 244.183594 234.800781 251.175781 237.648438 256.730469 C 231.660156 254.066406 224.582031 246.703125 217.808594 242.871094 C 236.1875 260.914062 241.199219 266.429688 214.566406 247.125 C 219.167969 253.996094 224.890625 257.796875 231.175781 262.78125 C 224.03125 261.789062 217.300781 257.40625 211.972656 252.429688 C 212.71875 256.976562 226.886719 264.546875 230.398438 266.9375 C 224.425781 267.273438 218.167969 263.75 213.390625 260.019531 C 211.34375 258.308594 211.25 258.410156 213.117188 260.3125 C 218.476562 265.796875 224.808594 269.746094 232.109375 272.164062 C 217.527344 274.921875 196.414062 261.75 197.703125 244.695312 Z M 211.402344 271.449219 C 234.183594 280.046875 226.738281 272.867188 212.746094 284.777344 C 219.515625 282.089844 229.265625 276.835938 236.460938 277.253906 C 234.265625 279.734375 231.441406 282.746094 230.777344 285.890625 C 234.859375 281.351562 242.070312 268.492188 237.332031 284.570312 C 239.269531 288.242188 238.449219 293.796875 240.308594 297.515625 C 240.523438 298.167969 240.289062 298.882812 239.734375 299.285156 C 236.316406 301.707031 228.410156 305.175781 225.878906 299.792969 C 222.167969 296.933594 217.46875 298.277344 215.230469 301.933594 C 206.734375 295.125 197.582031 278.925781 211.40625 271.449219 Z M 196.871094 299.484375 C 200.234375 293.574219 208.785156 298.597656 211.34375 302.960938 C 212.71875 305.996094 213.824219 311.519531 211.746094 313.949219 C 211.746094 313.949219 209.128906 306.28125 209.128906 306.28125 C 207.632812 307.042969 210.835938 312.328125 210.351562 314.226562 C 209.542969 312.988281 202.703125 297.960938 206.582031 308.773438 C 207.0625 310.691406 208.976562 314.074219 208.261719 315.441406 C 208.019531 315.414062 203.542969 308.089844 203.113281 308.828125 C 203.152344 308.933594 206.625 315.71875 206.675781 315.832031 C 206.609375 317.054688 204.609375 313.503906 204.445312 313.441406 C 202.699219 314.667969 201.414062 308.261719 200.992188 310.050781 C 200.808594 311.117188 203.167969 314.933594 202.070312 314.71875 C 195.226562 311.222656 191.902344 307.015625 196.871094 299.484375 Z M 188.929688 322.84375 C 190.273438 316.480469 199.300781 314.40625 204.050781 317.8125 C 202.457031 318.300781 200.320312 317.691406 198.902344 319.273438 C 198.597656 319.542969 204.746094 319.738281 204.769531 319.832031 C 205.644531 320.515625 198.996094 320.914062 199.59375 321.515625 C 200.105469 321.84375 203.851562 321.648438 202.246094 322.867188 C 198.597656 322.566406 197.691406 322.445312 195.167969 325.371094 C 194.945312 326.027344 203.871094 324.746094 204.019531 324.886719 C 204.460938 326.335938 204.539062 326.8125 204.25 326.320312 L 200.453125 330.3125 C 200.246094 330.554688 200.867188 330.59375 200.875 330.796875 C 200.460938 336.515625 186.148438 328.042969 188.933594 322.84375 Z M 205.167969 327.3125 C 208.023438 328.179688 206.929688 323.953125 208.664062 329.054688 C 208.726562 332.859375 209.859375 338.261719 211.351562 341.144531 C 211.351562 341.144531 210.171875 333.160156 210.171875 333.160156 C 209.875 331.175781 210.328125 330.984375 211.53125 332.589844 C 211.566406 332.84375 218.875 341.820312 218.09375 341.964844 C 210.648438 357.285156 189.15625 344.773438 205.167969 327.3125 Z M 225.703125 374.070312 C 218.023438 368.820312 208.664062 363.53125 200.117188 358.15625 C 199.171875 358.125 201.203125 350.171875 201.054688 349.730469 C 200.671875 348.867188 206.335938 350.980469 205.816406 351.429688 C 206.128906 352.378906 204.863281 357.464844 206.363281 357.769531 C 210.101562 358.410156 206.28125 349.386719 209.65625 351.144531 C 226.71875 372.425781 250.195312 385.53125 268.628906 405.1875 C 254.167969 395.546875 240.699219 383.875 225.703125 374.070312 Z M 203.929688 397.714844 C 211.6875 381.402344 251.171875 398.5 262.523438 404.5625 C 256.449219 402.300781 249.027344 403.203125 243.378906 400.148438 C 234.226562 390.710938 225.507812 395.59375 217.359375 402.390625 C 215.53125 404.835938 203.960938 399.929688 203.929688 397.71875 Z M 203.929688 397.714844 " fill-opacity="1" fill-rule="nonzero"/><path fill="#000000" d="M 596.09375 488.625 C 594.707031 487.109375 593.289062 485.78125 591.1875 485.378906 C 590.929688 485.269531 590.804688 484.976562 590.910156 484.722656 C 593.414062 478.691406 590.367188 477.421875 587.640625 473.863281 C 595.453125 465.589844 584.460938 468.390625 580.320312 465.324219 C 583.550781 451.96875 586.917969 450.511719 570.101562 449.871094 C 570.960938 447.253906 573.804688 439.523438 572.832031 437.1875 C 571.628906 432.796875 556.355469 438.277344 556.773438 434.996094 C 558.863281 433.097656 571.253906 423.335938 562.835938 421.789062 C 538.714844 417.367188 514.460938 414.492188 489.902344 414.578125 C 475.75 414.058594 458.078125 414.617188 444.585938 414.152344 C 454.941406 411.066406 465.476562 408.558594 476.195312 406.628906 C 484.574219 406.398438 493.171875 408.441406 501.640625 406.464844 C 503.320312 406.328125 502.625 404.640625 503.355469 404.160156 C 503.492188 404.003906 520.140625 402.933594 520.273438 402.652344 C 520.796875 400.359375 512.683594 399.34375 510.953125 398.71875 C 509.917969 398.390625 511.84375 396.933594 511.695312 396.289062 C 511.851562 394.199219 499.5 397.269531 499.53125 395.550781 C 499.589844 395.222656 500.742188 393.023438 499.816406 393.128906 C 495.804688 393.328125 490.648438 396.890625 487.480469 396.503906 C 487.472656 395.441406 487.484375 394.15625 486.109375 395.007812 C 480.433594 398.683594 476.105469 403.113281 469.25 403.859375 C 468.351562 404.121094 468.292969 404.003906 469.078125 403.496094 C 476.613281 398.902344 484.039062 393.199219 491.5 388.839844 C 503.058594 385.945312 514.609375 382.894531 526.140625 379.691406 C 532.382812 382.816406 538.605469 385.371094 545.414062 384.253906 C 547.859375 383.980469 548.40625 382.40625 547.46875 379.878906 C 553.050781 378.617188 560.226562 379.636719 566.316406 378.78125 C 571.730469 378.511719 564.414062 375.238281 563.21875 374.261719 C 561.632812 373.117188 586.488281 364.324219 586.570312 363.691406 C 580.371094 361.125 569.316406 362.667969 563.304688 361.4375 C 564.035156 360.429688 568.167969 357.351562 564.164062 358.0625 C 548.640625 359.964844 544.632812 369.765625 546.175781 360.632812 C 543.722656 359.269531 539.589844 365.003906 537.636719 364.902344 C 535.136719 359.824219 528.863281 372.632812 527.390625 374.769531 C 519.230469 378.980469 506.589844 381.105469 499.191406 383.46875 C 512.078125 374.265625 523.070312 362.296875 534.132812 351.550781 C 538.015625 352.785156 553.410156 357.347656 554.039062 350.421875 C 552.273438 345.25 542.050781 345.988281 538.929688 345.644531 C 538.929688 345.644531 546.953125 335.601562 546.953125 335.601562 C 551.210938 335.6875 564.347656 338.921875 566.957031 332.917969 C 564.710938 328.417969 558.207031 327.230469 553.273438 327.777344 C 552.90625 327.824219 552.828125 327.695312 553.042969 327.398438 C 553.042969 327.398438 557.878906 320.566406 557.878906 320.566406 C 565 318.980469 576.929688 318.015625 577.054688 308.195312 C 574.363281 305.976562 566.902344 308.992188 564.355469 309.328125 C 563.914062 309.4375 563.804688 309.292969 564.027344 308.894531 L 565.171875 306.910156 C 565.332031 306.636719 565.566406 306.449219 565.871094 306.351562 C 582.210938 304.777344 585.023438 262.65625 567.910156 282.578125 C 558.84375 295.488281 566.535156 303.207031 561.058594 309.621094 C 560.101562 302.640625 557.953125 296.890625 550.519531 294.601562 C 545.570312 296.976562 552.675781 310.898438 555.21875 314.589844 C 557.414062 316.675781 550.34375 323.957031 549.882812 325.777344 C 547.347656 322 544.558594 316.832031 538.632812 315.894531 C 538.070312 315.746094 537.714844 315.953125 537.566406 316.523438 C 535.039062 324.3125 539.050781 329.179688 543.585938 333.902344 C 543.585938 333.902344 535.929688 343.683594 535.929688 343.683594 C 533.960938 340.675781 531.8125 327.589844 524.324219 330.082031 C 522.648438 330.613281 521.90625 331.917969 522.101562 334 C 526.785156 356.984375 541.898438 340.664062 510.761719 368.332031 C 516.4375 359.457031 513.929688 354.3125 511.546875 344.867188 C 503.179688 349.96875 502.140625 364.671875 502.34375 374.382812 C 496.296875 380.519531 486.53125 387.773438 479.691406 391.179688 C 481.082031 387.824219 482.5 384.4375 480.800781 380.800781 C 480.609375 378.53125 481.011719 374.070312 479.550781 372.898438 C 470.9375 380.734375 470.050781 389.320312 468.417969 399.710938 C 455.207031 410.191406 437.863281 415.953125 421.722656 418.019531 C 413.359375 420.355469 430.59375 409.847656 431.703125 407.914062 C 436.332031 408.6875 445.71875 413.648438 449.683594 409.1875 C 449.453125 404.472656 444.71875 401.300781 440.222656 400.589844 C 439.195312 400.625 444.820312 396.148438 444.742188 396.027344 C 449.09375 394.675781 457.75 397.183594 459.554688 392.085938 C 460.832031 390.480469 467.628906 388.648438 463.875 386.0625 C 463.515625 385.738281 461.761719 385.246094 462.445312 384.679688 C 466.054688 382.058594 482.144531 368.59375 471.714844 369.199219 C 473.09375 362.570312 481.941406 359.246094 485.09375 351.5 C 493.722656 343.585938 496.042969 334.546875 489.199219 324.066406 C 481.753906 328.03125 479.324219 340.011719 484.292969 347.539062 C 483.085938 351.148438 478.859375 356.9375 476.078125 358.515625 C 476.992188 356.691406 481.820312 342.125 478.773438 344.261719 C 478.773438 344.261719 462.984375 361.023438 462.984375 361.023438 C 462.628906 359.039062 463.359375 355.175781 462.492188 352.589844 C 458.472656 353.753906 453.316406 370.949219 451.488281 376.085938 C 451.394531 376.378906 450.945312 376.367188 450.878906 376.058594 C 450.195312 373.007812 448.898438 370.125 446.730469 367.855469 C 435.84375 395.257812 455.554688 383.90625 423.011719 410.3125 C 433.605469 390.714844 433.683594 372.910156 446.484375 352.382812 C 458.625 333.769531 466.710938 319.667969 470.214844 298.851562 C 480.640625 333.496094 508.328125 311.53125 530.550781 305.332031 C 534.957031 304.320312 532.554688 299.375 529.757812 298.039062 C 531.835938 285.589844 535.335938 270.347656 517.890625 271.679688 C 528.167969 259.210938 517.941406 248.449219 508.328125 240.878906 C 503.15625 235.207031 496.078125 241.671875 491.710938 243.40625 C 479.972656 223.074219 463.039062 225.503906 456.277344 247.332031 C 427.71875 221.003906 417.304688 267.101562 442.363281 281.253906 C 449.035156 285.402344 460.445312 289.351562 467.617188 285.058594 C 468.808594 284.308594 470.363281 285.785156 469.546875 287.015625 C 463.589844 295.8125 462.839844 313.410156 456.949219 323.21875 C 455.792969 318.832031 453.164062 315.699219 449.070312 313.828125 C 448.640625 313.632812 448.640625 313.4375 449.078125 313.25 C 455.277344 310.84375 462.101562 301.816406 452.652344 298.878906 C 451.96875 298.574219 451.527344 297.898438 451.515625 297.152344 C 451.421875 288.433594 439.039062 288.226562 434.5 293.902344 C 431.753906 288.738281 428.234375 283.265625 422.058594 281.78125 C 415.914062 279.773438 413.847656 285.488281 410.234375 288.925781 C 387.46875 297.941406 422.5 279.648438 387.269531 267.210938 C 405.703125 249.140625 406.414062 226.195312 374.117188 227.351562 C 363.441406 205.597656 352.351562 215.613281 337.507812 227.765625 C 328.386719 211.214844 298.613281 208.414062 294.203125 231.863281 C 292.609375 241.082031 295.855469 249.527344 299.457031 257.910156 C 298.777344 261.4375 296.679688 264.871094 296.167969 268.589844 C 295.148438 278 281.78125 286.84375 291.242188 295.726562 C 299.46875 304.601562 310.847656 306.367188 320.421875 300.332031 C 319.941406 313.261719 322.195312 326.851562 322.636719 339.3125 C 316.085938 341.089844 309.246094 343.875 309.582031 351.929688 C 306.832031 362.738281 311.695312 371.113281 322.835938 374.277344 C 325.59375 402.859375 329.296875 421.15625 335.828125 445.898438 C 335.742188 446.777344 326.597656 438.238281 326.378906 438.378906 C 326.207031 438.234375 326.097656 438.054688 326.050781 437.84375 C 324.339844 426.265625 318.328125 415.234375 316.398438 404.125 C 323.269531 395.910156 314.480469 363.886719 313.898438 389.320312 C 313.308594 390.117188 312.144531 387.816406 312.179688 389.332031 C 312.179688 389.351562 313.417969 399.855469 312.601562 399.007812 C 312.792969 398.1875 298.125 371.382812 300.890625 371.277344 C 304.53125 368.308594 311.769531 357.820312 306.472656 354.070312 C 301.363281 354.097656 299.417969 363.445312 297.433594 365.734375 C 297.53125 364.871094 291.488281 351.710938 292.332031 350.8125 C 295.8125 349.097656 304.382812 334.335938 295.664062 336.171875 C 291.554688 337.589844 290.53125 343.847656 288.785156 346.078125 C 288.785156 346.078125 284.996094 336.90625 284.996094 336.90625 C 284.8125 336.464844 284.90625 336.089844 285.273438 335.777344 C 298.40625 324.046875 287.566406 312.378906 282.089844 331.179688 C 281.277344 331.59375 279.839844 325.644531 279.441406 325.449219 C 279.851562 321.375 280.9375 316.519531 277.117188 314.238281 C 270.558594 310.054688 267.492188 319.128906 270.882812 323.691406 C 272.179688 325.996094 278.113281 327.105469 277.351562 330.515625 C 273.664062 329.96875 262.84375 327.28125 264.328125 333.101562 C 268.429688 337.855469 276.375 336.886719 281.648438 337.707031 C 281.648438 337.707031 284.558594 344.28125 284.558594 344.28125 C 282.578125 344.761719 276.171875 342.320312 273.441406 344.882812 C 272.699219 345.402344 272.605469 346.546875 273.3125 347.152344 C 277.335938 350.734375 282.078125 352.519531 287.535156 352.507812 C 288.097656 352.507812 288.609375 352.847656 288.828125 353.371094 C 288.828125 353.371094 293.613281 364.757812 293.613281 364.757812 C 293.792969 365.175781 293.6875 365.269531 293.296875 365.03125 C 273.152344 356.796875 277.007812 369.660156 296.363281 373.167969 C 297.433594 373.765625 306.976562 395.773438 307.546875 396.75 C 277.957031 380.847656 277.339844 403.4375 308.5 401.074219 C 315.972656 411.246094 319.503906 424.949219 324.535156 436.59375 C 305.308594 425.226562 278.804688 419.242188 255.261719 421.378906 C 215.488281 423.65625 189.175781 425.046875 153.464844 422.433594 C 150.511719 422.214844 149.523438 424.078125 151.261719 426.46875 C 164.617188 442.597656 146.480469 425.296875 149.496094 445.644531 C 149.289062 447.296875 144.136719 445.757812 143.832031 447.308594 C 143.832031 447.308594 143.640625 448.59375 143.640625 448.59375 C 143.609375 448.8125 143.417969 448.964844 143.203125 448.953125 C 140.128906 448.835938 134.050781 447.582031 131.96875 448.695312 C 130.800781 452.027344 133.074219 457.386719 130.683594 460.390625 C 130.683594 460.390625 127.066406 460.761719 127.066406 460.761719 C 125.925781 460.863281 125.128906 462.101562 125.5625 463.179688 C 131.167969 473.753906 109.914062 458.539062 117.414062 472.804688 C 117.519531 473.054688 117.40625 473.34375 117.15625 473.453125 C 113.128906 475.28125 113.9375 477.78125 114.015625 481.464844 C 114.023438 481.738281 113.777344 481.96875 113.5 481.9375 C 108.296875 481.664062 108.1875 486.511719 105.351562 489.203125 C 92.265625 492.800781 81.804688 511.621094 100.925781 514.070312 C 172.550781 514.304688 256.417969 508.785156 329.613281 508.746094 C 329.101562 517.726562 336.804688 516.839844 342.683594 519.097656 C 352.183594 520.054688 374.550781 521.832031 375.761719 508.546875 C 466.441406 510.023438 521.4375 511.808594 594.246094 514.058594 C 621.96875 517.230469 616.035156 494.425781 596.097656 488.625 Z M 572.710938 280.496094 C 582.15625 277.238281 574.011719 302.835938 567.335938 302.605469 C 566.621094 302.832031 565.851562 302.351562 565.746094 301.605469 C 564.609375 294.179688 566.339844 285.179688 572.710938 280.496094 Z M 487.886719 327.734375 C 489.589844 327.796875 492.636719 342.046875 489.144531 338.265625 C 487.835938 336.71875 486.6875 337.136719 485.390625 338.109375 C 483.878906 335.285156 486.558594 330.679688 487.886719 327.734375 Z M 530.15625 301.5625 C 530.480469 301.867188 530.34375 302.46875 529.898438 302.5625 C 520.632812 304.90625 512.667969 308.703125 503.710938 312.066406 C 490.132812 317.171875 477.992188 309.480469 472.6875 297.066406 C 471.695312 294.753906 472.636719 292.960938 474.167969 291.304688 C 491.121094 293.535156 515.5625 290.417969 530.152344 301.5625 Z M 523.992188 276.082031 C 531.15625 279.945312 529.070312 289.496094 527.46875 296.402344 C 517.550781 293.980469 506.65625 290.511719 495.859375 290.226562 C 504.265625 286.980469 514.839844 270.914062 523.992188 276.078125 Z M 493.148438 246.640625 C 495.140625 243.582031 503.792969 238.375 506.5625 242.324219 C 508.515625 247.417969 512.019531 248.632812 515.035156 252.472656 C 525.25 266.410156 499.84375 284.402344 491.421875 284.65625 C 497.300781 281.214844 502.335938 276.625 505.871094 270.808594 C 500.832031 275.058594 494.621094 280.890625 488.8125 283.046875 C 495.046875 277.902344 501.761719 269.800781 502.117188 262.261719 C 497.3125 270.40625 490.957031 277.207031 483.011719 282.332031 C 489.972656 273.515625 497.875 264.644531 497.84375 252.484375 C 494.53125 262.003906 487.332031 273.347656 477.472656 279.835938 C 484.703125 271.597656 493.652344 258.992188 493.144531 246.636719 Z M 466.164062 284.050781 C 445.417969 287.394531 427.335938 267.335938 433.238281 247.089844 C 435.847656 235.460938 450.414062 244.492188 454.332031 249.796875 C 454.9375 254.566406 453.054688 259.175781 453.800781 264.082031 C 454.136719 273.191406 460.097656 279.742188 466.164062 284.046875 Z M 470.828125 251.730469 C 466.964844 256.023438 466.246094 265.332031 466.207031 270.015625 C 464.953125 264.847656 464.460938 259.257812 464.820312 254.230469 C 462.382812 258.996094 462.71875 271.242188 465.507812 278.339844 C 456.59375 268.792969 457.292969 250.429688 464.339844 239.28125 C 466.464844 235.796875 474.636719 228.679688 478.792969 233.335938 C 485.347656 240.667969 492.285156 245.859375 489.296875 257.179688 C 487.101562 265.207031 482.417969 269.835938 477.183594 275.773438 C 479.09375 270.386719 484.332031 265.09375 486.527344 259.28125 C 484.277344 260.058594 478.242188 267.363281 476.488281 269.941406 C 477.925781 265.058594 480.605469 260.339844 483.589844 255.675781 C 483.714844 255.523438 483.554688 255.171875 483.382812 255.414062 C 480.136719 259.140625 474.410156 263.917969 473.121094 269.371094 C 472.332031 265.476562 475.351562 259.160156 478.121094 255.433594 C 472.453125 259.519531 470.375 267.632812 470.460938 274.910156 C 467.597656 267.644531 468.351562 259.203125 470.828125 251.722656 Z M 446.773438 342.234375 C 440.179688 354.695312 434.3125 367.484375 429.175781 380.609375 C 425.378906 390.296875 422.46875 406.027344 416.40625 419.21875 C 388.804688 427.703125 367.277344 444.03125 353.859375 469.292969 C 354.433594 459.246094 357.328125 450 362.546875 441.550781 C 365.035156 437.523438 369.519531 434.988281 371.191406 430.5625 C 371.992188 427.421875 374.449219 420.179688 372.492188 415.691406 C 372.089844 415.753906 370.445312 416.867188 370.289062 416.039062 C 370.289062 416.039062 368.375 407.25 368.375 407.25 C 367.003906 402.542969 363.148438 417.15625 362.511719 418.675781 C 362.328125 419.558594 361.421875 418.683594 361.015625 418.496094 C 358.285156 423.546875 359.855469 432.03125 361.273438 438.015625 C 356.792969 444.144531 352.425781 450.4375 351.765625 458.535156 C 348.402344 433.652344 353.054688 405.042969 370.476562 385.074219 C 377.980469 382.648438 383.007812 376.121094 382.265625 368.394531 C 382.265625 368.394531 387.808594 363.003906 387.808594 363.003906 C 393.175781 367.449219 400.613281 369.027344 407.96875 367.023438 C 408.527344 366.894531 408.867188 366.300781 408.683594 365.753906 C 408.207031 364.648438 407.929688 363.296875 409.535156 363.210938 C 409.214844 362.699219 431.15625 362.101562 427.933594 360.128906 C 427.726562 359.761719 418.085938 357.585938 419.109375 356.621094 C 419.558594 356.078125 420.214844 354.910156 419.074219 354.714844 C 412.660156 354.011719 406.601562 352.554688 400.160156 352.953125 C 399.53125 352.941406 400.433594 350.207031 400.355469 349.925781 C 392.316406 349.253906 388.113281 360.464844 380.734375 364.425781 C 380.09375 365.035156 378.484375 361.804688 378.097656 361.613281 C 377.886719 361.328125 377.957031 361.199219 378.316406 361.234375 C 381.390625 361.546875 383.996094 360.820312 386.125 359.0625 C 400.21875 347.453125 389.652344 317.792969 370.152344 323.71875 C 369.410156 324 369.839844 322.410156 369.730469 322.097656 C 378.578125 321.839844 384.433594 311.753906 384.808594 303.449219 C 384.6875 302.417969 388.308594 303.816406 388.671875 303.636719 C 389.023438 303.695312 389.078125 303.851562 388.835938 304.113281 C 381.195312 312.648438 397.03125 319.585938 402.070312 321.90625 C 390.390625 340.09375 408.019531 361.699219 426.5 346.175781 C 428.515625 344.859375 429.984375 342.222656 432.078125 341.304688 C 436.734375 343.367188 442.8125 341.644531 446.777344 342.226562 Z M 340.148438 343.714844 C 337.664062 342.496094 335.914062 336.832031 334.285156 334.296875 C 334.105469 338.566406 339.679688 344.511719 337.773438 347.613281 C 331.6875 342.996094 321.53125 338.605469 325.125 329.304688 C 327.175781 323.222656 334.15625 312.148438 341.878906 318.988281 C 348.164062 324.554688 350.347656 331.476562 348.433594 339.757812 C 347.472656 341.339844 346.375 331.089844 345.894531 331.316406 C 345.699219 334.21875 346.582031 338.285156 345.609375 341.214844 C 343.824219 339.441406 343.152344 332.265625 341.5625 328.8125 C 340.566406 327.011719 343.320312 341.242188 343.09375 341.042969 C 342.660156 343.246094 336.21875 329.035156 335.929688 329.234375 C 335.253906 328.878906 340.316406 343.652344 340.148438 343.714844 Z M 329.332031 294.707031 C 332.304688 292.609375 334.15625 288.714844 336.199219 285.859375 C 336.78125 286.25 333.082031 299.214844 333.785156 299.578125 C 334.597656 299.917969 338.789062 285.210938 339.269531 285.085938 C 340.578125 305.78125 341.195312 300.28125 342.320312 283.566406 C 346.019531 291.59375 349.691406 301.910156 354.558594 310.175781 C 352.269531 312.859375 348.609375 315.195312 347.167969 318.945312 C 347.039062 319.210938 346.875 319.230469 346.6875 319 C 340.753906 311.875 334.753906 311.855469 328.691406 318.9375 C 327.808594 319.636719 326.628906 322.105469 325.894531 321.90625 C 326.097656 321.234375 324.945312 294.734375 325.636719 294.253906 C 327.390625 292.335938 331.113281 287.746094 332.714844 287.851562 C 332.730469 288.035156 329.160156 294.519531 329.339844 294.703125 Z M 352.917969 284.550781 C 358.621094 288.320312 364.328125 293.917969 368.941406 300.609375 C 367.246094 294.304688 359.769531 285.722656 353.574219 280.210938 C 353.429688 280.078125 353.59375 279.800781 353.777344 279.910156 C 359.289062 283.097656 365.195312 286.542969 369.25 291.390625 C 367.011719 285.089844 358.605469 278.832031 352.632812 275.554688 C 360.917969 276.039062 377.027344 282.511719 379.863281 292.976562 C 382.394531 301.742188 381.042969 310.210938 374.808594 317.3125 C 373.648438 318.628906 372.386719 318.984375 371.019531 318.378906 C 353.945312 313.628906 353.726562 297.957031 347.441406 284.300781 C 352.480469 289.234375 356.960938 294.753906 361.253906 300.261719 C 359.46875 294.785156 356.183594 289.441406 352.917969 284.550781 Z M 365.1875 354.597656 C 365.4375 354.34375 372.511719 352.535156 372.019531 351.792969 C 371.566406 350.292969 370.277344 352.808594 369.621094 351.863281 C 369.386719 350.726562 375.6875 350.015625 374.28125 348.605469 C 369.855469 350.675781 365.402344 350.105469 360.832031 350.347656 C 362.820312 348.828125 367.828125 346.75 369.726562 345.007812 C 371.480469 343.367188 361.265625 348.617188 361.425781 348.328125 C 359.523438 347.625 366.578125 342.859375 365.644531 341.808594 C 363.621094 344.023438 357.886719 347.472656 354.804688 347.144531 C 352.167969 345.398438 361.570312 333.355469 360.476562 327.21875 C 360.402344 324.773438 354.601562 340.71875 354.253906 340.871094 C 353.460938 341.484375 358.203125 328.316406 358.28125 327.011719 C 356.429688 330.144531 355.304688 336.363281 352.5 339.796875 C 352.277344 333.390625 350.023438 326.828125 348.394531 320.757812 C 356.859375 308.191406 354.847656 314.9375 365.394531 318.636719 C 367.207031 328.585938 360.015625 338.261719 354.589844 346.066406 C 365.066406 345.386719 367.367188 336.207031 369.476562 327.355469 C 394.5 318.664062 399.371094 375.160156 365.1875 354.597656 Z M 365.429688 351.382812 C 365.808594 351.339844 367.039062 350.925781 366.78125 351.761719 C 366.703125 352.625 364.402344 351.570312 365.429688 351.382812 Z M 349.066406 270.277344 C 346.8125 277.9375 332.5625 273.4375 335.105469 265.867188 C 337.359375 258.207031 351.605469 262.707031 349.066406 270.277344 Z M 344.507812 347.160156 C 349.222656 342.460938 355.042969 348.457031 350.21875 353.050781 C 345.503906 357.746094 339.683594 351.753906 344.507812 347.160156 Z M 348.207031 363.320312 C 350.671875 365.101562 354.058594 371.757812 355.527344 371.886719 C 355.574219 371.554688 349.832031 360.355469 350.328125 360.074219 C 354.199219 363.441406 356.882812 368.878906 360.171875 372.972656 C 361.015625 372.960938 353.976562 360.917969 354.109375 360.644531 C 353.875 360.25 354.496094 360.277344 354.625 360.523438 C 356.097656 362.691406 361.101562 367.785156 363.914062 367.398438 C 362.390625 366.046875 358.074219 362.941406 358.429688 360.394531 C 358.429688 360.394531 363.582031 362.992188 363.582031 362.992188 C 365.21875 362.507812 357.761719 359.714844 357.871094 357.789062 C 360.871094 358.691406 368.527344 359.722656 371.570312 360.421875 C 399.070312 374.886719 349.03125 400.925781 348.207031 363.320312 Z M 415.242188 324.441406 C 415.261719 324.753906 415.347656 324.769531 415.488281 324.492188 C 415.683594 324.414062 417.382812 320.179688 417.757812 320.507812 C 417.398438 323.398438 416.078125 326.664062 416.453125 329.882812 C 417.144531 329.632812 419.410156 316.734375 421.199219 319.042969 C 420.792969 320.863281 418.929688 334.679688 420.121094 332.5 C 420.121094 332.5 423.773438 319.347656 423.773438 319.347656 C 424.273438 318.867188 423.316406 330.535156 423.472656 330.550781 C 424.964844 329.949219 425.316406 325.273438 426.589844 323.410156 C 429.25 317.324219 427.917969 329.058594 428.527344 330.730469 C 429.972656 329.714844 429.09375 325.285156 430 323.195312 C 442.261719 332.375 422.054688 353.722656 409.324219 349.097656 C 398.757812 346.214844 399.050781 331.027344 404.355469 323.933594 C 407.160156 320.191406 413.214844 317.949219 417.546875 316.257812 C 419.03125 315.632812 414.140625 322.03125 415.238281 324.445312 Z M 422.851562 310.429688 C 423.652344 309.21875 425.632812 309.117188 427.273438 310.203125 C 428.917969 311.292969 429.597656 313.15625 428.796875 314.371094 C 427.996094 315.582031 426.015625 315.679688 424.375 314.589844 C 422.734375 313.503906 422.050781 311.636719 422.851562 310.425781 Z M 452.792969 332.714844 C 449.769531 340.09375 439.855469 341.246094 433.960938 339.191406 C 437.371094 332.460938 436.46875 326.128906 432.855469 319.835938 C 438.167969 321.582031 442.394531 328.328125 445.644531 331.613281 C 443.867188 325.285156 437.445312 320.539062 433.988281 317.003906 C 433.988281 317.003906 442.636719 321.878906 442.636719 321.878906 C 441.664062 319.824219 438.707031 317.835938 436.632812 316.367188 C 432.714844 313.511719 446.125 319.589844 446.863281 318.632812 C 446.863281 318.632812 434.929688 312.921875 434.929688 312.921875 C 445.574219 313.148438 458.765625 319.300781 452.792969 332.710938 Z M 444.929688 293.15625 C 449.5625 295.203125 447.519531 300.507812 452.953125 302.195312 C 453.980469 302.777344 454.34375 304.078125 453.765625 305.109375 C 449.195312 313.046875 441.867188 308 435.027344 310.429688 C 433.722656 309.84375 442.992188 308.03125 441.316406 307.316406 C 438.925781 307.082031 436.363281 308 434.304688 308.34375 C 435.203125 307.058594 437.308594 306.371094 438.59375 305.265625 C 439.375 303.667969 434.648438 306.644531 434.453125 306.523438 C 434.394531 304.527344 440.117188 303.386719 441.347656 301.941406 C 438.699219 301.367188 435.300781 303.398438 432.789062 304.644531 C 433.066406 298.855469 435.921875 288.875 444.929688 293.15625 Z M 405.203125 293.308594 C 409.007812 291.859375 412.132812 291.800781 414.621094 287.960938 C 419.054688 281.121094 427.535156 287.261719 430.996094 291.773438 C 433.910156 295.519531 431.097656 300.683594 430.042969 304.953125 C 429.207031 305.261719 421.160156 292.308594 421.863281 295.378906 C 421.953125 296.902344 425.128906 306.070312 422.578125 300.996094 C 422.578125 300.996094 417.402344 296.148438 417.402344 296.148438 C 416.730469 298.359375 420.433594 302.542969 421.605469 305.089844 C 421.574219 304.726562 404.003906 294.019531 405.203125 293.308594 Z M 400.679688 294.207031 C 400.761719 294.429688 419.703125 306.597656 419.503906 306.960938 C 415.871094 306.539062 410.132812 305.203125 407.179688 306.972656 C 407.179688 306.972656 418.324219 308.6875 418.324219 308.6875 C 418.746094 308.726562 418.21875 309.15625 418.039062 309.164062 C 413.921875 308.480469 403.609375 309.078125 401.988281 312.363281 C 405.148438 311.519531 410.316406 310.503906 412.785156 311.714844 C 408.617188 313.238281 406.625 318.78125 402.875 319.835938 C 396.480469 318.4375 383.808594 309.839844 392.753906 303.859375 C 397.550781 301.78125 398.75 298.164062 400.675781 294.207031 Z M 399.613281 283.71875 C 397.3125 290.816406 395.433594 302.105469 385.363281 300.0625 C 383.078125 290.105469 381.636719 282.25 371.109375 277.1875 C 368.199219 275.222656 382.816406 280.515625 384.449219 281.191406 C 379.09375 275.71875 367.167969 271.109375 357.90625 270.089844 C 366.035156 266.941406 400.277344 267.078125 399.617188 283.71875 Z M 386.078125 232.007812 C 404.808594 236.320312 394.164062 257.894531 383.410156 265.65625 C 375.757812 264.75 361.558594 265.492188 356.96875 265.402344 C 365.824219 264.09375 374.660156 262.367188 383.472656 260.222656 C 384.746094 259.910156 384.726562 259.746094 383.410156 259.722656 C 374.699219 259.566406 362.972656 259.910156 354.601562 263.472656 C 360.585938 258.222656 377.527344 252.1875 387.957031 247.84375 C 378.578125 248.863281 364.296875 254.6875 355.25 260.871094 C 361.136719 252.796875 373.511719 246.285156 380.671875 240.488281 C 369.210938 243.238281 360.628906 252.144531 352.074219 258.582031 C 357.066406 252.019531 363.574219 246.503906 365.617188 243.886719 C 362.398438 244.257812 354.242188 252.433594 351.636719 254.296875 C 355.929688 246.878906 362.363281 240.46875 368.957031 234.949219 C 375.726562 229.46875 377.570312 229.109375 386.078125 232.007812 Z M 334.320312 238.390625 C 335.578125 229.367188 352.710938 215.9375 361.554688 217.074219 C 365.09375 217.660156 370.945312 226.160156 371.488281 229.511719 C 361.882812 235.308594 355.042969 244.339844 348.921875 253.519531 C 351.140625 246.867188 357.214844 236.40625 356.839844 229.375 C 352.980469 238.246094 348.332031 246.96875 342.457031 254.558594 C 344.339844 249.441406 346.347656 244.125 347.496094 238.683594 C 347.132812 237.898438 340.214844 254.070312 339.917969 253.714844 C 339.917969 253.714844 341.074219 240.8125 341.074219 240.8125 C 341.097656 240.503906 340.632812 240.394531 340.515625 240.683594 C 340.515625 240.683594 336.027344 252.972656 336.027344 252.972656 C 333.726562 250.054688 333.976562 242 334.316406 238.390625 Z M 299.851562 226.175781 C 307.324219 212.804688 327.921875 217.410156 333.925781 230.101562 C 329.230469 237.757812 329.03125 247.253906 332.417969 255.433594 C 333.515625 260.191406 313.539062 239.632812 311.597656 237.703125 C 315.308594 245.523438 322.382812 252.054688 328.042969 257.847656 C 323.722656 255.691406 317.386719 252.210938 313.542969 251.730469 C 316.164062 254.117188 319.429688 255.902344 322.175781 257.925781 C 316.648438 257.035156 308.269531 253.691406 302.652344 256.355469 C 298.179688 248.441406 294.988281 235.144531 299.855469 226.171875 Z M 319.472656 295.035156 C 310.96875 303.730469 299.714844 300.484375 292.796875 291.859375 C 288.957031 287.082031 294.46875 281.957031 296.664062 277.9375 C 298.960938 273.738281 299.941406 268.855469 301.207031 264.113281 C 303.6875 253.21875 321.609375 261.542969 325.585938 265.605469 C 310.460938 267.023438 310.761719 268.199219 325.304688 268.425781 C 322.40625 270.28125 316.695312 271.324219 313.121094 273.578125 C 310.445312 275.597656 325.609375 272.671875 327.28125 272.285156 C 336.070312 269.980469 300.738281 286.414062 298.179688 286.671875 C 306.839844 286.492188 317.605469 279.886719 325.277344 278.035156 C 325.277344 278.035156 312.085938 289.84375 312.085938 289.84375 C 310.839844 290.960938 310.957031 291.128906 312.4375 290.34375 C 318.074219 287.851562 323.902344 281.773438 330.125 278.308594 C 330.105469 278.5 325.269531 284.910156 325.84375 285.027344 C 326.082031 285.605469 331.15625 279.648438 331.351562 279.636719 C 328.996094 285.210938 323.019531 290.953125 319.476562 295.035156 Z M 313.085938 363.757812 C 310.089844 359.554688 313.195312 355.285156 312.921875 350.257812 C 312.628906 344.824219 320.921875 342.746094 324.925781 342.15625 C 325.574219 341.96875 335.765625 351.21875 336.265625 351.378906 C 336.84375 352.328125 326.277344 349.332031 326.214844 349.550781 C 324.410156 349.960938 333.523438 353.058594 333.386719 353.25 C 329.359375 354.714844 321.804688 353.382812 316.769531 352.703125 C 323.84375 357.46875 330.582031 357.273438 338.976562 356.804688 C 335.460938 359.542969 327.835938 360.972656 323.683594 364.222656 C 322.339844 366.273438 337.933594 359.25 337.925781 359.632812 C 328.546875 367.878906 323.777344 377.839844 313.085938 363.757812 Z M 328.332031 373.539062 C 328.082031 373.191406 335.558594 366.734375 335.738281 366.429688 C 335.980469 366.175781 336.410156 366.496094 336.230469 366.800781 C 336.230469 366.800781 334 371.027344 334 371.027344 C 333.710938 371.664062 334.710938 371.164062 334.851562 370.847656 C 337.597656 366.617188 341.796875 363.90625 343.867188 359.445312 C 345.675781 369.746094 348.058594 379.136719 357.996094 385.671875 C 350.480469 402.6875 326.101562 388.726562 328.332031 373.539062 Z M 333.449219 411.292969 C 331.90625 402.546875 329.871094 393.566406 329.160156 384.859375 C 336.765625 395.386719 351.429688 400.59375 359.074219 386.070312 C 360.050781 385.09375 361.675781 386.414062 362.886719 386.164062 C 363.371094 386.164062 363.46875 386.359375 363.179688 386.742188 C 346.210938 408.539062 345.828125 436.363281 347.589844 461.582031 C 343.71875 443.964844 335.839844 430.613281 333.449219 411.292969 Z M 345.871094 457.65625 C 343.511719 456.289062 340.9375 450.738281 338.019531 448.359375 C 337.277344 447.046875 337.761719 445.308594 337.03125 443.910156 C 335.503906 438.683594 344.929688 455.976562 345.871094 457.65625 Z M 137.171875 451.421875 C 184.535156 455.410156 226.632812 449.808594 277.445312 451.074219 C 231.601562 453.128906 183.859375 456.105469 137.488281 458 C 136.414062 458.378906 137.46875 451.671875 137.171875 451.421875 Z M 333.335938 500.253906 C 256.136719 499.339844 172.386719 508.59375 98.070312 504.175781 C 101.046875 498.6875 106.273438 495.324219 112.480469 496.992188 C 184.074219 498.457031 255.5 496.722656 327.054688 498.761719 C 256.355469 487.089844 182.601562 497.652344 111.84375 493.9375 C 111.800781 490.796875 110.621094 486.492188 115.445312 486.613281 C 171.824219 489.441406 227.886719 486.980469 284.40625 490.660156 C 300.65625 492.40625 318.984375 493.089844 333.332031 500.25 Z M 604.878906 506.039062 C 524.601562 503.132812 439.875 500.496094 370.925781 500.503906 C 368.046875 501.488281 366.46875 503.492188 366.191406 506.515625 C 358.359375 507.828125 347.566406 507.992188 339.886719 506.277344 C 315.777344 473.183594 163.972656 488.0625 118.511719 484.273438 C 118.238281 484.277344 118.121094 484.144531 118.148438 483.875 C 118.148438 483.875 118.636719 478.644531 118.636719 478.644531 C 184.570312 484.1875 257.328125 471.03125 322.476562 491.003906 C 328.066406 492.578125 333.886719 496.890625 338.585938 498.503906 C 320.601562 486.714844 306.5625 482.449219 286.035156 479.488281 C 231.789062 473.453125 176.964844 477.992188 122.523438 477.273438 C 121.730469 475.503906 122.492188 472.371094 121.007812 470.320312 C 191.886719 474.769531 278.78125 444.222656 340.9375 491.324219 C 319.488281 460.164062 265.847656 461.261719 228.726562 463.167969 C 197.335938 466 163.800781 465.699219 132.003906 467.292969 C 131.6875 467.308594 131.410156 467.089844 131.351562 466.785156 L 130.78125 464.039062 C 130.695312 463.609375 130.867188 463.351562 131.296875 463.265625 C 133.515625 463.085938 134.945312 461.359375 136.757812 460.476562 C 159.117188 461.191406 181.394531 460.324219 203.589844 457.875 C 251.734375 453.515625 323.847656 445.3125 348.386719 496.441406 C 318.8125 416.878906 205.894531 462.765625 153.355469 447.828125 C 157.441406 434.597656 147.148438 437.738281 165.0625 436.707031 C 195.191406 436.308594 222.894531 432.964844 251.65625 430.109375 C 222.089844 431.113281 190.957031 433.558594 161.234375 432.28125 C 161.234375 432.28125 157.824219 427.246094 157.824219 427.246094 C 157.597656 426.898438 157.6875 426.738281 158.101562 426.761719 C 188.808594 428.460938 218.519531 425.96875 248.589844 424.121094 C 291.816406 419.207031 345.328125 438.257812 351.011719 487.550781 C 350.988281 487.804688 351.257812 488.546875 351.390625 488.339844 C 375.953125 395.257812 487.183594 416.910156 559.394531 425.433594 C 559.695312 425.464844 559.742188 425.59375 559.542969 425.820312 C 559.652344 425.925781 550.363281 435.53125 551.078125 435.496094 C 487.097656 437.160156 385.011719 408.226562 356.238281 484.269531 C 384.253906 434.105469 445.335938 428.964844 496.675781 436.308594 C 520.234375 439.234375 545.027344 439.207031 568.136719 440.023438 C 568.136719 440.023438 564.761719 451.542969 564.761719 451.542969 C 543.242188 451.558594 520.726562 448.789062 498.894531 448.515625 C 525.378906 452.8125 552.363281 455 579.351562 455.769531 C 579.351562 455.769531 576.164062 467.890625 576.164062 467.890625 C 576.003906 469.617188 537.160156 466.183594 536.394531 466.71875 C 550.257812 468.503906 568.328125 470.382812 584.828125 470.496094 C 585.378906 470.496094 585.441406 470.671875 585.015625 471.023438 C 582.957031 472.046875 583.449219 474.714844 582.234375 475.84375 C 507.652344 472.34375 417.164062 445.542969 354.675781 499.707031 C 417.902344 452.050781 506.316406 474.484375 579.203125 479.09375 C 588.746094 480.4375 588.273438 475.433594 586.875 487.300781 C 508.820312 485.355469 415.945312 463.75 359.914062 501.726562 C 432.609375 471.6875 516.105469 487.484375 591.945312 491.472656 C 591.351562 495.292969 592.273438 496.203125 587.570312 495.683594 C 516.230469 494.378906 439.898438 477.71875 370.929688 500.507812 C 431.914062 487.882812 507.78125 495.027344 566.261719 495.957031 C 578.75 497.0625 587.621094 495.289062 597.15625 497.570312 C 599.09375 498.480469 607.375 503.4375 604.878906 506.042969 Z M 604.878906 506.039062 " fill-opacity="1" fill-rule="nonzero"/><path fill="#000000" d="M 420.722656 370.679688 C 417.15625 372.011719 414.429688 376.707031 411.664062 377.738281 C 409.59375 371.921875 407.777344 380.78125 406.464844 382.59375 C 406.023438 384.453125 404.152344 383.1875 403.40625 384.265625 C 403.125 384.558594 402.3125 389.316406 401.445312 388.675781 C 396.191406 384.90625 402.574219 416.398438 390.808594 425.539062 C 401.316406 421.363281 411.21875 402.886719 417.382812 390.898438 C 417.375 389.558594 414.871094 391.136719 415.769531 388.464844 C 416.902344 382.804688 420.734375 375.699219 420.722656 370.679688 Z M 420.722656 370.679688 " fill-opacity="1" fill-rule="nonzero"/><path fill="#000000" d="M 391.921875 408.902344 C 389.144531 409.265625 386.078125 414.199219 382.75 415.550781 C 376.464844 419.589844 379.78125 427.878906 375.992188 430.546875 C 371.75 433.53125 367.003906 436.253906 365.101562 441.351562 C 364.960938 441.691406 365.386719 442.042969 365.6875 441.808594 C 371.109375 438.175781 376.238281 434.160156 381.074219 429.761719 C 391.644531 428.121094 395.1875 418.507812 391.921875 408.90625 Z M 391.921875 408.902344 " fill-opacity="1" fill-rule="nonzero"/><path fill="#000000" d="M 348.660156 485.570312 C 325 401.726562 221.191406 445.691406 158.671875 440.738281 C 155.453125 440.765625 155.453125 440.875 158.660156 441.078125 C 164.929688 441.46875 171.617188 441.589844 178.730469 441.4375 C 239.398438 441.933594 326.40625 417.265625 348.660156 485.570312 Z M 348.660156 485.570312 " fill-opacity="1" fill-rule="nonzero"/><path fill="#000000" d="M 380.363281 462.847656 C 434.539062 429.457031 494.632812 446.464844 556.3125 447.867188 C 559.582031 448.867188 568.667969 444.660156 560.660156 444.398438 C 502.863281 445.878906 411.53125 424.046875 380.363281 462.851562 Z M 380.363281 462.847656 " fill-opacity="1" fill-rule="nonzero"/><path fill="#000000" d="M 248.367188 442.101562 C 281.9375 441.382812 318.609375 446.78125 341.800781 476.019531 C 328.894531 443.246094 280.683594 439.214844 248.367188 442.101562 Z M 248.367188 442.101562 " fill-opacity="1" fill-rule="nonzero"/><path fill="#000000" d="M 353.765625 496.542969 C 401.953125 436.476562 475.078125 453.875 546.503906 460.304688 C 553.355469 460.792969 564.523438 462.042969 575.78125 461.359375 C 569.640625 460.578125 562.929688 460.582031 557.148438 459.867188 C 491.980469 454.503906 393.230469 428.503906 353.765625 496.542969 Z M 353.765625 496.542969 " fill-opacity="1" fill-rule="nonzero"/><path fill="#000000" d="M 415.367188 464.019531 C 449.679688 456.863281 483.554688 460.492188 518.519531 460.105469 C 459.664062 454.769531 393.679688 447.96875 351.984375 500.25 C 369.070312 481.957031 390.386719 469.351562 415.367188 464.019531 Z M 415.367188 464.019531 " fill-opacity="1" fill-rule="nonzero"/><g fill="#000000" fill-opacity="1"><g transform="translate(167.396186, 600.265243)"><g><path d="M 3.703125 3.296875 C 2.890625 2.660156 2.421875 1.847656 2.296875 0.859375 C 2.179688 -0.128906 2.453125 -1.039062 3.109375 -1.875 C 3.773438 -2.726562 4.59375 -3.195312 5.5625 -3.28125 C 6.53125 -3.375 7.421875 -3.101562 8.234375 -2.46875 C 9.046875 -1.832031 9.523438 -1.03125 9.671875 -0.0625 C 9.816406 0.894531 9.554688 1.800781 8.890625 2.65625 C 8.234375 3.488281 7.40625 3.960938 6.40625 4.078125 C 5.414062 4.191406 4.515625 3.929688 3.703125 3.296875 Z M 3.703125 3.296875 "/></g></g></g><g fill="#000000" fill-opacity="1"><g transform="translate(179.224624, 609.410929)"><g/></g></g><g fill="#000000" fill-opacity="1"><g transform="translate(192.176708, 618.364892)"><g><path d="M 4.03125 2.890625 C 3.164062 2.335938 2.617188 1.578125 2.390625 0.609375 C 2.160156 -0.359375 2.328125 -1.296875 2.890625 -2.203125 C 3.460938 -3.117188 4.226562 -3.671875 5.1875 -3.859375 C 6.15625 -4.046875 7.070312 -3.863281 7.9375 -3.3125 C 8.8125 -2.769531 9.367188 -2.023438 9.609375 -1.078125 C 9.847656 -0.140625 9.679688 0.785156 9.109375 1.703125 C 8.546875 2.609375 7.773438 3.164062 6.796875 3.375 C 5.828125 3.59375 4.90625 3.429688 4.03125 2.890625 Z M 4.03125 2.890625 "/></g></g></g><g fill="#000000" fill-opacity="1"><g transform="translate(204.897384, 626.222479)"><g/></g></g><g fill="#000000" fill-opacity="1"><g transform="translate(218.715447, 633.771666)"><g><path d="M 4.328125 2.453125 C 3.398438 1.992188 2.769531 1.289062 2.4375 0.34375 C 2.113281 -0.59375 2.1875 -1.539062 2.65625 -2.5 C 3.132812 -3.46875 3.835938 -4.09375 4.765625 -4.375 C 5.691406 -4.664062 6.617188 -4.582031 7.546875 -4.125 C 8.460938 -3.675781 9.09375 -2.992188 9.4375 -2.078125 C 9.78125 -1.171875 9.710938 -0.234375 9.234375 0.734375 C 8.765625 1.691406 8.054688 2.328125 7.109375 2.640625 C 6.171875 2.960938 5.242188 2.898438 4.328125 2.453125 Z M 4.328125 2.453125 "/></g></g></g><g fill="#000000" fill-opacity="1"><g transform="translate(232.18863, 640.254852)"><g/></g></g><g fill="#000000" fill-opacity="1"><g transform="translate(246.964969, 646.658613)"><g><path d="M 23.96875 2.859375 L 22.40625 7.53125 L 2.984375 1 L 11.421875 -24.109375 L 30.390625 -17.734375 L 28.828125 -13.0625 L 15.625 -17.5 L 13.78125 -12.046875 L 25.4375 -8.125 L 23.921875 -3.609375 L 12.265625 -7.53125 L 10.3125 -1.734375 Z M 23.96875 2.859375 "/></g></g></g><g fill="#000000" fill-opacity="1"><g transform="translate(276.522975, 656.246356)"><g><path d="M 11.46875 3.03125 C 9.425781 2.570312 7.507812 1.851562 5.71875 0.875 C 3.9375 -0.101562 2.5625 -1.164062 1.59375 -2.3125 L 4.640625 -6.359375 C 5.578125 -5.304688 6.75 -4.363281 8.15625 -3.53125 C 9.5625 -2.695312 11.03125 -2.109375 12.5625 -1.765625 C 14.257812 -1.390625 15.570312 -1.363281 16.5 -1.6875 C 17.425781 -2.007812 17.984375 -2.585938 18.171875 -3.421875 C 18.304688 -4.035156 18.179688 -4.597656 17.796875 -5.109375 C 17.410156 -5.617188 16.867188 -6.078125 16.171875 -6.484375 C 15.472656 -6.898438 14.519531 -7.398438 13.3125 -7.984375 C 11.4375 -8.890625 9.921875 -9.71875 8.765625 -10.46875 C 7.617188 -11.21875 6.710938 -12.210938 6.046875 -13.453125 C 5.390625 -14.691406 5.253906 -16.171875 5.640625 -17.890625 C 5.984375 -19.398438 6.691406 -20.671875 7.765625 -21.703125 C 8.847656 -22.734375 10.285156 -23.421875 12.078125 -23.765625 C 13.878906 -24.117188 15.960938 -24.03125 18.328125 -23.5 C 19.972656 -23.125 21.539062 -22.5625 23.03125 -21.8125 C 24.519531 -21.070312 25.769531 -20.203125 26.78125 -19.203125 L 23.921875 -15.078125 C 21.835938 -16.960938 19.597656 -18.171875 17.203125 -18.703125 C 15.535156 -19.078125 14.238281 -19.085938 13.3125 -18.734375 C 12.394531 -18.378906 11.832031 -17.753906 11.625 -16.859375 C 11.425781 -15.972656 11.742188 -15.207031 12.578125 -14.5625 C 13.410156 -13.925781 14.722656 -13.1875 16.515625 -12.34375 C 18.390625 -11.4375 19.898438 -10.609375 21.046875 -9.859375 C 22.203125 -9.109375 23.113281 -8.128906 23.78125 -6.921875 C 24.445312 -5.710938 24.585938 -4.242188 24.203125 -2.515625 C 23.878906 -1.046875 23.164062 0.203125 22.0625 1.234375 C 20.96875 2.273438 19.515625 2.960938 17.703125 3.296875 C 15.898438 3.640625 13.820312 3.550781 11.46875 3.03125 Z M 11.46875 3.03125 "/></g></g></g><g fill="#000000" fill-opacity="1"><g transform="translate(305.648603, 662.455843)"><g><path d="M 11.125 -20.296875 L 2.71875 -21.3125 L 3.328125 -26.28125 L 26.21875 -23.515625 L 25.609375 -18.546875 L 17.203125 -19.5625 L 14.640625 1.765625 L 8.5625 1.03125 Z M 11.125 -20.296875 "/></g></g></g><g fill="#000000" fill-opacity="1"><g transform="translate(334.204416, 665.444999)"><g/></g></g><g fill="#000000" fill-opacity="1"><g transform="translate(350.220164, 666.158435)"><g><path d="M 21.09375 -5.65625 L 21.25 -0.65625 L 1.25 -0.03125 L 1.125 -4 L 11.046875 -13.984375 C 12.097656 -15.046875 12.796875 -15.953125 13.140625 -16.703125 C 13.492188 -17.453125 13.660156 -18.191406 13.640625 -18.921875 C 13.609375 -19.984375 13.222656 -20.785156 12.484375 -21.328125 C 11.753906 -21.867188 10.695312 -22.117188 9.3125 -22.078125 C 8.15625 -22.035156 7.113281 -21.78125 6.1875 -21.3125 C 5.269531 -20.851562 4.507812 -20.171875 3.90625 -19.265625 L -0.65625 -22 C 0.332031 -23.570312 1.71875 -24.820312 3.5 -25.75 C 5.289062 -26.675781 7.359375 -27.175781 9.703125 -27.25 C 11.671875 -27.3125 13.398438 -27.039062 14.890625 -26.4375 C 16.390625 -25.84375 17.566406 -24.972656 18.421875 -23.828125 C 19.273438 -22.679688 19.726562 -21.316406 19.78125 -19.734375 C 19.820312 -18.296875 19.5625 -16.9375 19 -15.65625 C 18.4375 -14.382812 17.316406 -12.914062 15.640625 -11.25 L 9.71875 -5.3125 Z M 21.09375 -5.65625 "/></g></g></g><g fill="#000000" fill-opacity="1"><g transform="translate(378.180055, 665.084488)"><g><path d="M 12.78125 -1.234375 C 10.601562 -0.953125 8.59375 -1.234375 6.75 -2.078125 C 4.90625 -2.921875 3.363281 -4.296875 2.125 -6.203125 C 0.882812 -8.117188 0.078125 -10.488281 -0.296875 -13.3125 C -0.671875 -16.132812 -0.507812 -18.628906 0.1875 -20.796875 C 0.882812 -22.972656 2.007812 -24.710938 3.5625 -26.015625 C 5.113281 -27.316406 6.976562 -28.109375 9.15625 -28.390625 C 11.320312 -28.679688 13.328125 -28.40625 15.171875 -27.5625 C 17.023438 -26.71875 18.566406 -25.335938 19.796875 -23.421875 C 21.023438 -21.503906 21.828125 -19.132812 22.203125 -16.3125 C 22.578125 -13.488281 22.421875 -10.992188 21.734375 -8.828125 C 21.046875 -6.660156 19.921875 -4.925781 18.359375 -3.625 C 16.804688 -2.320312 14.945312 -1.523438 12.78125 -1.234375 Z M 12.09375 -6.375 C 13.6875 -6.59375 14.847656 -7.445312 15.578125 -8.9375 C 16.304688 -10.4375 16.476562 -12.625 16.09375 -15.5 C 15.707031 -18.375 14.96875 -20.4375 13.875 -21.6875 C 12.78125 -22.945312 11.4375 -23.46875 9.84375 -23.25 C 8.257812 -23.039062 7.101562 -22.1875 6.375 -20.6875 C 5.644531 -19.195312 5.472656 -17.015625 5.859375 -14.140625 C 6.242188 -11.265625 6.984375 -9.195312 8.078125 -7.9375 C 9.171875 -6.6875 10.507812 -6.164062 12.09375 -6.375 Z M 12.09375 -6.375 "/></g></g></g><g fill="#000000" fill-opacity="1"><g transform="translate(409.193961, 660.579162)"><g><path d="M 19.53125 -9.78125 L 20.6875 -4.921875 L 1.21875 -0.296875 L 0.296875 -4.15625 L 8 -15.90625 C 8.8125 -17.164062 9.3125 -18.203125 9.5 -19.015625 C 9.695312 -19.828125 9.710938 -20.585938 9.546875 -21.296875 C 9.296875 -22.328125 8.753906 -23.03125 7.921875 -23.40625 C 7.097656 -23.789062 6.015625 -23.820312 4.671875 -23.5 C 3.546875 -23.226562 2.582031 -22.769531 1.78125 -22.125 C 0.976562 -21.488281 0.363281 -20.671875 -0.0625 -19.671875 L -5.0625 -21.421875 C -4.414062 -23.171875 -3.304688 -24.675781 -1.734375 -25.9375 C -0.171875 -27.195312 1.75 -28.097656 4.03125 -28.640625 C 5.945312 -29.097656 7.695312 -29.179688 9.28125 -28.890625 C 10.863281 -28.609375 12.191406 -27.992188 13.265625 -27.046875 C 14.335938 -26.097656 15.054688 -24.851562 15.421875 -23.3125 C 15.753906 -21.90625 15.769531 -20.519531 15.46875 -19.15625 C 15.175781 -17.789062 14.367188 -16.125 13.046875 -14.15625 L 8.453125 -7.140625 Z M 19.53125 -9.78125 "/></g></g></g><g fill="#000000" fill-opacity="1"><g transform="translate(436.277547, 653.861948)"><g><path d="M 4.640625 -19.046875 C 8.171875 -20.253906 11.015625 -20.441406 13.171875 -19.609375 C 15.335938 -18.785156 16.828125 -17.191406 17.640625 -14.828125 C 18.160156 -13.304688 18.25 -11.785156 17.90625 -10.265625 C 17.570312 -8.742188 16.75 -7.34375 15.4375 -6.0625 C 14.132812 -4.78125 12.34375 -3.75 10.0625 -2.96875 C 8.289062 -2.363281 6.472656 -2 4.609375 -1.875 C 2.742188 -1.757812 1.070312 -1.929688 -0.40625 -2.390625 L 0.359375 -7.609375 C 1.554688 -7.210938 2.84375 -7.03125 4.21875 -7.0625 C 5.601562 -7.09375 6.945312 -7.332031 8.25 -7.78125 C 9.71875 -8.28125 10.765625 -8.957031 11.390625 -9.8125 C 12.023438 -10.664062 12.171875 -11.609375 11.828125 -12.640625 C 11.460938 -13.703125 10.75 -14.359375 9.6875 -14.609375 C 8.625 -14.867188 7.019531 -14.632812 4.875 -13.90625 L -1.53125 -11.71875 L -5.0625 -26.265625 L 10.234375 -31.484375 L 11.828125 -26.828125 L 1.375 -23.25 L 2.59375 -18.359375 Z M 4.640625 -19.046875 "/></g></g></g><g fill="#000000" fill-opacity="1"><g transform="translate(462.466457, 644.466564)"><g/></g></g><g fill="#000000" fill-opacity="1"><g transform="translate(476.886699, 638.143122)"><g><path d="M 4.578125 -1.921875 C 3.648438 -1.460938 2.710938 -1.390625 1.765625 -1.703125 C 0.828125 -2.023438 0.125 -2.664062 -0.34375 -3.625 C -0.820312 -4.59375 -0.890625 -5.53125 -0.546875 -6.4375 C -0.203125 -7.351562 0.429688 -8.039062 1.359375 -8.5 C 2.273438 -8.945312 3.195312 -9.023438 4.125 -8.734375 C 5.050781 -8.453125 5.753906 -7.828125 6.234375 -6.859375 C 6.703125 -5.898438 6.769531 -4.945312 6.4375 -4 C 6.113281 -3.0625 5.492188 -2.367188 4.578125 -1.921875 Z M 4.578125 -1.921875 "/></g></g></g><g fill="#000000" fill-opacity="1"><g transform="translate(490.252564, 631.441615)"><g/></g></g><g fill="#000000" fill-opacity="1"><g transform="translate(503.931818, 623.643668)"><g><path d="M 4.34375 -2.390625 C 3.476562 -1.835938 2.554688 -1.671875 1.578125 -1.890625 C 0.597656 -2.109375 -0.171875 -2.671875 -0.734375 -3.578125 C -1.304688 -4.492188 -1.46875 -5.421875 -1.21875 -6.359375 C -0.976562 -7.296875 -0.425781 -8.039062 0.4375 -8.59375 C 1.3125 -9.132812 2.226562 -9.3125 3.1875 -9.125 C 4.144531 -8.945312 4.910156 -8.398438 5.484375 -7.484375 C 6.046875 -6.578125 6.210938 -5.632812 5.984375 -4.65625 C 5.765625 -3.6875 5.21875 -2.929688 4.34375 -2.390625 Z M 4.34375 -2.390625 "/></g></g></g><g fill="#000000" fill-opacity="1"><g transform="translate(516.522897, 615.580153)"><g/></g></g><g fill="#000000" fill-opacity="1"><g transform="translate(529.310814, 606.393283)"><g><path d="M 4.078125 -2.828125 C 3.265625 -2.191406 2.359375 -1.929688 1.359375 -2.046875 C 0.367188 -2.160156 -0.453125 -2.632812 -1.109375 -3.46875 C -1.773438 -4.320312 -2.035156 -5.226562 -1.890625 -6.1875 C -1.742188 -7.15625 -1.265625 -7.957031 -0.453125 -8.59375 C 0.359375 -9.226562 1.25 -9.5 2.21875 -9.40625 C 3.1875 -9.320312 4.003906 -8.851562 4.671875 -8 C 5.328125 -7.164062 5.59375 -6.253906 5.46875 -5.265625 C 5.351562 -4.273438 4.890625 -3.460938 4.078125 -2.828125 Z M 4.078125 -2.828125 "/></g></g></g></g></g></svg>