<svg xmlns="http://www.w3.org/2000/svg" xmlns:xlink="http://www.w3.org/1999/xlink" width="1000" zoomAndPan="magnify" viewBox="0 0 750 749.999995" height="1000" preserveAspectRatio="xMidYMid meet" version="1.0"><defs><g/><clipPath id="722a03dbe3"><path d="M 21.226562 282.066406 L 704.316406 282.066406 L 704.316406 725.742188 L 21.226562 725.742188 Z M 21.226562 282.066406 " clip-rule="nonzero"/></clipPath><clipPath id="d647e62828"><rect x="0" width="727" y="0" height="727"/></clipPath></defs><rect x="-75" width="900" fill="#ffffff" y="-74.999999" height="899.999994" fill-opacity="1"/><rect x="-75" width="900" fill="#dddddd" y="-74.999999" height="899.999994" fill-opacity="1"/><g transform="matrix(1, 0, 0, 1, 12, 11)"><g clip-path="url(#d647e62828)"><g clip-path="url(#722a03dbe3)"><path fill="#5da865" d="M 363.023438 51.535156 C 179.472656 51.535156 30.148438 200.863281 30.148438 384.410156 C 30.148438 567.957031 179.472656 717.28125 363.023438 717.28125 C 546.570312 717.28125 695.894531 567.957031 695.894531 384.410156 C 695.894531 200.863281 546.570312 51.535156 363.023438 51.535156 Z M 363.023438 726.167969 C 174.574219 726.167969 21.261719 572.855469 21.261719 384.410156 C 21.261719 195.964844 174.574219 42.652344 363.023438 42.652344 C 551.464844 42.652344 704.777344 195.964844 704.777344 384.410156 C 704.777344 572.855469 551.464844 726.167969 363.023438 726.167969 " fill-opacity="1" fill-rule="nonzero"/></g><g fill="#5da865" fill-opacity="1"><g transform="translate(73.816917, 286.826155)"><g><path d="M -39.671875 -53.828125 C -37.503906 -58.546875 -34.832031 -62.273438 -31.65625 -65.015625 C -28.488281 -67.765625 -25.03125 -69.410156 -21.28125 -69.953125 C -17.53125 -70.492188 -13.679688 -69.851562 -9.734375 -68.03125 C -5.835938 -66.238281 -2.863281 -63.734375 -0.8125 -60.515625 C 1.238281 -57.296875 2.238281 -53.597656 2.1875 -49.421875 C 2.132812 -45.242188 1.023438 -40.796875 -1.140625 -36.078125 L -6.078125 -25.375 L 8.578125 -18.625 L 2.90625 -6.296875 L -50.28125 -30.796875 Z M -11.484375 -40.015625 C -9.785156 -43.710938 -9.289062 -46.890625 -10 -49.546875 C -10.707031 -52.210938 -12.535156 -54.222656 -15.484375 -55.578125 C -18.472656 -56.960938 -21.207031 -57.054688 -23.6875 -55.859375 C -26.164062 -54.671875 -28.253906 -52.226562 -29.953125 -48.53125 L -34.578125 -38.515625 L -16.109375 -30 Z M -11.484375 -40.015625 "/></g></g></g><g fill="#5da865" fill-opacity="1"><g transform="translate(101.077556, 228.178032)"><g><path d="M 17.484375 -43.859375 L 1.0625 -22.1875 L 7.9375 -10.46875 L -0.453125 0.59375 L -31.390625 -55.5625 L -23.296875 -66.234375 L 39.203125 -51.75 L 30.609375 -40.421875 Z M 6.703125 -46.6875 L -16.78125 -52.796875 L -4.515625 -31.875 Z M 6.703125 -46.6875 "/></g></g></g><g fill="#5da865" fill-opacity="1"><g transform="translate(142.027018, 174.677044)"><g><path d="M 16.046875 -53.09375 L 25.5 -61.078125 L 40.828125 -42.921875 C 39.953125 -39.035156 38.328125 -35.253906 35.953125 -31.578125 C 33.585938 -27.898438 30.785156 -24.691406 27.546875 -21.953125 C 22.898438 -18.023438 17.890625 -15.488281 12.515625 -14.34375 C 7.140625 -13.207031 1.914062 -13.503906 -3.15625 -15.234375 C -8.238281 -16.960938 -12.648438 -20.046875 -16.390625 -24.484375 C -20.128906 -28.910156 -22.425781 -33.769531 -23.28125 -39.0625 C -24.144531 -44.363281 -23.539062 -49.585938 -21.46875 -54.734375 C -19.40625 -59.878906 -16.03125 -64.429688 -11.34375 -68.390625 C -7.414062 -71.703125 -3.296875 -74.046875 1.015625 -75.421875 C 5.328125 -76.804688 9.632812 -77.15625 13.9375 -76.46875 L 12.453125 -64.734375 C 6.410156 -65.390625 1.132812 -63.8125 -3.375 -60 C -6.226562 -57.59375 -8.257812 -54.851562 -9.46875 -51.78125 C -10.675781 -48.71875 -10.976562 -45.578125 -10.375 -42.359375 C -9.78125 -39.140625 -8.296875 -36.128906 -5.921875 -33.328125 C -3.585938 -30.554688 -0.882812 -28.601562 2.1875 -27.46875 C 5.257812 -26.34375 8.40625 -26.097656 11.625 -26.734375 C 14.84375 -27.378906 17.859375 -28.890625 20.671875 -31.265625 C 23.648438 -33.785156 25.796875 -36.691406 27.109375 -39.984375 Z M 16.046875 -53.09375 "/></g></g></g><g fill="#5da865" fill-opacity="1"><g transform="translate(194.549243, 131.388015)"><g><path d="M 40.9375 -34.265625 L 46.078125 -24.6875 L 6.109375 -3.28125 L -21.546875 -54.90625 L 17.46875 -75.8125 L 22.609375 -66.21875 L -4.53125 -51.671875 L 1.46875 -40.46875 L 25.4375 -53.3125 L 30.421875 -44.015625 L 6.453125 -31.171875 L 12.84375 -19.21875 Z M 40.9375 -34.265625 "/></g></g></g><g fill="#5da865" fill-opacity="1"><g transform="translate(247.838459, 103.428851)"><g><path d="M 25.328125 -6.765625 C 20.890625 -5.398438 16.421875 -4.675781 11.921875 -4.59375 C 7.429688 -4.519531 3.632812 -5.054688 0.53125 -6.203125 L 1.921875 -17.328125 C 4.867188 -16.296875 8.15625 -15.753906 11.78125 -15.703125 C 15.414062 -15.660156 18.882812 -16.148438 22.1875 -17.171875 C 25.875 -18.304688 28.425781 -19.6875 29.84375 -21.3125 C 31.257812 -22.945312 31.691406 -24.671875 31.140625 -26.484375 C 30.722656 -27.816406 29.859375 -28.765625 28.546875 -29.328125 C 27.242188 -29.890625 25.695312 -30.1875 23.90625 -30.21875 C 22.113281 -30.257812 19.734375 -30.171875 16.765625 -29.953125 C 12.191406 -29.640625 8.390625 -29.570312 5.359375 -29.75 C 2.335938 -29.925781 -0.488281 -30.832031 -3.125 -32.46875 C -5.769531 -34.101562 -7.664062 -36.789062 -8.8125 -40.53125 C -9.8125 -43.769531 -9.84375 -46.984375 -8.90625 -50.171875 C -7.96875 -53.359375 -5.960938 -56.269531 -2.890625 -58.90625 C 0.179688 -61.539062 4.273438 -63.648438 9.390625 -65.234375 C 12.960938 -66.328125 16.582031 -66.972656 20.25 -67.171875 C 23.925781 -67.367188 27.289062 -67.0625 30.34375 -66.25 L 29.375 -55.203125 C 23.300781 -56.535156 17.679688 -56.40625 12.515625 -54.8125 C 8.890625 -53.695312 6.390625 -52.28125 5.015625 -50.5625 C 3.648438 -48.851562 3.265625 -47.046875 3.859375 -45.140625 C 4.453125 -43.210938 5.890625 -42.09375 8.171875 -41.78125 C 10.453125 -41.46875 13.789062 -41.492188 18.1875 -41.859375 C 22.757812 -42.148438 26.554688 -42.207031 29.578125 -42.03125 C 32.609375 -41.851562 35.429688 -40.972656 38.046875 -39.390625 C 40.671875 -37.804688 42.554688 -35.148438 43.703125 -31.421875 C 44.691406 -28.222656 44.703125 -25.03125 43.734375 -21.84375 C 42.765625 -18.65625 40.734375 -15.738281 37.640625 -13.09375 C 34.546875 -10.445312 30.441406 -8.335938 25.328125 -6.765625 Z M 25.328125 -6.765625 "/></g></g></g><g fill="#5da865" fill-opacity="1"><g transform="translate(304.374417, 87.520448)"><g/></g></g><g fill="#5da865" fill-opacity="1"><g transform="translate(332.751276, 82.033279)"><g><path d="M 51.953125 1.03125 L 44.921875 -5.484375 C 39.347656 -1.148438 32.820312 1.015625 25.34375 1.015625 C 21.101562 1.015625 17.28125 0.332031 13.875 -1.03125 C 10.476562 -2.40625 7.816406 -4.316406 5.890625 -6.765625 C 3.972656 -9.222656 3.019531 -11.988281 3.03125 -15.0625 C 3.03125 -18.6875 4.046875 -21.878906 6.078125 -24.640625 C 8.117188 -27.398438 11.394531 -30.03125 15.90625 -32.53125 C 13.789062 -34.71875 12.257812 -36.800781 11.3125 -38.78125 C 10.375 -40.757812 9.90625 -42.804688 9.90625 -44.921875 C 9.90625 -47.765625 10.65625 -50.269531 12.15625 -52.4375 C 13.664062 -54.613281 15.800781 -56.300781 18.5625 -57.5 C 21.320312 -58.695312 24.515625 -59.296875 28.140625 -59.296875 C 33.210938 -59.296875 37.28125 -58.078125 40.34375 -55.640625 C 43.414062 -53.210938 44.953125 -49.9375 44.953125 -45.8125 C 44.953125 -42.800781 44.039062 -40.125 42.21875 -37.78125 C 40.40625 -35.4375 37.492188 -33.179688 33.484375 -31.015625 L 44.1875 -21.046875 C 45.46875 -23.722656 46.441406 -26.765625 47.109375 -30.171875 L 57.578125 -26.90625 C 56.453125 -21.71875 54.664062 -17.285156 52.21875 -13.609375 L 59.0625 -7.25 Z M 28.140625 -50.421875 C 26.191406 -50.421875 24.644531 -49.921875 23.5 -48.921875 C 22.351562 -47.921875 21.78125 -46.640625 21.78125 -45.078125 C 21.78125 -43.898438 22.085938 -42.796875 22.703125 -41.765625 C 23.316406 -40.734375 24.507812 -39.351562 26.28125 -37.625 C 29.132812 -39.132812 31.117188 -40.488281 32.234375 -41.6875 C 33.347656 -42.882812 33.90625 -44.179688 33.90625 -45.578125 C 33.90625 -47.023438 33.40625 -48.191406 32.40625 -49.078125 C 31.40625 -49.972656 29.984375 -50.421875 28.140625 -50.421875 Z M 26.265625 -9.1875 C 30.335938 -9.1875 33.992188 -10.328125 37.234375 -12.609375 L 23.109375 -25.828125 C 20.484375 -24.328125 18.613281 -22.847656 17.5 -21.390625 C 16.382812 -19.941406 15.828125 -18.300781 15.828125 -16.46875 C 15.828125 -14.289062 16.769531 -12.53125 18.65625 -11.1875 C 20.550781 -9.851562 23.085938 -9.1875 26.265625 -9.1875 Z M 26.265625 -9.1875 "/></g></g></g><g fill="#5da865" fill-opacity="1"><g transform="translate(398.635432, 83.912815)"><g/></g></g><g fill="#5da865" fill-opacity="1"><g transform="translate(427.320861, 87.351293)"><g><path d="M 48.71875 -45.8125 C 53.65625 -44.21875 57.675781 -42.007812 60.78125 -39.1875 C 63.882812 -36.375 65.925781 -33.132812 66.90625 -29.46875 C 67.882812 -25.8125 67.707031 -21.921875 66.375 -17.796875 C 65.0625 -13.710938 62.929688 -10.457031 59.984375 -8.03125 C 57.046875 -5.601562 53.492188 -4.164062 49.328125 -3.71875 C 45.171875 -3.269531 40.625 -3.84375 35.6875 -5.4375 L 24.46875 -9.0625 L 19.515625 6.296875 L 6.609375 2.125 L 24.59375 -53.609375 Z M 38.34375 -16.1875 C 42.226562 -14.9375 45.445312 -14.820312 48 -15.84375 C 50.5625 -16.863281 52.335938 -18.914062 53.328125 -22 C 54.335938 -25.125 54.101562 -27.847656 52.625 -30.171875 C 51.15625 -32.492188 48.476562 -34.28125 44.59375 -35.53125 L 34.109375 -38.921875 L 27.859375 -19.578125 Z M 38.34375 -16.1875 "/></g></g></g><g fill="#5da865" fill-opacity="1"><g transform="translate(488.93206, 107.905584)"><g><path d="M 50.828125 16.375 L 45.453125 25.828125 L 6.03125 3.421875 L 34.953125 -47.5 L 73.4375 -25.625 L 68.078125 -16.171875 L 41.3125 -31.390625 L 35.015625 -20.328125 L 58.640625 -6.890625 L 53.4375 2.28125 L 29.8125 -11.15625 L 23.125 0.625 Z M 50.828125 16.375 "/></g></g></g><g fill="#5da865" fill-opacity="1"><g transform="translate(540.941364, 137.417334)"><g><path d="M 42.390625 20.8125 L 22.046875 2.765625 L 9.828125 8.71875 L -0.5625 -0.5 L 57.828125 -27 L 67.84375 -18.109375 L 48.578125 43.078125 L 37.9375 33.640625 Z M 46.015625 10.28125 L 53.9375 -12.671875 L 32.125 -2.046875 Z M 46.015625 10.28125 "/></g></g></g><g fill="#5da865" fill-opacity="1"><g transform="translate(591.085633, 182.576442)"><g><path d="M 19.75 28.875 C 16.238281 24.050781 14.113281 18.925781 13.375 13.5 C 12.644531 8.070312 13.328125 2.890625 15.421875 -2.046875 C 17.515625 -6.992188 20.910156 -11.171875 25.609375 -14.578125 C 30.296875 -17.992188 35.3125 -19.9375 40.65625 -20.40625 C 46 -20.875 51.132812 -19.921875 56.0625 -17.546875 C 61 -15.171875 65.238281 -11.550781 68.78125 -6.6875 C 71.769531 -2.570312 73.742188 1.664062 74.703125 6.03125 C 75.671875 10.394531 75.625 14.679688 74.5625 18.890625 L 62.953125 16.59375 C 64.316406 10.695312 63.28125 5.382812 59.84375 0.65625 C 57.707031 -2.28125 55.160156 -4.429688 52.203125 -5.796875 C 49.253906 -7.160156 46.160156 -7.648438 42.921875 -7.265625 C 39.679688 -6.878906 36.597656 -5.617188 33.671875 -3.484375 C 30.734375 -1.359375 28.582031 1.179688 27.21875 4.140625 C 25.863281 7.109375 25.378906 10.207031 25.765625 13.4375 C 26.148438 16.664062 27.410156 19.75 29.546875 22.6875 C 32.984375 27.414062 37.738281 30.023438 43.8125 30.515625 L 42.421875 42.265625 C 38.035156 42.015625 33.90625 40.742188 30.03125 38.453125 C 26.164062 36.171875 22.738281 32.976562 19.75 28.875 Z M 19.75 28.875 "/></g></g></g><g fill="#5da865" fill-opacity="1"><g transform="translate(628.812135, 235.541695)"><g><path d="M 31.421875 43.171875 L 21.515625 47.640625 L 2.859375 6.328125 L 56.234375 -17.765625 L 74.453125 22.578125 L 64.546875 27.046875 L 51.859375 -1.03125 L 40.265625 4.203125 L 51.46875 28.984375 L 41.84375 33.328125 L 30.640625 8.546875 L 18.296875 14.125 Z M 31.421875 43.171875 "/></g></g></g><path fill="#5da865" d="M 125.957031 351.375 C 126.648438 350.753906 130.148438 357.441406 130.511719 357.65625 C 128.113281 358.664062 121.128906 356.75 118.777344 359.988281 C 119.707031 366.054688 132.390625 365.398438 136.792969 366.199219 C 136.792969 366.199219 154.800781 389.664062 154.800781 389.664062 C 145.410156 387.9375 132.253906 383.734375 122.804688 391.265625 C 122.175781 391.828125 122.242188 392.910156 122.972656 393.363281 C 134.210938 398.039062 147.09375 397.132812 158.902344 394.976562 C 159.484375 394.226562 164.898438 401.300781 165.328125 401.417969 C 165.550781 401.652344 165.46875 402.078125 165.167969 402.199219 C 162.007812 403.613281 151.867188 408.835938 150.46875 411.871094 C 150.253906 412.320312 150.734375 412.878906 151.214844 412.691406 C 158.898438 410.324219 169.214844 407.980469 176.28125 410.304688 C 175.824219 411.316406 169.246094 417.191406 174.074219 416.070312 C 174.074219 416.070312 190.722656 412.777344 190.722656 412.777344 C 192.734375 412.195312 188.980469 417.542969 189.078125 418.019531 C 189.535156 422.136719 203.601562 414.476562 206.035156 414.476562 C 210.527344 417.734375 215.539062 418.917969 221.070312 418.027344 C 221.410156 417.933594 221.582031 418.5 221.242188 418.605469 C 220.46875 418.828125 217.921875 419.824219 219.398438 420.8125 C 229.691406 426.054688 239.144531 424.40625 248.503906 418.347656 C 260.71875 418.847656 275.417969 420.625 286.871094 425.859375 C 288.65625 428.128906 288.875 431.292969 290.277344 435.023438 C 290.371094 435.652344 291.421875 435.949219 291.371094 435.199219 C 290.523438 428.238281 289.519531 422.316406 288.355469 417.441406 C 280.300781 382.882812 267.335938 349.941406 255.21875 316.5 C 260.484375 318.042969 266.152344 320.105469 272.234375 317.914062 C 285.46875 314.28125 300.066406 303.03125 291.542969 287.566406 C 295.640625 283.289062 302.371094 277.910156 300.558594 271.550781 C 300.429688 270.660156 296.824219 268.308594 297.238281 267.15625 C 300.398438 258.660156 298.671875 249.472656 288.082031 248.871094 C 259.144531 246.671875 276.328125 261.402344 268.175781 225.496094 C 266.699219 219.875 260.152344 221.554688 255.722656 222.25 C 245.632812 217.09375 236.226562 222.101562 233.351562 233.347656 C 200.5625 223.902344 191.472656 262.273438 215.886719 279.363281 C 212.773438 281.035156 210.5625 283.515625 209.257812 286.804688 C 204.710938 284.464844 200.84375 276.847656 197.246094 272.285156 C 198.898438 251.570312 185.636719 241.488281 167.757812 236.21875 C 161.375 254.386719 173.292969 273.46875 193.429688 274.132812 C 198.253906 279.492188 202.953125 285.980469 207.898438 291.269531 C 207.28125 295.59375 210.0625 300.949219 209.882812 304.351562 C 200.277344 303.371094 194.496094 318.960938 202.386719 324.359375 C 202.71875 324.585938 202.691406 324.738281 202.296875 324.824219 C 198.425781 325.15625 195.988281 328.621094 193.277344 330.117188 C 193.277344 330.117188 188.363281 325.972656 188.363281 325.972656 C 188.605469 319.6875 189.621094 312.425781 184.921875 307.039062 C 183.167969 304.839844 181.257812 306.128906 180.464844 308.195312 C 178.542969 310.632812 180.140625 318.183594 178.632812 318.46875 C 178.632812 318.46875 163.984375 309.332031 163.984375 309.332031 C 166.773438 291.199219 147.828125 279.621094 155.957031 305.257812 C 155.957031 305.257812 144.570312 301.804688 144.570312 301.804688 C 132.886719 284.902344 117.214844 316.859375 144.710938 306.09375 C 144.847656 306.496094 155.351562 308.746094 153.726562 309.527344 C 150.691406 311.191406 142.015625 316.53125 145.921875 321.183594 C 152.316406 322.320312 158.308594 318.210938 161.847656 313.035156 C 162.035156 312.75 162.417969 312.667969 162.710938 312.847656 C 162.710938 312.847656 176.492188 321.191406 176.492188 321.191406 C 176.910156 321.441406 176.882812 321.621094 176.414062 321.734375 C 172.167969 322.757812 167.65625 323.542969 164.910156 327.304688 C 163.710938 328.949219 163.964844 330.148438 165.675781 330.898438 C 171.925781 334.03125 179.851562 330.332031 185.523438 328.523438 C 185.738281 328.882812 192.28125 333.304688 191.601562 333.878906 C 188.390625 341.730469 200.386719 343.785156 204.136719 345.464844 C 200.140625 351.367188 204.773438 358.929688 202.4375 366.367188 C 202.039062 366.160156 197.679688 356.371094 196.894531 357.40625 C 195.085938 359.050781 189.992188 348.800781 186.9375 347.761719 C 185.570312 347.40625 186.46875 350.546875 185.273438 349.96875 C 185.273438 349.96875 177.070312 344.425781 177.070312 344.425781 C 176.265625 343.925781 175.960938 345.0625 175.816406 345.628906 C 175.355469 347.175781 152.050781 332.84375 151.347656 333.039062 C 151.15625 332.917969 150.917969 333.175781 151.054688 333.367188 C 153.757812 338.183594 159.289062 342.101562 162.132812 345.921875 C 161.402344 346.519531 158.164062 347.363281 159.480469 348.847656 C 173.898438 365.285156 184.757812 359.21875 174.160156 366.164062 C 169.519531 370.355469 187.761719 367.417969 186.332031 370.34375 C 185.972656 375.792969 200.242188 372.902344 204.011719 372.828125 C 221.230469 382.414062 233.8125 393.574219 250.042969 404.03125 C 244.425781 403.042969 234.621094 398.824219 225.714844 399.046875 C 221.832031 398.566406 216.519531 400.226562 212.589844 399.171875 C 206.84375 389.039062 199.445312 379.699219 187.058594 379.296875 C 185.363281 384.769531 200.320312 392.140625 203.535156 396.265625 C 200.339844 395.03125 171.035156 387.820312 186.238281 396.179688 C 167.425781 398.605469 173.351562 404.375 162.804688 393.15625 C 163.480469 388.773438 163.894531 368.003906 157.964844 366.78125 C 153.816406 369.144531 154.816406 378.117188 153.980469 380.949219 C 154.019531 380.132812 139.3125 364.144531 140.398438 363.296875 C 154.023438 351.160156 142.835938 338.609375 136.183594 358.757812 C 135.570312 360.449219 130.625 350.089844 130.257812 350.171875 C 130.113281 349.929688 130.171875 349.613281 130.398438 349.441406 C 144.648438 338.585938 132.859375 324.929688 127.292969 345.117188 C 127.164062 345.664062 126.964844 345.691406 126.699219 345.199219 C 126.539062 344.6875 123.066406 339.265625 123.636719 338.703125 C 127.605469 328.433594 114.652344 322.570312 112.96875 332.234375 C 111.320312 341.097656 122.28125 339.566406 121.714844 345.222656 C 96.296875 340.917969 109.136719 355.445312 125.949219 351.371094 Z M 189.324219 256.683594 C 189.21875 256.972656 188.902344 257.117188 188.617188 257.011719 C 180.496094 254.433594 182.65625 263.066406 181.757812 266.453125 C 172.007812 260.546875 170.332031 251.222656 170.195312 240.46875 C 176.917969 243.375 184.753906 250.335938 189.324219 256.679688 Z M 265.8125 361.429688 C 272.058594 382.363281 279.53125 401.828125 286.0625 422.15625 C 278.226562 420.003906 269.875 408.933594 265.070312 401.789062 C 262.207031 394.855469 260.375 386.363281 255.324219 380.921875 C 254.847656 380.988281 251.964844 374.53125 251.695312 374.160156 C 251.285156 373.0625 250.425781 374.484375 249.871094 373.921875 C 249.871094 373.921875 235.304688 354.625 235.304688 354.625 C 238.476562 350.476562 237.214844 346.398438 238.613281 341.332031 C 240.367188 337.808594 236.855469 337.324219 237.351562 336.160156 C 240.707031 335.652344 243.980469 325.351562 244.210938 324.320312 C 245.421875 318.703125 238.464844 317.441406 234.699219 316.238281 C 231.109375 313.609375 244.648438 315.859375 248.472656 311.542969 C 255.988281 327.183594 260.617188 345.867188 265.8125 361.433594 Z M 234.589844 331.558594 L 223.671875 330.035156 C 222.125 328.355469 237.1875 331.246094 235.90625 329.128906 C 235.90625 329.128906 224.582031 327.839844 224.582031 327.839844 C 224.417969 327.824219 224.285156 327.699219 224.25 327.539062 C 226.066406 326.242188 229.074219 325.914062 230.65625 323.773438 C 231.097656 321.976562 227.277344 325.671875 226.183594 325.109375 C 225.105469 324.859375 233.46875 320.773438 233.308594 319.171875 C 244.832031 317.625 241.609375 328.039062 238.132812 333.816406 C 235.746094 336.183594 230.570312 334.066406 228.339844 332.285156 C 229.816406 331.953125 234.058594 332.714844 234.589844 331.558594 Z M 232.089844 318.390625 C 231.953125 318.234375 222.339844 324.230469 222.890625 323.195312 C 222.890625 323.195312 227.5 316.28125 227.5 316.28125 C 227.574219 316.160156 227.550781 315.996094 227.445312 315.898438 C 226.902344 315.203125 221.859375 322.480469 221.542969 321.636719 C 219.839844 315.457031 222.644531 308.160156 230.414062 311.246094 C 232.40625 311.691406 231.9375 316.433594 232.371094 317.828125 C 232.402344 318.085938 232.304688 318.273438 232.085938 318.390625 Z M 220.710938 333.976562 C 218.546875 338.253906 213.066406 335.398438 215.328125 331.171875 C 216.269531 329.363281 218.238281 328.523438 219.726562 329.296875 C 221.210938 330.074219 221.652344 332.167969 220.710938 333.976562 Z M 219.097656 340.386719 C 219.8125 340.195312 224.222656 348.507812 224.203125 346.277344 C 223.164062 343.808594 220.910156 340.542969 221.980469 338.019531 C 221.972656 337.90625 222.117188 337.851562 222.40625 337.851562 C 222.765625 334.695312 227.355469 344.40625 228.164062 344.648438 C 227.554688 341.449219 225 338.566406 223.484375 335.675781 C 225.738281 335.957031 227.785156 338.597656 229.3125 340.496094 C 232.601562 342.378906 223.742188 333.273438 224.398438 333.261719 C 225.769531 334.441406 237.378906 337.050781 236.566406 339.914062 C 236.011719 360.429688 224.496094 354.660156 219.097656 340.386719 Z M 226.488281 355.183594 C 226.566406 354.210938 231.910156 355.816406 232.050781 356.332031 C 238.882812 368.636719 245.503906 381.402344 253.085938 393.15625 C 240.773438 385.296875 228.523438 374.234375 219.050781 362.839844 C 218.785156 362.507812 218.851562 362.273438 219.257812 362.136719 C 222.734375 360.949219 225.144531 358.632812 226.488281 355.1875 Z M 254.054688 277.980469 C 242.921875 286.929688 246.035156 266.824219 254.839844 271.425781 C 256.398438 272.816406 256.042969 275.75 254.054688 277.980469 Z M 286.183594 306.246094 C 269.1875 321.339844 241.851562 316.316406 249.953125 289.003906 C 250.40625 288.671875 258.9375 304.714844 259.1875 304.777344 C 260.128906 305.226562 252.070312 286.097656 252.285156 286.003906 C 252.179688 285.691406 252.605469 285.433594 252.828125 285.691406 C 252.828125 285.691406 262.347656 297.570312 262.347656 297.570312 C 262.941406 298.3125 263.085938 298.230469 262.792969 297.332031 C 261.410156 292.324219 258.136719 288.214844 255.378906 283.867188 C 261.789062 286.886719 269.40625 295.125 272.519531 302.429688 C 272.707031 303.003906 273.105469 302.34375 272.945312 302.027344 C 270.28125 293.882812 264.464844 287.171875 258.347656 281.574219 C 266.304688 283.4375 271.71875 288.71875 275.46875 295.988281 C 274.667969 289.8125 270.046875 285.234375 265.746094 281.347656 C 270.472656 282.195312 275.234375 285.863281 279.445312 288.84375 C 280.101562 288.929688 274.929688 282.902344 275.042969 282.808594 C 285.988281 284.582031 299.722656 294.824219 286.183594 306.25 Z M 270.214844 256.132812 C 273.019531 248.105469 295.019531 250.449219 294.941406 258.996094 C 295.234375 263.277344 291.0625 265.707031 294.03125 270.351562 C 299.992188 275.628906 293.488281 283.394531 288.738281 286.40625 C 269.578125 271.058594 270.835938 284.496094 282.652344 268.273438 C 278.582031 270.792969 273.195312 276.046875 268.921875 274.410156 C 275.132812 270.539062 281.15625 265.019531 284.253906 258.726562 C 278.078125 264.640625 269.316406 270.921875 262.015625 273.113281 C 266.3125 268.496094 274.640625 263.417969 277.160156 258.539062 C 277.160156 258.539062 270.070312 264.269531 270.070312 264.269531 C 268.605469 264.796875 274.789062 256.25 274.554688 256.179688 C 274.625 253.347656 265.144531 265.511719 265.417969 264.625 C 266.851562 262.113281 269.011719 259.105469 270.210938 256.136719 Z M 243.449219 224.125 C 248.140625 221.820312 250.53125 225.429688 254.367188 226.574219 C 254.367188 226.574219 262.472656 225.664062 262.472656 225.664062 C 263.539062 225.6875 264.226562 227.734375 264.429688 228.058594 C 268.753906 241.613281 267.300781 254.921875 259.246094 266.5 C 260.414062 258.109375 260.679688 249.378906 257.949219 240.863281 C 257.308594 240.171875 256.941406 257.308594 256.714844 257.34375 C 255.957031 252.625 255.050781 244.890625 252.160156 239.628906 C 252.929688 245.9375 254.9375 254.515625 254.144531 261.816406 C 254.066406 263.332031 253.800781 263.363281 253.351562 261.914062 C 248.257812 240.53125 224.792969 236.945312 243.449219 224.125 Z M 203.683594 253.117188 C 208.097656 221.941406 246.476562 235.882812 248.800781 260.855469 C 248.652344 261.535156 248.042969 260.710938 248.144531 260.296875 C 246.546875 257.160156 243.359375 253.476562 240.65625 251.835938 C 240.65625 251.835938 246.296875 261.285156 246.296875 261.285156 C 246.386719 261.371094 246.179688 261.847656 245.964844 261.800781 C 242.53125 256.140625 238.007812 251.542969 232.398438 248.007812 C 230.605469 246.882812 230.519531 247 232.140625 248.367188 C 237.167969 252.582031 242.015625 259.796875 244.960938 265.527344 C 238.773438 262.777344 231.457031 255.183594 224.457031 251.230469 C 243.449219 269.839844 248.628906 275.53125 221.105469 255.621094 C 225.863281 262.707031 231.773438 266.625 238.273438 271.769531 C 230.886719 270.746094 223.933594 266.222656 218.425781 261.089844 C 219.199219 265.78125 233.839844 273.589844 237.46875 276.054688 C 231.292969 276.402344 224.828125 272.769531 219.894531 268.917969 C 217.777344 267.15625 217.683594 267.257812 219.609375 269.21875 C 225.148438 274.878906 231.691406 278.953125 239.238281 281.445312 C 224.167969 284.292969 202.351562 270.703125 203.679688 253.113281 Z M 217.839844 280.710938 C 241.378906 289.578125 233.683594 282.171875 219.226562 294.457031 C 226.21875 291.6875 236.296875 286.265625 243.734375 286.699219 C 241.464844 289.253906 238.546875 292.363281 237.859375 295.605469 C 242.078125 290.925781 249.527344 277.660156 244.632812 294.242188 C 246.632812 298.03125 245.789062 303.761719 247.710938 307.597656 C 247.929688 308.269531 247.691406 309.007812 247.113281 309.421875 C 243.582031 311.921875 235.414062 315.5 232.796875 309.945312 C 228.964844 307 224.109375 308.382812 221.792969 312.152344 C 213.015625 305.132812 203.554688 288.421875 217.84375 280.710938 Z M 202.820312 309.628906 C 206.300781 303.53125 215.132812 308.714844 217.777344 313.214844 C 219.199219 316.34375 220.339844 322.042969 218.195312 324.550781 C 218.195312 324.550781 215.488281 316.640625 215.488281 316.640625 C 213.941406 317.425781 217.25 322.878906 216.753906 324.835938 C 215.917969 323.558594 208.851562 308.058594 212.855469 319.210938 C 213.351562 321.1875 215.332031 324.675781 214.59375 326.089844 C 214.34375 326.058594 209.714844 318.507812 209.269531 319.265625 C 209.3125 319.375 212.902344 326.375 212.953125 326.488281 C 212.886719 327.753906 210.820312 324.089844 210.648438 324.023438 C 208.84375 325.289062 207.515625 318.679688 207.082031 320.527344 C 206.890625 321.625 209.332031 325.566406 208.195312 325.34375 C 201.121094 321.738281 197.6875 317.398438 202.820312 309.628906 Z M 194.617188 333.722656 C 196.003906 327.160156 205.332031 325.023438 210.242188 328.535156 C 208.59375 329.039062 206.386719 328.410156 204.921875 330.039062 C 204.605469 330.320312 210.960938 330.519531 210.980469 330.617188 C 211.890625 331.320312 205.019531 331.734375 205.636719 332.351562 C 206.164062 332.695312 210.035156 332.492188 208.375 333.75 C 204.605469 333.4375 203.671875 333.3125 201.0625 336.332031 C 200.832031 337.007812 210.054688 335.6875 210.207031 335.832031 C 210.664062 337.328125 210.746094 337.820312 210.449219 337.308594 L 206.523438 341.429688 C 206.3125 341.675781 206.953125 341.71875 206.960938 341.925781 C 206.53125 347.824219 191.738281 339.085938 194.621094 333.722656 Z M 211.398438 338.332031 C 214.347656 339.226562 213.214844 334.867188 215.007812 340.128906 C 215.074219 344.054688 216.242188 349.628906 217.785156 352.601562 C 217.785156 352.601562 216.566406 344.363281 216.566406 344.363281 C 216.257812 342.316406 216.726562 342.121094 217.972656 343.777344 C 218.007812 344.042969 225.5625 353.296875 224.753906 353.449219 C 217.058594 369.253906 194.847656 356.347656 211.398438 338.332031 Z M 232.617188 386.566406 C 224.679688 381.148438 215.007812 375.695312 206.175781 370.152344 C 205.199219 370.121094 207.296875 361.914062 207.144531 361.460938 C 206.75 360.566406 212.605469 362.746094 212.066406 363.210938 C 212.386719 364.191406 211.082031 369.4375 212.632812 369.75 C 216.496094 370.410156 212.546875 361.101562 216.03125 362.917969 C 233.667969 384.871094 257.925781 398.386719 276.972656 418.664062 C 262.03125 408.71875 248.113281 396.679688 232.617188 386.566406 Z M 210.117188 410.953125 C 218.132812 394.128906 258.9375 411.765625 270.664062 418.019531 C 264.390625 415.683594 256.71875 416.617188 250.882812 413.46875 C 241.425781 403.730469 232.414062 408.765625 223.996094 415.78125 C 222.105469 418.300781 210.148438 413.242188 210.117188 410.957031 Z M 210.117188 410.953125 " fill-opacity="1" fill-rule="nonzero"/><path fill="#5da865" d="M 615.367188 504.730469 C 613.929688 503.167969 612.464844 501.800781 610.292969 501.382812 C 610.027344 501.273438 609.898438 500.96875 610.007812 500.707031 C 612.59375 494.484375 609.449219 493.175781 606.628906 489.507812 C 614.703125 480.972656 603.34375 483.859375 599.066406 480.699219 C 602.40625 466.917969 605.882812 465.417969 588.503906 464.753906 C 589.394531 462.058594 592.332031 454.082031 591.324219 451.671875 C 590.085938 447.144531 574.300781 452.796875 574.730469 449.414062 C 576.894531 447.453125 589.695312 437.382812 580.996094 435.789062 C 556.070312 431.226562 531.007812 428.261719 505.632812 428.351562 C 491.003906 427.816406 472.746094 428.390625 458.800781 427.910156 C 469.503906 424.726562 480.390625 422.140625 491.46875 420.148438 C 500.125 419.910156 509.007812 422.019531 517.761719 419.980469 C 519.496094 419.839844 518.78125 418.101562 519.53125 417.605469 C 519.671875 417.441406 536.878906 416.339844 537.011719 416.046875 C 537.554688 413.683594 529.171875 412.636719 527.382812 411.988281 C 526.316406 411.652344 528.300781 410.148438 528.152344 409.484375 C 528.3125 407.332031 515.546875 410.496094 515.582031 408.726562 C 515.640625 408.386719 516.832031 406.117188 515.875 406.226562 C 511.730469 406.433594 506.402344 410.105469 503.125 409.707031 C 503.121094 408.609375 503.132812 407.285156 501.710938 408.164062 C 495.84375 411.953125 491.371094 416.523438 484.289062 417.292969 C 483.359375 417.566406 483.300781 417.441406 484.113281 416.917969 C 491.898438 412.179688 499.574219 406.296875 507.28125 401.804688 C 519.226562 398.8125 531.160156 395.667969 543.078125 392.363281 C 549.527344 395.589844 555.957031 398.222656 562.992188 397.070312 C 565.519531 396.789062 566.085938 395.164062 565.117188 392.554688 C 570.886719 391.257812 578.300781 392.308594 584.597656 391.425781 C 590.1875 391.148438 582.625 387.773438 581.394531 386.761719 C 579.753906 385.582031 605.4375 376.511719 605.523438 375.859375 C 599.117188 373.210938 587.695312 374.804688 581.480469 373.53125 C 582.238281 372.496094 586.507812 369.320312 582.371094 370.054688 C 566.328125 372.015625 562.1875 382.125 563.78125 372.707031 C 561.246094 371.296875 556.976562 377.214844 554.957031 377.109375 C 552.371094 371.871094 545.890625 385.085938 544.367188 387.289062 C 535.9375 391.628906 522.875 393.820312 515.230469 396.257812 C 528.546875 386.765625 539.90625 374.421875 551.335938 363.335938 C 555.351562 364.609375 571.257812 369.316406 571.910156 362.171875 C 570.082031 356.839844 559.519531 357.597656 556.292969 357.242188 C 556.292969 357.242188 564.585938 346.882812 564.585938 346.882812 C 568.984375 346.972656 582.558594 350.308594 585.253906 344.117188 C 582.933594 339.472656 576.214844 338.25 571.117188 338.8125 C 570.738281 338.859375 570.65625 338.730469 570.875 338.421875 C 570.875 338.421875 575.875 331.375 575.875 331.375 C 583.234375 329.742188 595.558594 328.742188 595.691406 318.617188 C 592.910156 316.324219 585.199219 319.4375 582.566406 319.78125 C 582.109375 319.894531 581.996094 319.746094 582.230469 319.335938 L 583.414062 317.289062 C 583.578125 317.003906 583.820312 316.8125 584.132812 316.710938 C 601.019531 315.089844 603.925781 271.636719 586.242188 292.1875 C 576.871094 305.507812 584.820312 313.46875 579.164062 320.082031 C 578.171875 312.882812 575.949219 306.953125 568.269531 304.59375 C 563.15625 307.042969 570.496094 321.402344 573.128906 325.207031 C 575.394531 327.363281 568.089844 334.871094 567.609375 336.75 C 564.992188 332.855469 562.109375 327.523438 555.988281 326.554688 C 555.40625 326.402344 555.039062 326.617188 554.882812 327.203125 C 552.273438 335.238281 556.417969 340.261719 561.105469 345.132812 C 561.105469 345.132812 553.195312 355.222656 553.195312 355.222656 C 551.160156 352.121094 548.9375 338.621094 541.199219 341.191406 C 539.46875 341.738281 538.703125 343.082031 538.90625 345.230469 C 543.742188 368.941406 559.363281 352.109375 527.1875 380.644531 C 533.050781 371.492188 530.457031 366.1875 527.996094 356.441406 C 519.347656 361.707031 518.273438 376.871094 518.484375 386.886719 C 512.238281 393.21875 502.148438 400.699219 495.078125 404.214844 C 496.515625 400.753906 497.980469 397.257812 496.226562 393.507812 C 496.027344 391.167969 496.441406 386.566406 494.933594 385.359375 C 486.035156 393.4375 485.113281 402.296875 483.429688 413.011719 C 469.777344 423.828125 451.855469 429.765625 435.175781 431.902344 C 426.53125 434.3125 444.34375 423.472656 445.488281 421.476562 C 450.273438 422.273438 459.972656 427.390625 464.070312 422.792969 C 463.832031 417.925781 458.9375 414.65625 454.292969 413.921875 C 453.234375 413.957031 459.042969 409.339844 458.960938 409.214844 C 463.460938 407.820312 472.402344 410.40625 474.269531 405.148438 C 475.589844 403.492188 482.613281 401.605469 478.734375 398.933594 C 478.363281 398.601562 476.550781 398.09375 477.257812 397.511719 C 480.988281 394.804688 497.613281 380.917969 486.835938 381.539062 C 488.261719 374.703125 497.402344 371.273438 500.660156 363.285156 C 509.578125 355.121094 511.976562 345.796875 504.902344 334.984375 C 497.210938 339.074219 494.699219 351.433594 499.835938 359.199219 C 498.585938 362.921875 494.21875 368.890625 491.347656 370.519531 C 492.289062 368.640625 497.28125 353.613281 494.132812 355.820312 C 494.132812 355.820312 477.8125 373.109375 477.8125 373.109375 C 477.445312 371.0625 478.203125 367.074219 477.304688 364.40625 C 473.152344 365.609375 467.824219 383.347656 465.933594 388.644531 C 465.835938 388.949219 465.375 388.933594 465.304688 388.617188 C 464.597656 385.46875 463.257812 382.496094 461.019531 380.15625 C 449.769531 408.417969 470.136719 396.714844 436.507812 423.953125 C 447.457031 403.738281 447.535156 385.371094 460.761719 364.195312 C 473.308594 344.992188 481.664062 330.449219 485.285156 308.976562 C 496.0625 344.710938 524.671875 322.054688 547.632812 315.660156 C 552.1875 314.613281 549.707031 309.515625 546.816406 308.136719 C 548.960938 295.296875 552.582031 279.570312 534.554688 280.949219 C 545.171875 268.085938 534.605469 256.984375 524.667969 249.175781 C 519.328125 243.324219 512.011719 249.992188 507.496094 251.78125 C 495.367188 230.808594 477.871094 233.316406 470.882812 255.832031 C 441.371094 228.671875 430.609375 276.222656 456.503906 290.824219 C 463.398438 295.101562 475.1875 299.179688 482.601562 294.746094 C 483.832031 293.976562 485.4375 295.496094 484.597656 296.765625 C 478.4375 305.839844 477.664062 323.992188 471.578125 334.113281 C 470.382812 329.585938 467.667969 326.355469 463.433594 324.421875 C 462.992188 324.222656 462.992188 324.023438 463.445312 323.828125 C 469.851562 321.347656 476.902344 312.035156 467.136719 309.003906 C 466.429688 308.6875 465.972656 307.992188 465.960938 307.222656 C 465.863281 298.230469 453.070312 298.015625 448.378906 303.871094 C 445.542969 298.542969 441.90625 292.898438 435.519531 291.367188 C 429.175781 289.296875 427.035156 295.1875 423.304688 298.734375 C 399.777344 308.035156 435.980469 289.164062 399.574219 276.339844 C 418.621094 257.695312 419.359375 234.027344 385.984375 235.222656 C 374.953125 212.78125 363.488281 223.113281 348.148438 235.648438 C 338.726562 218.574219 307.957031 215.683594 303.402344 239.875 C 301.757812 249.386719 305.109375 258.097656 308.828125 266.746094 C 308.128906 270.378906 305.960938 273.925781 305.429688 277.757812 C 304.378906 287.464844 290.566406 296.589844 300.339844 305.75 C 308.84375 314.90625 320.601562 316.726562 330.496094 310.5 C 330 323.839844 332.328125 337.859375 332.785156 350.710938 C 326.011719 352.542969 318.945312 355.417969 319.292969 363.726562 C 316.453125 374.875 321.476562 383.515625 332.988281 386.78125 C 335.839844 416.265625 339.667969 435.136719 346.414062 460.660156 C 346.328125 461.566406 336.875 452.757812 336.652344 452.898438 C 336.472656 452.75 336.359375 452.566406 336.3125 452.347656 C 334.542969 440.40625 328.332031 429.027344 326.335938 417.570312 C 333.4375 409.09375 324.355469 376.0625 323.757812 402.296875 C 323.144531 403.117188 321.941406 400.746094 321.980469 402.308594 C 321.980469 402.328125 323.257812 413.164062 322.414062 412.289062 C 322.609375 411.441406 307.457031 383.792969 310.3125 383.683594 C 314.074219 380.625 321.550781 369.800781 316.082031 365.933594 C 310.800781 365.964844 308.789062 375.605469 306.738281 377.96875 C 306.839844 377.078125 300.597656 363.503906 301.46875 362.574219 C 305.066406 360.804688 313.921875 345.582031 304.910156 347.472656 C 300.664062 348.933594 299.609375 355.390625 297.800781 357.691406 C 297.800781 357.691406 293.886719 348.230469 293.886719 348.230469 C 293.699219 347.773438 293.792969 347.386719 294.171875 347.066406 C 307.742188 334.964844 296.542969 322.929688 290.882812 342.324219 C 290.042969 342.75 288.558594 336.613281 288.148438 336.414062 C 288.574219 332.210938 289.695312 327.199219 285.746094 324.847656 C 278.96875 320.53125 275.800781 329.890625 279.304688 334.597656 C 280.640625 336.972656 286.777344 338.117188 285.988281 341.636719 C 282.175781 341.074219 270.996094 338.300781 272.53125 344.304688 C 276.765625 349.210938 284.976562 348.210938 290.425781 349.054688 C 290.425781 349.054688 293.433594 355.835938 293.433594 355.835938 C 291.390625 356.332031 284.769531 353.8125 281.949219 356.460938 C 281.179688 356.996094 281.085938 358.175781 281.8125 358.800781 C 285.972656 362.496094 290.871094 364.335938 296.511719 364.324219 C 297.09375 364.324219 297.621094 364.675781 297.847656 365.214844 C 297.847656 365.214844 302.792969 376.957031 302.792969 376.957031 C 302.976562 377.390625 302.867188 377.488281 302.464844 377.242188 C 281.648438 368.75 285.632812 382.015625 305.632812 385.632812 C 306.742188 386.253906 316.601562 408.953125 317.191406 409.960938 C 286.613281 393.554688 285.976562 416.859375 318.175781 414.417969 C 325.898438 424.914062 329.546875 439.046875 334.746094 451.0625 C 314.875 439.335938 287.488281 433.164062 263.160156 435.367188 C 222.058594 437.714844 194.871094 439.148438 157.96875 436.453125 C 154.917969 436.230469 153.894531 438.152344 155.691406 440.617188 C 169.492188 457.253906 150.75 439.410156 153.867188 460.394531 C 153.652344 462.101562 148.328125 460.511719 148.011719 462.113281 C 148.011719 462.113281 147.816406 463.4375 147.816406 463.4375 C 147.78125 463.664062 147.585938 463.824219 147.363281 463.8125 C 144.1875 463.6875 137.90625 462.398438 135.753906 463.542969 C 134.546875 466.980469 136.898438 472.511719 134.425781 475.609375 C 134.425781 475.609375 130.691406 475.992188 130.691406 475.992188 C 129.507812 476.09375 128.6875 477.375 129.132812 478.484375 C 134.929688 489.390625 112.964844 473.695312 120.714844 488.414062 C 120.824219 488.671875 120.703125 488.96875 120.449219 489.078125 C 116.285156 490.964844 117.121094 493.546875 117.203125 497.34375 C 117.210938 497.628906 116.957031 497.863281 116.667969 497.835938 C 111.292969 497.554688 111.179688 502.554688 108.25 505.328125 C 94.726562 509.039062 83.917969 528.453125 103.675781 530.980469 C 177.6875 531.21875 264.359375 525.527344 339.992188 525.488281 C 339.464844 534.753906 347.425781 533.835938 353.5 536.164062 C 363.316406 537.152344 386.433594 538.988281 387.683594 525.28125 C 481.386719 526.804688 538.21875 528.644531 613.457031 530.96875 C 642.101562 534.238281 635.972656 510.714844 615.367188 504.730469 Z M 591.199219 290.042969 C 600.964844 286.679688 592.542969 313.085938 585.648438 312.847656 C 584.910156 313.082031 584.113281 312.585938 584.003906 311.816406 C 582.828125 304.15625 584.617188 294.875 591.199219 290.042969 Z M 503.546875 338.769531 C 505.308594 338.832031 508.457031 353.53125 504.847656 349.632812 C 503.492188 348.035156 502.308594 348.46875 500.96875 349.472656 C 499.402344 346.558594 502.175781 341.808594 503.546875 338.769531 Z M 547.226562 311.769531 C 547.5625 312.085938 547.421875 312.703125 546.960938 312.804688 C 537.386719 315.222656 529.15625 319.136719 519.902344 322.609375 C 505.871094 327.875 493.324219 319.9375 487.839844 307.136719 C 486.816406 304.75 487.785156 302.898438 489.371094 301.191406 C 506.890625 303.492188 532.144531 300.273438 547.222656 311.769531 Z M 540.855469 285.488281 C 548.257812 289.472656 546.105469 299.324219 544.449219 306.449219 C 534.203125 303.953125 522.941406 300.375 511.785156 300.078125 C 520.472656 296.726562 531.402344 280.160156 540.855469 285.484375 Z M 508.984375 255.117188 C 511.042969 251.960938 519.984375 246.59375 522.84375 250.667969 C 524.863281 255.917969 528.488281 257.171875 531.601562 261.132812 C 542.160156 275.511719 515.902344 294.070312 507.199219 294.332031 C 513.273438 290.78125 518.476562 286.046875 522.132812 280.046875 C 516.925781 284.433594 510.507812 290.445312 504.503906 292.675781 C 510.945312 287.367188 517.882812 279.011719 518.25 271.230469 C 513.289062 279.632812 506.71875 286.652344 498.507812 291.9375 C 505.703125 282.839844 513.867188 273.691406 513.839844 261.148438 C 510.414062 270.96875 502.976562 282.667969 492.785156 289.359375 C 500.257812 280.863281 509.503906 267.859375 508.980469 255.117188 Z M 481.097656 293.710938 C 459.664062 297.160156 440.976562 276.464844 447.074219 255.582031 C 449.773438 243.585938 464.824219 252.902344 468.875 258.375 C 469.496094 263.296875 467.554688 268.050781 468.324219 273.109375 C 468.667969 282.507812 474.828125 289.261719 481.097656 293.707031 Z M 485.921875 260.367188 C 481.925781 264.796875 481.183594 274.398438 481.144531 279.230469 C 479.847656 273.902344 479.339844 268.136719 479.710938 262.949219 C 477.191406 267.863281 477.539062 280.496094 480.421875 287.816406 C 471.210938 277.96875 471.933594 259.027344 479.214844 247.527344 C 481.410156 243.929688 489.855469 236.589844 494.152344 241.394531 C 500.921875 248.957031 508.09375 254.316406 505.007812 265.988281 C 502.738281 274.269531 497.894531 279.042969 492.488281 285.171875 C 494.460938 279.613281 499.871094 274.152344 502.140625 268.15625 C 499.816406 268.960938 493.582031 276.496094 491.765625 279.152344 C 493.253906 274.117188 496.023438 269.25 499.109375 264.4375 C 499.234375 264.28125 499.070312 263.921875 498.894531 264.171875 C 495.539062 268.011719 489.621094 272.941406 488.289062 278.566406 C 487.476562 274.550781 490.59375 268.035156 493.457031 264.1875 C 487.601562 268.402344 485.453125 276.773438 485.539062 284.277344 C 482.582031 276.785156 483.359375 268.078125 485.921875 260.363281 Z M 461.0625 353.722656 C 454.246094 366.578125 448.183594 379.773438 442.875 393.3125 C 438.953125 403.304688 435.945312 419.53125 429.679688 433.140625 C 401.160156 441.886719 378.914062 458.734375 365.046875 484.792969 C 365.640625 474.425781 368.632812 464.886719 374.027344 456.175781 C 376.597656 452.019531 381.234375 449.402344 382.957031 444.839844 C 383.785156 441.601562 386.324219 434.125 384.300781 429.5 C 383.886719 429.5625 382.1875 430.710938 382.023438 429.855469 C 382.023438 429.855469 380.050781 420.789062 380.050781 420.789062 C 378.632812 415.933594 374.648438 431.007812 373.988281 432.578125 C 373.800781 433.484375 372.863281 432.585938 372.441406 432.390625 C 369.621094 437.601562 371.242188 446.355469 372.707031 452.527344 C 368.078125 458.847656 363.566406 465.339844 362.886719 473.691406 C 359.410156 448.023438 364.214844 418.515625 382.21875 397.917969 C 389.972656 395.414062 395.167969 388.683594 394.402344 380.710938 C 394.402344 380.710938 400.128906 375.148438 400.128906 375.148438 C 405.675781 379.738281 413.359375 381.363281 420.960938 379.296875 C 421.539062 379.164062 421.890625 378.550781 421.699219 377.988281 C 421.210938 376.847656 420.921875 375.453125 422.582031 375.363281 C 422.25 374.835938 444.925781 374.222656 441.59375 372.1875 C 441.382812 371.808594 431.417969 369.5625 432.476562 368.566406 C 432.9375 368.007812 433.617188 366.800781 432.441406 366.597656 C 425.8125 365.875 419.550781 364.371094 412.894531 364.78125 C 412.246094 364.769531 413.175781 361.953125 413.097656 361.660156 C 404.785156 360.96875 400.445312 372.53125 392.820312 376.617188 C 392.160156 377.246094 390.496094 373.914062 390.097656 373.71875 C 389.878906 373.421875 389.953125 373.289062 390.320312 373.324219 C 393.5 373.644531 396.1875 372.898438 398.390625 371.082031 C 412.953125 359.109375 402.039062 328.515625 381.886719 334.628906 C 381.117188 334.917969 381.5625 333.277344 381.449219 332.957031 C 390.59375 332.6875 396.644531 322.285156 397.027344 313.714844 C 396.90625 312.65625 400.648438 314.097656 401.023438 313.910156 C 401.386719 313.972656 401.441406 314.132812 401.191406 314.402344 C 393.296875 323.207031 409.660156 330.363281 414.867188 332.757812 C 402.800781 351.519531 421.015625 373.804688 440.113281 357.792969 C 442.195312 356.433594 443.710938 353.710938 445.878906 352.765625 C 450.6875 354.894531 456.96875 353.117188 461.066406 353.71875 Z M 350.882812 355.253906 C 348.3125 353.996094 346.503906 348.15625 344.820312 345.539062 C 344.636719 349.941406 350.394531 356.074219 348.425781 359.277344 C 342.136719 354.511719 331.640625 349.980469 335.355469 340.386719 C 337.472656 334.113281 344.6875 322.691406 352.667969 329.746094 C 359.164062 335.488281 361.421875 342.628906 359.441406 351.171875 C 358.449219 352.804688 357.3125 342.230469 356.816406 342.464844 C 356.617188 345.457031 357.53125 349.652344 356.523438 352.675781 C 354.679688 350.84375 353.984375 343.441406 352.339844 339.878906 C 351.3125 338.023438 354.15625 352.703125 353.921875 352.496094 C 353.476562 354.769531 346.820312 340.113281 346.519531 340.316406 C 345.820312 339.953125 351.054688 355.191406 350.882812 355.253906 Z M 339.703125 304.699219 C 342.773438 302.539062 344.6875 298.519531 346.796875 295.574219 C 347.398438 295.976562 343.578125 309.351562 344.304688 309.722656 C 345.140625 310.078125 349.476562 294.90625 349.972656 294.777344 C 351.324219 316.125 351.964844 310.449219 353.125 293.207031 C 356.945312 301.488281 360.742188 312.128906 365.769531 320.65625 C 363.40625 323.421875 359.625 325.835938 358.136719 329.703125 C 358 329.976562 357.832031 329.996094 357.636719 329.757812 C 351.503906 322.410156 345.304688 322.386719 339.042969 329.695312 C 338.128906 330.417969 336.910156 332.964844 336.148438 332.757812 C 336.359375 332.0625 335.167969 304.730469 335.882812 304.230469 C 337.699219 302.257812 341.542969 297.519531 343.195312 297.625 C 343.214844 297.820312 339.523438 304.507812 339.707031 304.699219 Z M 364.074219 294.222656 C 369.96875 298.113281 375.863281 303.886719 380.632812 310.789062 C 378.882812 304.285156 371.15625 295.433594 364.75 289.746094 C 364.601562 289.609375 364.773438 289.324219 364.964844 289.433594 C 370.660156 292.722656 376.761719 296.28125 380.953125 301.277344 C 378.640625 294.78125 369.953125 288.324219 363.78125 284.941406 C 372.34375 285.445312 388.988281 292.121094 391.917969 302.914062 C 394.535156 311.957031 393.136719 320.695312 386.695312 328.015625 C 385.496094 329.375 384.191406 329.742188 382.78125 329.121094 C 365.136719 324.21875 364.910156 308.050781 358.417969 293.964844 C 363.621094 299.054688 368.253906 304.746094 372.691406 310.429688 C 370.847656 304.78125 367.449219 299.265625 364.074219 294.222656 Z M 376.753906 366.480469 C 377.011719 366.214844 384.324219 364.351562 383.8125 363.585938 C 383.347656 362.039062 382.011719 364.632812 381.335938 363.660156 C 381.09375 362.484375 387.605469 361.753906 386.148438 360.296875 C 381.578125 362.433594 376.976562 361.84375 372.253906 362.09375 C 374.308594 360.527344 379.484375 358.382812 381.441406 356.585938 C 383.257812 354.894531 372.703125 360.308594 372.867188 360.011719 C 370.898438 359.289062 378.191406 354.371094 377.226562 353.285156 C 375.136719 355.570312 369.210938 359.132812 366.023438 358.789062 C 363.300781 356.988281 373.015625 344.566406 371.886719 338.238281 C 371.808594 335.714844 365.816406 352.164062 365.453125 352.320312 C 364.636719 352.953125 369.535156 339.371094 369.617188 338.023438 C 367.707031 341.257812 366.542969 347.671875 363.644531 351.210938 C 363.414062 344.605469 361.082031 337.832031 359.402344 331.574219 C 368.148438 318.609375 366.070312 325.566406 376.96875 329.382812 C 378.84375 339.644531 371.410156 349.628906 365.800781 357.679688 C 376.628906 356.976562 379.007812 347.507812 381.183594 338.378906 C 407.042969 329.414062 412.078125 387.6875 376.753906 366.476562 Z M 377.003906 363.160156 C 377.398438 363.121094 378.667969 362.691406 378.398438 363.554688 C 378.320312 364.445312 375.941406 363.355469 377.003906 363.160156 Z M 360.09375 279.5 C 357.765625 287.402344 343.042969 282.757812 345.671875 274.949219 C 348 267.050781 362.71875 271.691406 360.09375 279.5 Z M 355.382812 358.808594 C 360.253906 353.960938 366.269531 360.144531 361.289062 364.882812 C 356.414062 369.726562 350.398438 363.542969 355.382812 358.808594 Z M 359.207031 375.476562 C 361.753906 377.3125 365.253906 384.179688 366.769531 384.3125 C 366.820312 383.972656 360.886719 372.417969 361.398438 372.128906 C 365.402344 375.601562 368.175781 381.210938 371.570312 385.433594 C 372.445312 385.421875 365.171875 373 365.304688 372.71875 C 365.0625 372.3125 365.707031 372.335938 365.839844 372.59375 C 367.363281 374.824219 372.53125 380.085938 375.441406 379.683594 C 373.867188 378.289062 369.402344 375.085938 369.773438 372.460938 C 369.773438 372.460938 375.09375 375.136719 375.09375 375.136719 C 376.785156 374.640625 369.078125 371.757812 369.195312 369.773438 C 372.292969 370.703125 380.207031 371.765625 383.351562 372.484375 C 411.769531 387.40625 360.058594 414.269531 359.207031 375.476562 Z M 428.476562 335.371094 C 428.5 335.691406 428.585938 335.710938 428.734375 335.425781 C 428.933594 335.34375 430.691406 330.976562 431.078125 331.316406 C 430.707031 334.296875 429.34375 337.664062 429.730469 340.988281 C 430.445312 340.726562 432.785156 327.425781 434.632812 329.800781 C 434.214844 331.679688 432.292969 345.933594 433.523438 343.683594 C 433.523438 343.683594 437.292969 330.117188 437.292969 330.117188 C 437.8125 329.621094 436.824219 341.65625 436.984375 341.675781 C 438.527344 341.050781 438.890625 336.234375 440.203125 334.308594 C 442.953125 328.027344 441.578125 340.136719 442.207031 341.863281 C 443.699219 340.8125 442.792969 336.242188 443.726562 334.085938 C 456.398438 343.554688 435.519531 365.574219 422.363281 360.804688 C 411.445312 357.832031 411.746094 342.164062 417.226562 334.851562 C 420.128906 330.988281 426.382812 328.675781 430.859375 326.933594 C 432.394531 326.285156 427.339844 332.886719 428.472656 335.375 Z M 436.34375 320.917969 C 437.171875 319.667969 439.214844 319.566406 440.914062 320.6875 C 442.609375 321.808594 443.316406 323.730469 442.488281 324.984375 C 441.660156 326.230469 439.613281 326.335938 437.917969 325.210938 C 436.222656 324.089844 435.515625 322.164062 436.34375 320.914062 Z M 467.28125 343.90625 C 464.160156 351.519531 453.910156 352.707031 447.824219 350.585938 C 451.347656 343.644531 450.414062 337.113281 446.679688 330.621094 C 452.171875 332.421875 456.535156 339.382812 459.898438 342.773438 C 458.0625 336.246094 451.421875 331.34375 447.851562 327.699219 C 447.851562 327.699219 456.785156 332.726562 456.785156 332.726562 C 455.785156 330.609375 452.730469 328.558594 450.585938 327.042969 C 446.535156 324.097656 460.390625 330.367188 461.15625 329.382812 C 461.15625 329.382812 448.824219 323.492188 448.824219 323.492188 C 459.824219 323.722656 473.457031 330.070312 467.285156 343.902344 Z M 459.160156 303.097656 C 463.945312 305.210938 461.832031 310.683594 467.449219 312.425781 C 468.507812 313.023438 468.886719 314.367188 468.285156 315.429688 C 463.566406 323.617188 455.992188 318.414062 448.925781 320.921875 C 447.578125 320.316406 457.15625 318.445312 455.421875 317.707031 C 452.953125 317.464844 450.304688 318.410156 448.179688 318.765625 C 449.105469 317.441406 451.28125 316.734375 452.609375 315.589844 C 453.417969 313.945312 448.535156 317.015625 448.332031 316.890625 C 448.269531 314.832031 454.183594 313.652344 455.453125 312.164062 C 452.71875 311.570312 449.207031 313.664062 446.613281 314.949219 C 446.898438 308.980469 449.847656 298.6875 459.160156 303.097656 Z M 418.101562 303.257812 C 422.035156 301.765625 425.265625 301.703125 427.835938 297.742188 C 432.417969 290.6875 441.183594 297.023438 444.757812 301.675781 C 447.769531 305.535156 444.863281 310.867188 443.773438 315.269531 C 442.910156 315.585938 434.59375 302.226562 435.320312 305.394531 C 435.414062 306.964844 438.699219 316.421875 436.058594 311.1875 C 436.058594 311.1875 430.710938 306.1875 430.710938 306.1875 C 430.015625 308.46875 433.84375 312.785156 435.054688 315.410156 C 435.023438 315.035156 416.867188 303.992188 418.101562 303.257812 Z M 413.433594 304.183594 C 413.515625 304.414062 433.089844 316.964844 432.882812 317.339844 C 429.128906 316.90625 423.199219 315.527344 420.148438 317.351562 C 420.148438 317.351562 431.664062 319.121094 431.664062 319.121094 C 432.097656 319.160156 431.554688 319.601562 431.367188 319.613281 C 427.117188 318.910156 416.460938 319.523438 414.78125 322.914062 C 418.050781 322.042969 423.386719 320.996094 425.9375 322.246094 C 421.632812 323.816406 419.574219 329.53125 415.699219 330.621094 C 409.089844 329.179688 395.996094 320.3125 405.242188 314.140625 C 410.199219 311.996094 411.4375 308.265625 413.425781 304.183594 Z M 412.328125 293.363281 C 409.949219 300.6875 408.007812 312.332031 397.605469 310.226562 C 395.242188 299.953125 393.753906 291.851562 382.875 286.628906 C 379.867188 284.601562 394.96875 290.0625 396.660156 290.757812 C 391.125 285.113281 378.800781 280.355469 369.230469 279.308594 C 377.632812 276.058594 413.015625 276.199219 412.332031 293.363281 Z M 398.34375 240.023438 C 417.695312 244.472656 406.695312 266.726562 395.585938 274.734375 C 387.675781 273.800781 373.003906 274.566406 368.261719 274.46875 C 377.414062 273.121094 386.542969 271.339844 395.648438 269.128906 C 396.964844 268.808594 396.945312 268.636719 395.585938 268.613281 C 386.582031 268.453125 374.464844 268.808594 365.8125 272.484375 C 372 267.066406 389.507812 260.839844 400.28125 256.359375 C 390.59375 257.410156 375.835938 263.417969 366.488281 269.796875 C 372.570312 261.46875 385.359375 254.753906 392.753906 248.773438 C 380.914062 251.609375 372.042969 260.796875 363.203125 267.4375 C 368.363281 260.667969 375.085938 254.980469 377.199219 252.277344 C 373.871094 252.660156 365.445312 261.09375 362.75 263.015625 C 367.1875 255.363281 373.835938 248.75 380.652344 243.058594 C 387.644531 237.40625 389.546875 237.03125 398.34375 240.023438 Z M 344.855469 246.605469 C 346.15625 237.300781 363.863281 223.445312 373 224.621094 C 376.65625 225.222656 382.703125 233.992188 383.265625 237.453125 C 373.335938 243.429688 366.273438 252.746094 359.945312 262.214844 C 362.238281 255.351562 368.515625 244.558594 368.128906 237.308594 C 364.140625 246.460938 359.335938 255.457031 353.265625 263.285156 C 355.210938 258.007812 357.285156 252.523438 358.472656 246.910156 C 358.097656 246.097656 350.949219 262.78125 350.644531 262.417969 C 350.644531 262.417969 351.835938 249.105469 351.835938 249.105469 C 351.859375 248.785156 351.378906 248.671875 351.257812 248.972656 C 351.257812 248.972656 346.621094 261.652344 346.621094 261.652344 C 344.242188 258.640625 344.5 250.332031 344.851562 246.605469 Z M 309.238281 234.007812 C 316.960938 220.21875 338.246094 224.96875 344.449219 238.054688 C 339.597656 245.957031 339.390625 255.75 342.890625 264.191406 C 344.023438 269.097656 323.382812 247.886719 321.378906 245.902344 C 325.210938 253.96875 332.523438 260.703125 338.371094 266.679688 C 333.90625 264.453125 327.359375 260.867188 323.386719 260.371094 C 326.097656 262.832031 329.472656 264.675781 332.308594 266.757812 C 326.597656 265.84375 317.9375 262.390625 312.132812 265.140625 C 307.511719 256.976562 304.214844 243.261719 309.242188 234.003906 Z M 329.515625 305.039062 C 320.726562 314.007812 309.097656 310.660156 301.949219 301.765625 C 297.980469 296.835938 303.675781 291.550781 305.945312 287.402344 C 308.320312 283.070312 309.332031 278.035156 310.640625 273.140625 C 313.203125 261.902344 331.722656 270.488281 335.832031 274.679688 C 320.203125 276.144531 320.515625 277.359375 335.539062 277.589844 C 332.546875 279.507812 326.644531 280.578125 322.949219 282.90625 C 320.183594 284.988281 335.855469 281.96875 337.585938 281.570312 C 346.667969 279.195312 310.15625 296.144531 307.511719 296.410156 C 316.460938 296.226562 327.585938 289.414062 335.511719 287.503906 C 335.511719 287.503906 321.882812 299.683594 321.882812 299.683594 C 320.59375 300.835938 320.714844 301.007812 322.246094 300.203125 C 328.066406 297.628906 334.089844 291.355469 340.519531 287.785156 C 340.503906 287.980469 335.507812 294.59375 336.097656 294.714844 C 336.34375 295.3125 341.589844 289.167969 341.789062 289.15625 C 339.355469 294.90625 333.179688 300.828125 329.519531 305.039062 Z M 322.914062 375.925781 C 319.816406 371.59375 323.027344 367.1875 322.746094 362.003906 C 322.441406 356.398438 331.011719 354.253906 335.148438 353.648438 C 335.816406 353.453125 346.347656 362.996094 346.867188 363.160156 C 347.464844 364.136719 336.546875 361.046875 336.480469 361.273438 C 334.617188 361.695312 344.035156 364.890625 343.894531 365.089844 C 339.730469 366.597656 331.921875 365.226562 326.722656 364.523438 C 334.03125 369.441406 340.992188 369.238281 349.667969 368.753906 C 346.035156 371.578125 338.15625 373.054688 333.867188 376.40625 C 332.476562 378.519531 348.589844 371.277344 348.582031 371.671875 C 338.894531 380.179688 333.960938 390.453125 322.914062 375.925781 Z M 338.671875 386.015625 C 338.410156 385.660156 346.136719 379 346.324219 378.683594 C 346.570312 378.421875 347.015625 378.753906 346.828125 379.066406 C 346.828125 379.066406 344.523438 383.425781 344.523438 383.425781 C 344.226562 384.082031 345.261719 383.566406 345.40625 383.238281 C 348.246094 378.878906 352.582031 376.082031 354.722656 371.476562 C 356.589844 382.105469 359.054688 391.792969 369.324219 398.535156 C 361.554688 416.085938 336.363281 401.683594 338.671875 386.015625 Z M 343.957031 424.960938 C 342.363281 415.941406 340.261719 406.675781 339.523438 397.695312 C 347.382812 408.554688 362.535156 413.925781 370.4375 398.945312 C 371.445312 397.9375 373.125 399.300781 374.378906 399.042969 C 374.878906 399.042969 374.976562 399.242188 374.679688 399.636719 C 357.144531 422.121094 356.746094 450.824219 358.566406 476.835938 C 354.566406 458.664062 346.429688 444.890625 343.957031 424.960938 Z M 356.792969 472.789062 C 354.355469 471.375 351.695312 465.648438 348.679688 463.199219 C 347.914062 461.84375 348.414062 460.050781 347.65625 458.605469 C 346.082031 453.214844 355.820312 471.054688 356.792969 472.789062 Z M 141.128906 466.355469 C 190.078125 470.46875 233.578125 464.691406 286.085938 465.996094 C 238.710938 468.117188 189.375 471.1875 141.457031 473.140625 C 140.347656 473.53125 141.4375 466.613281 141.128906 466.355469 Z M 343.839844 516.726562 C 264.0625 515.785156 177.519531 525.332031 100.722656 520.773438 C 103.800781 515.113281 109.199219 511.644531 115.617188 513.363281 C 189.597656 514.871094 263.410156 513.085938 337.351562 515.1875 C 264.292969 503.144531 188.078125 514.046875 114.960938 510.210938 C 114.914062 506.972656 113.695312 502.53125 118.679688 502.65625 C 176.941406 505.574219 234.871094 503.035156 293.28125 506.828125 C 310.070312 508.632812 329.007812 509.335938 343.835938 516.722656 Z M 624.441406 522.695312 C 541.488281 519.695312 453.933594 516.976562 382.6875 516.984375 C 379.707031 518 378.078125 520.066406 377.792969 523.1875 C 369.699219 524.542969 358.542969 524.710938 350.609375 522.941406 C 325.695312 488.804688 168.828125 504.152344 121.847656 500.242188 C 121.566406 500.25 121.445312 500.109375 121.472656 499.832031 C 121.472656 499.832031 121.980469 494.4375 121.980469 494.4375 C 190.109375 500.152344 265.296875 486.582031 332.617188 507.1875 C 338.394531 508.8125 344.410156 513.257812 349.265625 514.921875 C 330.679688 502.761719 316.171875 498.359375 294.960938 495.308594 C 238.90625 489.082031 182.25 493.765625 125.992188 493.019531 C 125.175781 491.195312 125.960938 487.964844 124.425781 485.851562 C 197.671875 490.4375 287.464844 458.929688 351.695312 507.519531 C 329.53125 475.375 274.101562 476.507812 235.742188 478.472656 C 203.304688 481.390625 168.648438 481.082031 135.789062 482.726562 C 135.464844 482.742188 135.175781 482.519531 135.113281 482.203125 L 134.527344 479.371094 C 134.4375 478.925781 134.617188 478.660156 135.0625 478.570312 C 137.351562 478.386719 138.832031 476.609375 140.703125 475.699219 C 163.808594 476.433594 186.828125 475.539062 209.765625 473.011719 C 259.515625 468.515625 334.035156 460.054688 359.394531 512.792969 C 328.832031 430.722656 212.148438 478.054688 157.855469 462.648438 C 162.078125 449.003906 151.441406 452.242188 169.949219 451.175781 C 201.089844 450.769531 229.714844 447.320312 259.433594 444.371094 C 228.882812 445.40625 196.710938 447.929688 165.996094 446.613281 C 165.996094 446.613281 162.472656 441.417969 162.472656 441.417969 C 162.238281 441.0625 162.332031 440.894531 162.757812 440.917969 C 194.488281 442.671875 225.195312 440.101562 256.265625 438.195312 C 300.9375 433.125 356.234375 452.777344 362.105469 503.625 C 362.082031 503.882812 362.359375 504.652344 362.496094 504.4375 C 387.878906 408.421875 502.820312 430.753906 577.441406 439.546875 C 577.75 439.582031 577.800781 439.714844 577.59375 439.945312 C 577.710938 440.054688 568.109375 449.964844 568.847656 449.929688 C 502.730469 451.640625 397.242188 421.796875 367.507812 500.238281 C 396.457031 448.492188 459.578125 443.191406 512.632812 450.769531 C 536.972656 453.785156 562.597656 453.757812 586.476562 454.597656 C 586.476562 454.597656 582.988281 466.480469 582.988281 466.480469 C 560.75 466.496094 537.480469 463.640625 514.921875 463.355469 C 542.289062 467.792969 570.171875 470.046875 598.0625 470.839844 C 598.0625 470.839844 594.769531 483.34375 594.769531 483.34375 C 594.605469 485.125 554.464844 481.582031 553.671875 482.132812 C 568 483.976562 586.671875 485.914062 603.722656 486.03125 C 604.292969 486.03125 604.355469 486.210938 603.917969 486.574219 C 601.792969 487.632812 602.296875 490.382812 601.042969 491.546875 C 523.972656 487.9375 430.464844 460.289062 365.890625 516.164062 C 431.226562 467.003906 522.59375 490.148438 597.910156 494.898438 C 607.769531 496.285156 607.285156 491.125 605.835938 503.367188 C 525.179688 501.359375 429.207031 479.074219 371.304688 518.246094 C 446.425781 487.257812 532.710938 503.554688 611.078125 507.667969 C 610.464844 511.609375 611.414062 512.546875 606.558594 512.015625 C 532.835938 510.667969 453.957031 493.484375 382.6875 516.988281 C 445.707031 503.964844 524.105469 511.335938 584.535156 512.296875 C 597.445312 513.433594 606.609375 511.609375 616.464844 513.960938 C 618.464844 514.898438 627.023438 520.011719 624.445312 522.699219 Z M 624.441406 522.695312 " fill-opacity="1" fill-rule="nonzero"/><path fill="#5da865" d="M 434.140625 383.066406 C 430.457031 384.445312 427.640625 389.289062 424.78125 390.347656 C 422.640625 384.347656 420.761719 393.488281 419.40625 395.359375 C 418.953125 397.273438 417.015625 395.96875 416.25 397.085938 C 415.957031 397.382812 415.117188 402.292969 414.222656 401.628906 C 408.792969 397.742188 415.390625 430.226562 403.230469 439.65625 C 414.085938 435.347656 424.320312 416.289062 430.691406 403.925781 C 430.683594 402.542969 428.09375 404.167969 429.027344 401.414062 C 430.195312 395.574219 434.152344 388.246094 434.140625 383.066406 Z M 434.140625 383.066406 " fill-opacity="1" fill-rule="nonzero"/><path fill="#5da865" d="M 404.378906 422.496094 C 401.507812 422.867188 398.34375 427.960938 394.90625 429.355469 C 388.410156 433.519531 391.835938 442.070312 387.921875 444.820312 C 383.535156 447.898438 378.632812 450.710938 376.664062 455.96875 C 376.519531 456.320312 376.957031 456.679688 377.269531 456.441406 C 382.875 452.691406 388.175781 448.550781 393.167969 444.011719 C 404.09375 442.320312 407.753906 432.402344 404.378906 422.496094 Z M 404.378906 422.496094 " fill-opacity="1" fill-rule="nonzero"/><path fill="#5da865" d="M 359.675781 501.582031 C 335.226562 415.09375 227.957031 460.445312 163.347656 455.335938 C 160.023438 455.363281 160.019531 455.476562 163.335938 455.683594 C 169.8125 456.089844 176.726562 456.214844 184.078125 456.058594 C 246.765625 456.570312 336.679688 431.121094 359.675781 501.582031 Z M 359.675781 501.582031 " fill-opacity="1" fill-rule="nonzero"/><path fill="#5da865" d="M 392.4375 478.140625 C 448.417969 443.699219 510.519531 461.242188 574.257812 462.6875 C 577.636719 463.722656 587.023438 459.378906 578.75 459.109375 C 519.027344 460.636719 424.644531 438.117188 392.4375 478.144531 Z M 392.4375 478.140625 " fill-opacity="1" fill-rule="nonzero"/><path fill="#5da865" d="M 256.035156 456.742188 C 290.726562 456 328.621094 461.570312 352.585938 491.730469 C 339.253906 457.925781 289.433594 453.761719 256.035156 456.742188 Z M 256.035156 456.742188 " fill-opacity="1" fill-rule="nonzero"/><path fill="#5da865" d="M 364.953125 512.898438 C 414.746094 450.941406 490.3125 468.886719 564.121094 475.515625 C 571.203125 476.019531 582.742188 477.3125 594.375 476.605469 C 588.03125 475.800781 581.097656 475.804688 575.121094 475.066406 C 507.777344 469.535156 405.734375 442.714844 364.953125 512.902344 Z M 364.953125 512.898438 " fill-opacity="1" fill-rule="nonzero"/><path fill="#5da865" d="M 428.609375 479.351562 C 464.0625 471.96875 499.070312 475.710938 535.203125 475.3125 C 474.382812 469.808594 406.195312 462.792969 363.113281 516.722656 C 380.765625 497.855469 402.792969 484.851562 428.609375 479.351562 Z M 428.609375 479.351562 " fill-opacity="1" fill-rule="nonzero"/><g fill="#5da865" fill-opacity="1"><g transform="translate(172.32365, 620.431831)"><g><path d="M 3.84375 3.421875 C 3 2.753906 2.515625 1.910156 2.390625 0.890625 C 2.265625 -0.128906 2.539062 -1.070312 3.21875 -1.9375 C 3.914062 -2.820312 4.757812 -3.3125 5.75 -3.40625 C 6.75 -3.5 7.671875 -3.210938 8.515625 -2.546875 C 9.347656 -1.890625 9.835938 -1.066406 9.984375 -0.078125 C 10.140625 0.910156 9.867188 1.847656 9.171875 2.734375 C 8.492188 3.597656 7.644531 4.09375 6.625 4.21875 C 5.601562 4.34375 4.675781 4.078125 3.84375 3.421875 Z M 3.84375 3.421875 "/></g></g></g><g fill="#5da865" fill-opacity="1"><g transform="translate(184.541162, 629.878458)"><g/></g></g><g fill="#5da865" fill-opacity="1"><g transform="translate(197.919327, 639.126928)"><g><path d="M 4.171875 3 C 3.253906 2.425781 2.679688 1.632812 2.453125 0.625 C 2.234375 -0.382812 2.414062 -1.347656 3 -2.265625 C 3.59375 -3.222656 4.378906 -3.796875 5.359375 -3.984375 C 6.347656 -4.179688 7.300781 -3.992188 8.21875 -3.421875 C 9.113281 -2.859375 9.679688 -2.09375 9.921875 -1.125 C 10.171875 -0.15625 10 0.804688 9.40625 1.765625 C 8.820312 2.679688 8.023438 3.253906 7.015625 3.484375 C 6.015625 3.722656 5.066406 3.5625 4.171875 3 Z M 4.171875 3 "/></g></g></g><g fill="#5da865" fill-opacity="1"><g transform="translate(211.058428, 647.243)"><g/></g></g><g fill="#5da865" fill-opacity="1"><g transform="translate(225.331054, 655.040528)"><g><path d="M 4.453125 2.546875 C 3.492188 2.066406 2.847656 1.335938 2.515625 0.359375 C 2.179688 -0.617188 2.253906 -1.597656 2.734375 -2.578125 C 3.234375 -3.585938 3.960938 -4.238281 4.921875 -4.53125 C 5.878906 -4.820312 6.835938 -4.726562 7.796875 -4.25 C 8.753906 -3.78125 9.410156 -3.078125 9.765625 -2.140625 C 10.117188 -1.210938 10.046875 -0.242188 9.546875 0.765625 C 9.066406 1.742188 8.335938 2.398438 7.359375 2.734375 C 6.378906 3.078125 5.410156 3.015625 4.453125 2.546875 Z M 4.453125 2.546875 "/></g></g></g><g fill="#5da865" fill-opacity="1"><g transform="translate(239.247443, 661.736967)"><g/></g></g><g fill="#5da865" fill-opacity="1"><g transform="translate(254.509847, 668.351397)"><g><path d="M 24.78125 2.96875 L 23.15625 7.78125 L 3.078125 1.03125 L 11.796875 -24.90625 L 31.390625 -18.3125 L 29.765625 -13.5 L 16.125 -18.09375 L 14.234375 -12.453125 L 26.28125 -8.40625 L 24.71875 -3.734375 L 12.671875 -7.78125 L 10.65625 -1.78125 Z M 24.78125 2.96875 "/></g></g></g><g fill="#5da865" fill-opacity="1"><g transform="translate(285.040135, 678.254497)"><g><path d="M 11.828125 3.125 C 9.710938 2.65625 7.734375 1.910156 5.890625 0.890625 C 4.054688 -0.117188 2.644531 -1.21875 1.65625 -2.40625 L 4.796875 -6.578125 C 5.742188 -5.472656 6.945312 -4.488281 8.40625 -3.625 C 9.875 -2.769531 11.394531 -2.171875 12.96875 -1.828125 C 14.726562 -1.429688 16.085938 -1.398438 17.046875 -1.734375 C 18.003906 -2.066406 18.582031 -2.664062 18.78125 -3.53125 C 18.914062 -4.164062 18.78125 -4.75 18.375 -5.28125 C 17.96875 -5.8125 17.40625 -6.289062 16.6875 -6.71875 C 15.976562 -7.144531 15 -7.660156 13.75 -8.265625 C 11.820312 -9.191406 10.265625 -10.039062 9.078125 -10.8125 C 7.890625 -11.582031 6.945312 -12.601562 6.25 -13.875 C 5.5625 -15.15625 5.414062 -16.6875 5.8125 -18.46875 C 6.15625 -20.019531 6.882812 -21.332031 8 -22.40625 C 9.125 -23.476562 10.613281 -24.191406 12.46875 -24.546875 C 14.332031 -24.910156 16.488281 -24.820312 18.9375 -24.28125 C 20.632812 -23.894531 22.253906 -23.316406 23.796875 -22.546875 C 25.335938 -21.773438 26.628906 -20.875 27.671875 -19.84375 L 24.71875 -15.5625 C 22.5625 -17.519531 20.25 -18.78125 17.78125 -19.34375 C 16.050781 -19.726562 14.710938 -19.726562 13.765625 -19.34375 C 12.816406 -18.96875 12.238281 -18.328125 12.03125 -17.421875 C 11.820312 -16.492188 12.140625 -15.703125 12.984375 -15.046875 C 13.835938 -14.390625 15.203125 -13.625 17.078125 -12.75 C 19.003906 -11.8125 20.5625 -10.957031 21.75 -10.1875 C 22.9375 -9.414062 23.875 -8.40625 24.5625 -7.15625 C 25.257812 -5.90625 25.410156 -4.394531 25.015625 -2.625 C 24.671875 -1.09375 23.929688 0.207031 22.796875 1.28125 C 21.660156 2.351562 20.15625 3.0625 18.28125 3.40625 C 16.414062 3.757812 14.265625 3.664062 11.828125 3.125 Z M 11.828125 3.125 "/></g></g></g><g fill="#5da865" fill-opacity="1"><g transform="translate(315.123801, 684.668173)"><g><path d="M 11.5 -20.984375 L 2.8125 -22.03125 L 3.421875 -27.140625 L 27.09375 -24.28125 L 26.484375 -19.171875 L 17.78125 -20.21875 L 15.125 1.828125 L 8.84375 1.0625 Z M 11.5 -20.984375 "/></g></g></g><g fill="#5da865" fill-opacity="1"><g transform="translate(344.619019, 687.755711)"><g/></g></g><g fill="#5da865" fill-opacity="1"><g transform="translate(361.161569, 688.492519)"><g><path d="M 21.796875 -5.84375 L 21.953125 -0.6875 L 1.296875 -0.046875 L 1.171875 -4.15625 L 11.40625 -14.4375 C 12.488281 -15.539062 13.210938 -16.476562 13.578125 -17.25 C 13.941406 -18.019531 14.113281 -18.785156 14.09375 -19.546875 C 14.0625 -20.640625 13.664062 -21.46875 12.90625 -22.03125 C 12.144531 -22.601562 11.046875 -22.867188 9.609375 -22.828125 C 8.410156 -22.785156 7.335938 -22.519531 6.390625 -22.03125 C 5.441406 -21.539062 4.660156 -20.832031 4.046875 -19.90625 L -0.65625 -22.734375 C 0.351562 -24.347656 1.78125 -25.632812 3.625 -26.59375 C 5.476562 -27.550781 7.617188 -28.070312 10.046875 -28.15625 C 12.078125 -28.21875 13.859375 -27.9375 15.390625 -27.3125 C 16.921875 -26.695312 18.128906 -25.796875 19.015625 -24.609375 C 19.910156 -23.429688 20.382812 -22.019531 20.4375 -20.375 C 20.476562 -18.882812 20.207031 -17.476562 19.625 -16.15625 C 19.039062 -14.84375 17.875 -13.328125 16.125 -11.609375 L 10.046875 -5.46875 Z M 21.796875 -5.84375 "/></g></g></g><g fill="#5da865" fill-opacity="1"><g transform="translate(390.041221, 687.383351)"><g><path d="M 13.203125 -1.28125 C 10.941406 -0.976562 8.859375 -1.265625 6.953125 -2.140625 C 5.054688 -3.015625 3.472656 -4.441406 2.203125 -6.421875 C 0.929688 -8.398438 0.0976562 -10.84375 -0.296875 -13.75 C -0.679688 -16.675781 -0.519531 -19.253906 0.1875 -21.484375 C 0.894531 -23.722656 2.050781 -25.515625 3.65625 -26.859375 C 5.269531 -28.203125 7.207031 -29.023438 9.46875 -29.328125 C 11.707031 -29.628906 13.78125 -29.34375 15.6875 -28.46875 C 17.59375 -27.59375 19.179688 -26.164062 20.453125 -24.1875 C 21.722656 -22.21875 22.550781 -19.769531 22.9375 -16.84375 C 23.332031 -13.9375 23.175781 -11.363281 22.46875 -9.125 C 21.757812 -6.882812 20.597656 -5.09375 18.984375 -3.75 C 17.367188 -2.40625 15.441406 -1.582031 13.203125 -1.28125 Z M 12.5 -6.59375 C 14.144531 -6.8125 15.34375 -7.691406 16.09375 -9.234375 C 16.84375 -10.785156 17.019531 -13.039062 16.625 -16 C 16.226562 -18.976562 15.460938 -21.113281 14.328125 -22.40625 C 13.203125 -23.695312 11.816406 -24.234375 10.171875 -24.015625 C 8.535156 -23.796875 7.34375 -22.914062 6.59375 -21.375 C 5.84375 -19.832031 5.664062 -17.570312 6.0625 -14.59375 C 6.457031 -11.632812 7.21875 -9.503906 8.34375 -8.203125 C 9.476562 -6.910156 10.863281 -6.375 12.5 -6.59375 Z M 12.5 -6.59375 "/></g></g></g><g fill="#5da865" fill-opacity="1"><g transform="translate(422.075334, 682.729811)"><g><path d="M 20.1875 -10.109375 L 21.375 -5.09375 L 1.265625 -0.296875 L 0.3125 -4.296875 L 8.265625 -16.4375 C 9.097656 -17.726562 9.613281 -18.789062 9.8125 -19.625 C 10.019531 -20.46875 10.035156 -21.257812 9.859375 -22 C 9.597656 -23.0625 9.039062 -23.789062 8.1875 -24.1875 C 7.332031 -24.59375 6.207031 -24.628906 4.8125 -24.296875 C 3.644531 -24.015625 2.644531 -23.535156 1.8125 -22.859375 C 0.988281 -22.191406 0.367188 -21.347656 -0.046875 -20.328125 L -5.21875 -22.140625 C -4.550781 -23.921875 -3.410156 -25.46875 -1.796875 -26.78125 C -0.179688 -28.101562 1.804688 -29.046875 4.171875 -29.609375 C 6.148438 -30.078125 7.953125 -30.160156 9.578125 -29.859375 C 11.210938 -29.554688 12.582031 -28.914062 13.6875 -27.9375 C 14.789062 -26.957031 15.535156 -25.671875 15.921875 -24.078125 C 16.265625 -22.628906 16.285156 -21.195312 15.984375 -19.78125 C 15.679688 -18.363281 14.84375 -16.640625 13.46875 -14.609375 L 8.734375 -7.375 Z M 20.1875 -10.109375 "/></g></g></g><g fill="#5da865" fill-opacity="1"><g transform="translate(450.049793, 675.791578)"><g><path d="M 4.796875 -19.6875 C 8.453125 -20.925781 11.394531 -21.117188 13.625 -20.265625 C 15.863281 -19.410156 17.398438 -17.757812 18.234375 -15.3125 C 18.773438 -13.738281 18.867188 -12.171875 18.515625 -10.609375 C 18.171875 -9.046875 17.320312 -7.597656 15.96875 -6.265625 C 14.625 -4.941406 12.769531 -3.875 10.40625 -3.0625 C 8.582031 -2.4375 6.703125 -2.0625 4.765625 -1.9375 C 2.835938 -1.820312 1.109375 -2 -0.421875 -2.46875 L 0.375 -7.859375 C 1.613281 -7.453125 2.941406 -7.257812 4.359375 -7.28125 C 5.785156 -7.3125 7.175781 -7.5625 8.53125 -8.03125 C 10.03125 -8.539062 11.109375 -9.238281 11.765625 -10.125 C 12.429688 -11.019531 12.582031 -12 12.21875 -13.0625 C 11.84375 -14.164062 11.109375 -14.847656 10.015625 -15.109375 C 8.929688 -15.367188 7.28125 -15.117188 5.0625 -14.359375 L -1.5625 -12.09375 L -5.21875 -27.125 L 10.5625 -32.53125 L 12.203125 -27.71875 L 1.421875 -24.03125 L 2.6875 -18.953125 Z M 4.796875 -19.6875 "/></g></g></g><g fill="#5da865" fill-opacity="1"><g transform="translate(477.100209, 666.087255)"><g/></g></g><g fill="#5da865" fill-opacity="1"><g transform="translate(491.994763, 659.55572)"><g><path d="M 4.734375 -1.984375 C 3.773438 -1.503906 2.804688 -1.429688 1.828125 -1.765625 C 0.847656 -2.097656 0.117188 -2.753906 -0.359375 -3.734375 C -0.859375 -4.742188 -0.929688 -5.71875 -0.578125 -6.65625 C -0.222656 -7.59375 0.429688 -8.300781 1.390625 -8.78125 C 2.347656 -9.25 3.304688 -9.332031 4.265625 -9.03125 C 5.222656 -8.738281 5.953125 -8.085938 6.453125 -7.078125 C 6.929688 -6.097656 7.003906 -5.117188 6.671875 -4.140625 C 6.335938 -3.171875 5.691406 -2.453125 4.734375 -1.984375 Z M 4.734375 -1.984375 "/></g></g></g><g fill="#5da865" fill-opacity="1"><g transform="translate(505.800371, 652.633807)"><g/></g></g><g fill="#5da865" fill-opacity="1"><g transform="translate(519.929601, 644.579295)"><g><path d="M 4.515625 -2.46875 C 3.597656 -1.894531 2.632812 -1.722656 1.625 -1.953125 C 0.625 -2.179688 -0.164062 -2.753906 -0.75 -3.671875 C -1.34375 -4.628906 -1.515625 -5.59375 -1.265625 -6.5625 C -1.023438 -7.539062 -0.445312 -8.316406 0.46875 -8.890625 C 1.363281 -9.453125 2.300781 -9.632812 3.28125 -9.4375 C 4.269531 -9.238281 5.0625 -8.660156 5.65625 -7.703125 C 6.238281 -6.785156 6.414062 -5.820312 6.1875 -4.8125 C 5.96875 -3.8125 5.410156 -3.03125 4.515625 -2.46875 Z M 4.515625 -2.46875 "/></g></g></g><g fill="#5da865" fill-opacity="1"><g transform="translate(532.93491, 636.250506)"><g/></g></g><g fill="#5da865" fill-opacity="1"><g transform="translate(546.143511, 626.761471)"><g><path d="M 4.21875 -2.921875 C 3.375 -2.253906 2.441406 -1.984375 1.421875 -2.109375 C 0.398438 -2.234375 -0.445312 -2.726562 -1.125 -3.59375 C -1.820312 -4.476562 -2.09375 -5.414062 -1.9375 -6.40625 C -1.789062 -7.394531 -1.296875 -8.222656 -0.453125 -8.890625 C 0.378906 -9.546875 1.289062 -9.828125 2.28125 -9.734375 C 3.28125 -9.640625 4.128906 -9.148438 4.828125 -8.265625 C 5.503906 -7.398438 5.78125 -6.457031 5.65625 -5.4375 C 5.53125 -4.414062 5.050781 -3.578125 4.21875 -2.921875 Z M 4.21875 -2.921875 "/></g></g></g></g></g></svg>